M48
; DRILL file {KiCad 9.0.6} date 2025-12-20T11:42:15+1100
; FORMAT={-:-/ absolute / metric / decimal}
; #@! TF.CreationDate,2025-12-20T11:42:15+11:00
; #@! TF.GenerationSoftware,Kicad,Pcbnew,9.0.6
; #@! TF.FileFunction,Plated,1,2,PTH
FMAT,2
METRIC
; #@! TA.AperFunction,Plated,PTH,ViaDrill
T1C0.400
; #@! TA.AperFunction,Plated,PTH,ComponentDrill
T2C1.040
; #@! TA.AperFunction,Plated,PTH,ComponentDrill
T3C1.470
%
G90
G05
T1
X38.894Y-40.481
X40.481Y-80.962
X42.069Y-34.131
X46.038Y-41.275
X46.038Y-61.912
X46.831Y-29.369
X48.419Y-40.481
X54.769Y-77.787
X61.912Y-81.756
X62.706Y-35.719
X63.5Y-30.956
X68.263Y-58.606
X79.375Y-81.756
X80.169Y-80.962
X81.756Y-61.912
X83.506Y-80.007
X88.106Y-90.487
X88.9Y-89.694
X90.487Y-93.662
X91.281Y-76.2
X91.281Y-77.787
X91.281Y-95.25
X95.25Y-75.406
X98.425Y-97.631
X99.219Y-80.169
X99.219Y-91.281
X100.012Y-92.075
X107.156Y-92.869
X107.156Y-98.425
X108.744Y-92.869
X111.919Y-69.85
X111.919Y-76.258
X112.712Y-86.231
X112.712Y-96.188
X115.887Y-84.138
X121.444Y-84.138
X122.237Y-78.581
X122.237Y-83.344
X123.031Y-79.375
X123.031Y-82.55
X123.825Y-80.169
X123.825Y-81.756
X127.0Y-76.994
X127.794Y-88.084
X128.588Y-92.075
X129.381Y-92.869
X130.157Y-81.775
X130.175Y-93.662
X130.969Y-74.612
X130.969Y-76.258
X130.969Y-94.456
X131.762Y-87.312
X133.35Y-78.581
X134.144Y-79.375
X134.144Y-90.487
X134.938Y-80.169
X134.938Y-84.138
X135.731Y-76.2
X136.525Y-38.894
X136.525Y-81.756
X140.494Y-90.487
X142.081Y-85.725
X142.081Y-99.219
X142.875Y-98.425
X146.844Y-81.756
X150.019Y-73.819
X154.781Y-74.612
X160.338Y-76.994
X166.688Y-80.962
X169.862Y-76.258
X173.037Y-96.044
X176.213Y-96.044
X180.181Y-92.869
X182.562Y-77.787
X209.55Y-78.581
X229.394Y-79.375
X243.681Y-80.169
T2
X248.761Y-47.942
X251.301Y-47.942
T3
X29.527Y-30.797
X31.909Y-49.847
X34.29Y-68.897
X35.877Y-28.258
X38.259Y-47.307
X40.64Y-66.358
X43.815Y-87.947
X48.578Y-30.797
X50.165Y-85.407
X53.34Y-49.847
X54.927Y-28.258
X58.102Y-68.897
X59.69Y-47.307
X64.453Y-66.358
X67.627Y-30.797
X67.627Y-87.947
X72.39Y-49.847
X73.977Y-28.258
X73.977Y-85.407
X77.153Y-68.897
X78.74Y-47.307
X83.502Y-66.358
X86.677Y-30.797
X91.44Y-49.847
X93.027Y-28.258
X96.203Y-68.897
X97.79Y-47.307
X102.552Y-66.358
X105.727Y-30.797
X110.49Y-49.847
X112.078Y-28.258
X115.252Y-68.897
X116.84Y-47.307
X121.602Y-66.358
X124.777Y-30.797
X129.54Y-49.847
X131.127Y-28.258
X135.572Y-66.358
X135.89Y-47.307
X141.922Y-68.897
X143.827Y-30.797
X148.59Y-49.847
X148.59Y-87.947
X150.177Y-28.258
X153.352Y-68.897
X154.94Y-47.307
X154.94Y-85.407
X159.702Y-66.358
X162.877Y-30.797
X167.64Y-49.847
X169.227Y-28.258
X172.403Y-68.897
X173.99Y-47.307
X178.752Y-66.358
X181.927Y-30.797
X186.69Y-49.847
X188.278Y-28.258
X191.452Y-68.897
X193.04Y-47.307
X197.802Y-66.358
X200.977Y-30.797
X205.74Y-49.847
X207.327Y-28.258
X210.502Y-68.897
X210.502Y-87.947
X212.09Y-47.307
X216.852Y-66.358
X216.852Y-85.407
X220.028Y-30.797
X224.79Y-49.847
X226.377Y-28.258
X229.552Y-68.897
X231.14Y-47.307
X234.315Y-87.947
X235.903Y-66.358
X240.665Y-85.407
X246.221Y-40.322
X248.602Y-68.897
X252.571Y-37.782
X254.952Y-66.358
M30
