M48
; DRILL file {KiCad (5.1.6-0-10_14)} date Wednesday, July 22, 2020 at 02:18:50 PM
; FORMAT={-:-/ absolute / metric / decimal}
; #@! TF.CreationDate,2020-07-22T14:18:50+10:00
; #@! TF.GenerationSoftware,Kicad,Pcbnew,(5.1.6-0-10_14)
; #@! TF.FileFunction,Plated,1,2,PTH
FMAT,2
METRIC
T1C0.400
T2C0.700
T3C1.040
T4C1.470
%
G90
G05
T1
X40.481Y-80.962
X41.275Y-41.275
X43.656Y-41.275
X43.656Y-45.244
X44.45Y-63.5
X45.244Y-62.706
X46.038Y-41.275
X46.038Y-61.912
X54.769Y-77.787
X61.912Y-81.756
X62.706Y-35.719
X63.5Y-30.956
X68.263Y-61.119
X79.375Y-81.756
X80.169Y-80.962
X83.506Y-80.007
X88.106Y-90.487
X88.9Y-89.694
X90.487Y-61.912
X90.487Y-79.375
X90.487Y-88.106
X90.487Y-93.662
X91.281Y-77.787
X91.281Y-86.519
X91.281Y-95.25
X98.425Y-79.375
X98.425Y-97.631
X99.219Y-80.169
X99.219Y-91.281
X100.012Y-92.075
X107.156Y-92.869
X107.156Y-98.425
X108.744Y-92.869
X110.331Y-71.438
X110.331Y-77.787
X111.125Y-70.644
X111.125Y-76.994
X111.919Y-69.85
X111.919Y-76.258
X116.663Y-84.156
X121.444Y-84.138
X122.237Y-78.581
X122.237Y-83.344
X123.031Y-79.375
X123.031Y-82.55
X123.825Y-80.169
X123.825Y-81.756
X127.0Y-76.994
X127.794Y-88.084
X128.588Y-92.075
X129.381Y-92.869
X130.157Y-81.775
X130.175Y-93.662
X130.969Y-76.258
X130.969Y-94.456
X131.762Y-87.312
X133.35Y-78.581
X134.144Y-79.375
X134.144Y-90.487
X134.938Y-80.169
X134.938Y-84.138
X135.731Y-76.2
X136.525Y-38.894
X140.494Y-90.487
X141.287Y-57.944
X142.081Y-85.725
X142.081Y-99.219
X142.875Y-98.425
X169.862Y-76.258
X188.912Y-76.258
X209.55Y-78.581
X229.394Y-79.375
X243.681Y-80.169
T3
X248.761Y-47.942
X251.301Y-47.942
T4
X31.909Y-49.847
X38.259Y-47.307
X115.252Y-68.897
X121.602Y-66.358
X43.815Y-87.947
X50.165Y-85.407
X58.102Y-68.897
X64.453Y-66.358
X72.39Y-49.847
X78.74Y-47.307
X191.452Y-68.897
X197.802Y-66.358
X67.627Y-30.797
X73.977Y-28.258
X105.727Y-30.797
X112.078Y-28.258
X143.827Y-30.797
X150.177Y-28.258
X181.927Y-30.797
X188.278Y-28.258
X220.028Y-30.797
X226.377Y-28.258
X129.54Y-49.847
X135.89Y-47.307
X167.64Y-49.847
X173.99Y-47.307
X205.74Y-49.847
X212.09Y-47.307
X67.627Y-87.947
X73.977Y-85.407
X153.352Y-68.897
X159.702Y-66.358
X224.79Y-49.847
X231.14Y-47.307
X48.578Y-30.797
X54.927Y-28.258
X246.221Y-40.322
X252.571Y-37.782
X53.34Y-49.847
X59.69Y-47.307
X248.602Y-68.897
X254.952Y-66.358
X96.203Y-68.897
X102.552Y-66.358
X229.552Y-68.897
X235.903Y-66.358
X110.49Y-49.847
X116.84Y-47.307
X148.59Y-87.947
X154.94Y-85.407
X210.502Y-87.947
X216.852Y-85.407
X172.403Y-68.897
X178.752Y-66.358
X210.502Y-68.897
X216.852Y-66.358
X29.527Y-30.797
X35.877Y-28.258
X134.302Y-68.897
X140.653Y-66.358
X86.677Y-30.797
X93.027Y-28.258
X124.777Y-30.797
X131.127Y-28.258
X162.877Y-30.797
X169.227Y-28.258
X200.977Y-30.797
X207.327Y-28.258
X148.59Y-49.847
X154.94Y-47.307
X186.69Y-49.847
X193.04Y-47.307
X34.29Y-68.897
X40.64Y-66.358
X77.153Y-68.897
X83.502Y-66.358
X91.44Y-49.847
X97.79Y-47.307
X234.315Y-87.947
X240.665Y-85.407
T2
G00X38.419Y-24.8
M15
G01X38.419Y-26.0
M16
G05
G00X38.419Y-29.3
M15
G01X38.419Y-30.5
M16
G05
G00X45.719Y-24.8
M15
G01X45.719Y-26.0
M16
G05
G00X45.719Y-29.3
M15
G01X45.719Y-30.5
M16
G05
T0
M30
