M48
; DRILL file {KiCad 9.0.6} date 2025-12-20T11:42:15+1100
; FORMAT={-:-/ absolute / metric / decimal}
; #@! TF.CreationDate,2025-12-20T11:42:15+11:00
; #@! TF.GenerationSoftware,Kicad,Pcbnew,9.0.6
; #@! TF.FileFunction,NonPlated,1,2,NPTH
FMAT,2
METRIC
; #@! TA.AperFunction,NonPlated,NPTH,ComponentDrill
T1C0.650
; #@! TA.AperFunction,NonPlated,NPTH,ComponentDrill
T2C1.750
; #@! TA.AperFunction,NonPlated,NPTH,ComponentDrill
T3C3.048
; #@! TA.AperFunction,NonPlated,NPTH,ComponentDrill
T4C3.988
%
G90
G05
T1
X41.907Y-25.655
X47.688Y-25.655
T2
X28.258Y-33.337
X30.639Y-52.387
X33.02Y-71.438
X38.417Y-33.337
X40.799Y-52.387
X42.545Y-90.487
X43.18Y-71.438
X47.307Y-33.337
X52.07Y-52.387
X52.705Y-90.487
X56.832Y-71.438
X57.467Y-33.337
X62.23Y-52.387
X66.358Y-33.337
X66.358Y-90.487
X66.992Y-71.438
X71.12Y-52.387
X75.882Y-71.438
X76.517Y-33.337
X76.517Y-90.487
X81.28Y-52.387
X85.407Y-33.337
X86.042Y-71.438
X90.17Y-52.387
X94.932Y-71.438
X95.567Y-33.337
X100.33Y-52.387
X104.457Y-33.337
X105.093Y-71.438
X109.22Y-52.387
X113.983Y-71.438
X114.617Y-33.337
X119.38Y-52.387
X123.507Y-33.337
X124.142Y-71.438
X128.27Y-52.387
X133.032Y-71.438
X133.667Y-33.337
X138.43Y-52.387
X142.558Y-33.337
X143.192Y-71.438
X147.32Y-52.387
X147.32Y-90.487
X152.082Y-71.438
X152.718Y-33.337
X157.48Y-52.387
X157.48Y-90.487
X161.607Y-33.337
X162.243Y-71.438
X166.37Y-52.387
X171.132Y-71.438
X171.767Y-33.337
X176.53Y-52.387
X180.657Y-33.337
X181.292Y-71.438
X185.42Y-52.387
X190.183Y-71.438
X190.817Y-33.337
X195.58Y-52.387
X199.707Y-33.337
X200.343Y-71.438
X204.47Y-52.387
X209.232Y-71.438
X209.232Y-90.487
X209.867Y-33.337
X214.63Y-52.387
X218.757Y-33.337
X219.392Y-71.438
X219.392Y-90.487
X223.52Y-52.387
X228.282Y-71.438
X228.917Y-33.337
X233.045Y-90.487
X233.68Y-52.387
X238.442Y-71.438
X243.205Y-90.487
X244.951Y-42.862
X247.332Y-71.438
X255.111Y-42.862
X257.493Y-71.438
T3
X95.25Y-83.502
X190.5Y-83.502
X243.046Y-30.924
X243.046Y-54.8
T4
X33.337Y-33.337
X35.719Y-52.387
X38.1Y-71.438
X47.625Y-90.487
X52.387Y-33.337
X57.15Y-52.387
X61.912Y-71.438
X71.438Y-33.337
X71.438Y-90.487
X76.2Y-52.387
X80.962Y-71.438
X90.487Y-33.337
X95.25Y-52.387
X95.25Y-98.742
X100.012Y-71.438
X109.537Y-33.337
X114.3Y-52.387
X119.062Y-71.438
X128.588Y-33.337
X133.35Y-52.387
X138.112Y-71.438
X147.637Y-33.337
X152.4Y-52.387
X152.4Y-90.487
X157.162Y-71.438
X166.688Y-33.337
X171.45Y-52.387
X176.213Y-71.438
X185.737Y-33.337
X190.5Y-52.387
X190.5Y-98.742
X195.262Y-71.438
X204.787Y-33.337
X209.55Y-52.387
X214.312Y-71.438
X214.312Y-90.487
X223.837Y-33.337
X228.6Y-52.387
X233.362Y-71.438
X238.125Y-90.487
X250.031Y-42.862
X252.412Y-71.438
X258.286Y-30.924
X258.286Y-54.8
M30
