M48
; DRILL file {KiCad (5.1.6-0-10_14)} date Wednesday, July 22, 2020 at 02:18:50 PM
; FORMAT={-:-/ absolute / metric / decimal}
; #@! TF.CreationDate,2020-07-22T14:18:50+10:00
; #@! TF.GenerationSoftware,Kicad,Pcbnew,(5.1.6-0-10_14)
; #@! TF.FileFunction,NonPlated,1,2,NPTH
FMAT,2
METRIC
T1C1.750
T2C3.048
T3C3.988
%
G90
G05
T1
X109.22Y-52.387
X119.38Y-52.387
X147.32Y-90.487
X157.48Y-90.487
X209.232Y-90.487
X219.392Y-90.487
X171.132Y-71.438
X181.292Y-71.438
X209.232Y-71.438
X219.392Y-71.438
X28.258Y-33.337
X38.417Y-33.337
X133.032Y-71.438
X143.192Y-71.438
X85.407Y-33.337
X95.567Y-33.337
X123.507Y-33.337
X133.667Y-33.337
X161.607Y-33.337
X171.767Y-33.337
X199.707Y-33.337
X209.867Y-33.337
X147.32Y-52.387
X157.48Y-52.387
X185.42Y-52.387
X195.58Y-52.387
X33.02Y-71.438
X43.18Y-71.438
X75.882Y-71.438
X86.042Y-71.438
X90.17Y-52.387
X100.33Y-52.387
X233.045Y-90.487
X243.205Y-90.487
X30.639Y-52.387
X40.799Y-52.387
X113.983Y-71.438
X124.142Y-71.438
X42.545Y-90.487
X52.705Y-90.487
X56.832Y-71.438
X66.992Y-71.438
X71.12Y-52.387
X81.28Y-52.387
X190.183Y-71.438
X200.343Y-71.438
X66.358Y-33.337
X76.517Y-33.337
X104.457Y-33.337
X114.617Y-33.337
X142.558Y-33.337
X152.718Y-33.337
X180.657Y-33.337
X190.817Y-33.337
X218.757Y-33.337
X228.917Y-33.337
X128.27Y-52.387
X138.43Y-52.387
X166.37Y-52.387
X176.53Y-52.387
X204.47Y-52.387
X214.63Y-52.387
X66.358Y-90.487
X76.517Y-90.487
X152.082Y-71.438
X162.243Y-71.438
X223.52Y-52.387
X233.68Y-52.387
X47.307Y-33.337
X57.467Y-33.337
X244.951Y-42.862
X255.111Y-42.862
X52.07Y-52.387
X62.23Y-52.387
X247.332Y-71.438
X257.493Y-71.438
X94.932Y-71.438
X105.093Y-71.438
X228.282Y-71.438
X238.442Y-71.438
T2
X243.046Y-30.924
X243.046Y-54.8
X95.25Y-83.502
X190.5Y-83.502
T3
X35.719Y-52.387
X119.062Y-71.438
X47.625Y-90.487
X61.912Y-71.438
X76.2Y-52.387
X195.262Y-71.438
X71.438Y-33.337
X109.537Y-33.337
X147.637Y-33.337
X185.737Y-33.337
X223.837Y-33.337
X133.35Y-52.387
X171.45Y-52.387
X209.55Y-52.387
X71.438Y-90.487
X157.162Y-71.438
X228.6Y-52.387
X52.387Y-33.337
X250.031Y-42.862
X258.286Y-30.924
X258.286Y-54.8
X57.15Y-52.387
X252.412Y-71.438
X100.012Y-71.438
X233.362Y-71.438
X114.3Y-52.387
X95.25Y-98.742
X152.4Y-90.487
X190.5Y-98.742
X214.312Y-90.487
X176.213Y-71.438
X214.312Y-71.438
X33.337Y-33.337
X138.112Y-71.438
X90.487Y-33.337
X128.588Y-33.337
X166.688Y-33.337
X204.787Y-33.337
X152.4Y-52.387
X190.5Y-52.387
X38.1Y-71.438
X80.962Y-71.438
X95.25Y-52.387
X238.125Y-90.487
T0
M30
