%TF.GenerationSoftware,KiCad,Pcbnew,(5.1.6-0-10_14)*%
%TF.CreationDate,2020-07-22T14:13:02+10:00*%
%TF.ProjectId,iso_40,69736f5f-3430-42e6-9b69-6361645f7063,rev?*%
%TF.SameCoordinates,Original*%
%TF.FileFunction,Legend,Bot*%
%TF.FilePolarity,Positive*%
%FSLAX46Y46*%
G04 Gerber Fmt 4.6, Leading zero omitted, Abs format (unit mm)*
G04 Created by KiCad (PCBNEW (5.1.6-0-10_14)) date 2020-07-22 14:13:02*
%MOMM*%
%LPD*%
G01*
G04 APERTURE LIST*
%ADD10C,0.100000*%
%ADD11C,0.150000*%
%ADD12C,0.300000*%
%ADD13C,0.400000*%
%ADD14C,0.120000*%
%ADD15C,2.350000*%
%ADD16C,4.087800*%
%ADD17C,1.850000*%
%ADD18R,1.300000X1.500000*%
%ADD19O,1.800000X2.800000*%
%ADD20R,0.600000X2.350000*%
%ADD21R,1.600000X0.650000*%
%ADD22R,0.650000X1.600000*%
%ADD23R,1.900000X1.200000*%
%ADD24C,3.148000*%
%ADD25R,2.005000X2.005000*%
%ADD26C,2.005000*%
%ADD27R,1.300000X1.000000*%
%ADD28R,1.000000X1.300000*%
G04 APERTURE END LIST*
D10*
D11*
X177002200Y-166007200D02*
X177002200Y-198007200D01*
X285002200Y-198007200D01*
X285002200Y-166007200D01*
X177002200Y-166007200D01*
D10*
D11*
X10000000Y-10000000D02*
X10000000Y-200007200D01*
X287002200Y-200007200D01*
X287002200Y-10000000D01*
X10000000Y-10000000D01*
D10*
D11*
X12000000Y-12000000D02*
X12000000Y-198007200D01*
X285002200Y-198007200D01*
X285002200Y-12000000D01*
X12000000Y-12000000D01*
D10*
D11*
X60000000Y-12000000D02*
X60000000Y-10000000D01*
D10*
D11*
X110000000Y-12000000D02*
X110000000Y-10000000D01*
D10*
D11*
X160000000Y-12000000D02*
X160000000Y-10000000D01*
D10*
D11*
X210000000Y-12000000D02*
X210000000Y-10000000D01*
D10*
D11*
X260000000Y-12000000D02*
X260000000Y-10000000D01*
D10*
D11*
X36065476Y-11588095D02*
X35322619Y-11588095D01*
X35694047Y-11588095D02*
X35694047Y-10288095D01*
X35570238Y-10473809D01*
X35446428Y-10597619D01*
X35322619Y-10659523D01*
D10*
D11*
X85322619Y-10411904D02*
X85384523Y-10350000D01*
X85508333Y-10288095D01*
X85817857Y-10288095D01*
X85941666Y-10350000D01*
X86003571Y-10411904D01*
X86065476Y-10535714D01*
X86065476Y-10659523D01*
X86003571Y-10845238D01*
X85260714Y-11588095D01*
X86065476Y-11588095D01*
D10*
D11*
X135260714Y-10288095D02*
X136065476Y-10288095D01*
X135632142Y-10783333D01*
X135817857Y-10783333D01*
X135941666Y-10845238D01*
X136003571Y-10907142D01*
X136065476Y-11030952D01*
X136065476Y-11340476D01*
X136003571Y-11464285D01*
X135941666Y-11526190D01*
X135817857Y-11588095D01*
X135446428Y-11588095D01*
X135322619Y-11526190D01*
X135260714Y-11464285D01*
D10*
D11*
X185941666Y-10721428D02*
X185941666Y-11588095D01*
X185632142Y-10226190D02*
X185322619Y-11154761D01*
X186127380Y-11154761D01*
D10*
D11*
X236003571Y-10288095D02*
X235384523Y-10288095D01*
X235322619Y-10907142D01*
X235384523Y-10845238D01*
X235508333Y-10783333D01*
X235817857Y-10783333D01*
X235941666Y-10845238D01*
X236003571Y-10907142D01*
X236065476Y-11030952D01*
X236065476Y-11340476D01*
X236003571Y-11464285D01*
X235941666Y-11526190D01*
X235817857Y-11588095D01*
X235508333Y-11588095D01*
X235384523Y-11526190D01*
X235322619Y-11464285D01*
D10*
D11*
X285941666Y-10288095D02*
X285694047Y-10288095D01*
X285570238Y-10350000D01*
X285508333Y-10411904D01*
X285384523Y-10597619D01*
X285322619Y-10845238D01*
X285322619Y-11340476D01*
X285384523Y-11464285D01*
X285446428Y-11526190D01*
X285570238Y-11588095D01*
X285817857Y-11588095D01*
X285941666Y-11526190D01*
X286003571Y-11464285D01*
X286065476Y-11340476D01*
X286065476Y-11030952D01*
X286003571Y-10907142D01*
X285941666Y-10845238D01*
X285817857Y-10783333D01*
X285570238Y-10783333D01*
X285446428Y-10845238D01*
X285384523Y-10907142D01*
X285322619Y-11030952D01*
D10*
D11*
X60000000Y-198007200D02*
X60000000Y-200007200D01*
D10*
D11*
X110000000Y-198007200D02*
X110000000Y-200007200D01*
D10*
D11*
X160000000Y-198007200D02*
X160000000Y-200007200D01*
D10*
D11*
X210000000Y-198007200D02*
X210000000Y-200007200D01*
D10*
D11*
X260000000Y-198007200D02*
X260000000Y-200007200D01*
D10*
D11*
X36065476Y-199595295D02*
X35322619Y-199595295D01*
X35694047Y-199595295D02*
X35694047Y-198295295D01*
X35570238Y-198481009D01*
X35446428Y-198604819D01*
X35322619Y-198666723D01*
D10*
D11*
X85322619Y-198419104D02*
X85384523Y-198357200D01*
X85508333Y-198295295D01*
X85817857Y-198295295D01*
X85941666Y-198357200D01*
X86003571Y-198419104D01*
X86065476Y-198542914D01*
X86065476Y-198666723D01*
X86003571Y-198852438D01*
X85260714Y-199595295D01*
X86065476Y-199595295D01*
D10*
D11*
X135260714Y-198295295D02*
X136065476Y-198295295D01*
X135632142Y-198790533D01*
X135817857Y-198790533D01*
X135941666Y-198852438D01*
X136003571Y-198914342D01*
X136065476Y-199038152D01*
X136065476Y-199347676D01*
X136003571Y-199471485D01*
X135941666Y-199533390D01*
X135817857Y-199595295D01*
X135446428Y-199595295D01*
X135322619Y-199533390D01*
X135260714Y-199471485D01*
D10*
D11*
X185941666Y-198728628D02*
X185941666Y-199595295D01*
X185632142Y-198233390D02*
X185322619Y-199161961D01*
X186127380Y-199161961D01*
D10*
D11*
X236003571Y-198295295D02*
X235384523Y-198295295D01*
X235322619Y-198914342D01*
X235384523Y-198852438D01*
X235508333Y-198790533D01*
X235817857Y-198790533D01*
X235941666Y-198852438D01*
X236003571Y-198914342D01*
X236065476Y-199038152D01*
X236065476Y-199347676D01*
X236003571Y-199471485D01*
X235941666Y-199533390D01*
X235817857Y-199595295D01*
X235508333Y-199595295D01*
X235384523Y-199533390D01*
X235322619Y-199471485D01*
D10*
D11*
X285941666Y-198295295D02*
X285694047Y-198295295D01*
X285570238Y-198357200D01*
X285508333Y-198419104D01*
X285384523Y-198604819D01*
X285322619Y-198852438D01*
X285322619Y-199347676D01*
X285384523Y-199471485D01*
X285446428Y-199533390D01*
X285570238Y-199595295D01*
X285817857Y-199595295D01*
X285941666Y-199533390D01*
X286003571Y-199471485D01*
X286065476Y-199347676D01*
X286065476Y-199038152D01*
X286003571Y-198914342D01*
X285941666Y-198852438D01*
X285817857Y-198790533D01*
X285570238Y-198790533D01*
X285446428Y-198852438D01*
X285384523Y-198914342D01*
X285322619Y-199038152D01*
D10*
D11*
X10000000Y-60000000D02*
X12000000Y-60000000D01*
D10*
D11*
X10000000Y-110000000D02*
X12000000Y-110000000D01*
D10*
D11*
X10000000Y-160000000D02*
X12000000Y-160000000D01*
D10*
D11*
X10690476Y-35216666D02*
X11309523Y-35216666D01*
X10566666Y-35588095D02*
X11000000Y-34288095D01*
X11433333Y-35588095D01*
D10*
D11*
X11092857Y-84907142D02*
X11278571Y-84969047D01*
X11340476Y-85030952D01*
X11402380Y-85154761D01*
X11402380Y-85340476D01*
X11340476Y-85464285D01*
X11278571Y-85526190D01*
X11154761Y-85588095D01*
X10659523Y-85588095D01*
X10659523Y-84288095D01*
X11092857Y-84288095D01*
X11216666Y-84350000D01*
X11278571Y-84411904D01*
X11340476Y-84535714D01*
X11340476Y-84659523D01*
X11278571Y-84783333D01*
X11216666Y-84845238D01*
X11092857Y-84907142D01*
X10659523Y-84907142D01*
D10*
D11*
X11402380Y-135464285D02*
X11340476Y-135526190D01*
X11154761Y-135588095D01*
X11030952Y-135588095D01*
X10845238Y-135526190D01*
X10721428Y-135402380D01*
X10659523Y-135278571D01*
X10597619Y-135030952D01*
X10597619Y-134845238D01*
X10659523Y-134597619D01*
X10721428Y-134473809D01*
X10845238Y-134350000D01*
X11030952Y-134288095D01*
X11154761Y-134288095D01*
X11340476Y-134350000D01*
X11402380Y-134411904D01*
D10*
D11*
X10659523Y-185588095D02*
X10659523Y-184288095D01*
X10969047Y-184288095D01*
X11154761Y-184350000D01*
X11278571Y-184473809D01*
X11340476Y-184597619D01*
X11402380Y-184845238D01*
X11402380Y-185030952D01*
X11340476Y-185278571D01*
X11278571Y-185402380D01*
X11154761Y-185526190D01*
X10969047Y-185588095D01*
X10659523Y-185588095D01*
D10*
D11*
X287002200Y-60000000D02*
X285002200Y-60000000D01*
D10*
D11*
X287002200Y-110000000D02*
X285002200Y-110000000D01*
D10*
D11*
X287002200Y-160000000D02*
X285002200Y-160000000D01*
D10*
D11*
X285692676Y-35216666D02*
X286311723Y-35216666D01*
X285568866Y-35588095D02*
X286002200Y-34288095D01*
X286435533Y-35588095D01*
D10*
D11*
X286095057Y-84907142D02*
X286280771Y-84969047D01*
X286342676Y-85030952D01*
X286404580Y-85154761D01*
X286404580Y-85340476D01*
X286342676Y-85464285D01*
X286280771Y-85526190D01*
X286156961Y-85588095D01*
X285661723Y-85588095D01*
X285661723Y-84288095D01*
X286095057Y-84288095D01*
X286218866Y-84350000D01*
X286280771Y-84411904D01*
X286342676Y-84535714D01*
X286342676Y-84659523D01*
X286280771Y-84783333D01*
X286218866Y-84845238D01*
X286095057Y-84907142D01*
X285661723Y-84907142D01*
D10*
D11*
X286404580Y-135464285D02*
X286342676Y-135526190D01*
X286156961Y-135588095D01*
X286033152Y-135588095D01*
X285847438Y-135526190D01*
X285723628Y-135402380D01*
X285661723Y-135278571D01*
X285599819Y-135030952D01*
X285599819Y-134845238D01*
X285661723Y-134597619D01*
X285723628Y-134473809D01*
X285847438Y-134350000D01*
X286033152Y-134288095D01*
X286156961Y-134288095D01*
X286342676Y-134350000D01*
X286404580Y-134411904D01*
D10*
D11*
X285661723Y-185588095D02*
X285661723Y-184288095D01*
X285971247Y-184288095D01*
X286156961Y-184350000D01*
X286280771Y-184473809D01*
X286342676Y-184597619D01*
X286404580Y-184845238D01*
X286404580Y-185030952D01*
X286342676Y-185278571D01*
X286280771Y-185402380D01*
X286156961Y-185526190D01*
X285971247Y-185588095D01*
X285661723Y-185588095D01*
D10*
D11*
X200434342Y-193785771D02*
X200434342Y-192285771D01*
X200791485Y-192285771D01*
X201005771Y-192357200D01*
X201148628Y-192500057D01*
X201220057Y-192642914D01*
X201291485Y-192928628D01*
X201291485Y-193142914D01*
X201220057Y-193428628D01*
X201148628Y-193571485D01*
X201005771Y-193714342D01*
X200791485Y-193785771D01*
X200434342Y-193785771D01*
X202577200Y-193785771D02*
X202577200Y-193000057D01*
X202505771Y-192857200D01*
X202362914Y-192785771D01*
X202077200Y-192785771D01*
X201934342Y-192857200D01*
X202577200Y-193714342D02*
X202434342Y-193785771D01*
X202077200Y-193785771D01*
X201934342Y-193714342D01*
X201862914Y-193571485D01*
X201862914Y-193428628D01*
X201934342Y-193285771D01*
X202077200Y-193214342D01*
X202434342Y-193214342D01*
X202577200Y-193142914D01*
X203077200Y-192785771D02*
X203648628Y-192785771D01*
X203291485Y-192285771D02*
X203291485Y-193571485D01*
X203362914Y-193714342D01*
X203505771Y-193785771D01*
X203648628Y-193785771D01*
X204720057Y-193714342D02*
X204577200Y-193785771D01*
X204291485Y-193785771D01*
X204148628Y-193714342D01*
X204077200Y-193571485D01*
X204077200Y-193000057D01*
X204148628Y-192857200D01*
X204291485Y-192785771D01*
X204577200Y-192785771D01*
X204720057Y-192857200D01*
X204791485Y-193000057D01*
X204791485Y-193142914D01*
X204077200Y-193285771D01*
X205434342Y-193642914D02*
X205505771Y-193714342D01*
X205434342Y-193785771D01*
X205362914Y-193714342D01*
X205434342Y-193642914D01*
X205434342Y-193785771D01*
X205434342Y-192857200D02*
X205505771Y-192928628D01*
X205434342Y-193000057D01*
X205362914Y-192928628D01*
X205434342Y-192857200D01*
X205434342Y-193000057D01*
D10*
D11*
X177002200Y-194507200D02*
X285002200Y-194507200D01*
D10*
D11*
X178434342Y-196585771D02*
X178434342Y-195085771D01*
X179291485Y-196585771D02*
X178648628Y-195728628D01*
X179291485Y-195085771D02*
X178434342Y-195942914D01*
X179934342Y-196585771D02*
X179934342Y-195585771D01*
X179934342Y-195085771D02*
X179862914Y-195157200D01*
X179934342Y-195228628D01*
X180005771Y-195157200D01*
X179934342Y-195085771D01*
X179934342Y-195228628D01*
X181505771Y-196442914D02*
X181434342Y-196514342D01*
X181220057Y-196585771D01*
X181077200Y-196585771D01*
X180862914Y-196514342D01*
X180720057Y-196371485D01*
X180648628Y-196228628D01*
X180577200Y-195942914D01*
X180577200Y-195728628D01*
X180648628Y-195442914D01*
X180720057Y-195300057D01*
X180862914Y-195157200D01*
X181077200Y-195085771D01*
X181220057Y-195085771D01*
X181434342Y-195157200D01*
X181505771Y-195228628D01*
X182791485Y-196585771D02*
X182791485Y-195800057D01*
X182720057Y-195657200D01*
X182577200Y-195585771D01*
X182291485Y-195585771D01*
X182148628Y-195657200D01*
X182791485Y-196514342D02*
X182648628Y-196585771D01*
X182291485Y-196585771D01*
X182148628Y-196514342D01*
X182077200Y-196371485D01*
X182077200Y-196228628D01*
X182148628Y-196085771D01*
X182291485Y-196014342D01*
X182648628Y-196014342D01*
X182791485Y-195942914D01*
X184148628Y-196585771D02*
X184148628Y-195085771D01*
X184148628Y-196514342D02*
X184005771Y-196585771D01*
X183720057Y-196585771D01*
X183577200Y-196514342D01*
X183505771Y-196442914D01*
X183434342Y-196300057D01*
X183434342Y-195871485D01*
X183505771Y-195728628D01*
X183577200Y-195657200D01*
X183720057Y-195585771D01*
X184005771Y-195585771D01*
X184148628Y-195657200D01*
X186005771Y-195800057D02*
X186505771Y-195800057D01*
X186720057Y-196585771D02*
X186005771Y-196585771D01*
X186005771Y-195085771D01*
X186720057Y-195085771D01*
X187362914Y-196442914D02*
X187434342Y-196514342D01*
X187362914Y-196585771D01*
X187291485Y-196514342D01*
X187362914Y-196442914D01*
X187362914Y-196585771D01*
X188077200Y-196585771D02*
X188077200Y-195085771D01*
X188434342Y-195085771D01*
X188648628Y-195157200D01*
X188791485Y-195300057D01*
X188862914Y-195442914D01*
X188934342Y-195728628D01*
X188934342Y-195942914D01*
X188862914Y-196228628D01*
X188791485Y-196371485D01*
X188648628Y-196514342D01*
X188434342Y-196585771D01*
X188077200Y-196585771D01*
X189577200Y-196442914D02*
X189648628Y-196514342D01*
X189577200Y-196585771D01*
X189505771Y-196514342D01*
X189577200Y-196442914D01*
X189577200Y-196585771D01*
X190220057Y-196157200D02*
X190934342Y-196157200D01*
X190077200Y-196585771D02*
X190577200Y-195085771D01*
X191077200Y-196585771D01*
X191577200Y-196442914D02*
X191648628Y-196514342D01*
X191577200Y-196585771D01*
X191505771Y-196514342D01*
X191577200Y-196442914D01*
X191577200Y-196585771D01*
X194577200Y-196585771D02*
X194577200Y-195085771D01*
X194720057Y-196014342D02*
X195148628Y-196585771D01*
X195148628Y-195585771D02*
X194577200Y-196157200D01*
X195791485Y-196585771D02*
X195791485Y-195585771D01*
X195791485Y-195085771D02*
X195720057Y-195157200D01*
X195791485Y-195228628D01*
X195862914Y-195157200D01*
X195791485Y-195085771D01*
X195791485Y-195228628D01*
X197148628Y-196514342D02*
X197005771Y-196585771D01*
X196720057Y-196585771D01*
X196577200Y-196514342D01*
X196505771Y-196442914D01*
X196434342Y-196300057D01*
X196434342Y-195871485D01*
X196505771Y-195728628D01*
X196577200Y-195657200D01*
X196720057Y-195585771D01*
X197005771Y-195585771D01*
X197148628Y-195657200D01*
X198434342Y-196585771D02*
X198434342Y-195800057D01*
X198362914Y-195657200D01*
X198220057Y-195585771D01*
X197934342Y-195585771D01*
X197791485Y-195657200D01*
X198434342Y-196514342D02*
X198291485Y-196585771D01*
X197934342Y-196585771D01*
X197791485Y-196514342D01*
X197720057Y-196371485D01*
X197720057Y-196228628D01*
X197791485Y-196085771D01*
X197934342Y-196014342D01*
X198291485Y-196014342D01*
X198434342Y-195942914D01*
X199791485Y-196585771D02*
X199791485Y-195085771D01*
X199791485Y-196514342D02*
X199648628Y-196585771D01*
X199362914Y-196585771D01*
X199220057Y-196514342D01*
X199148628Y-196442914D01*
X199077200Y-196300057D01*
X199077200Y-195871485D01*
X199148628Y-195728628D01*
X199220057Y-195657200D01*
X199362914Y-195585771D01*
X199648628Y-195585771D01*
X199791485Y-195657200D01*
X202077200Y-197157200D02*
X202005771Y-197085771D01*
X201862914Y-196871485D01*
X201791485Y-196728628D01*
X201720057Y-196514342D01*
X201648628Y-196157200D01*
X201648628Y-195871485D01*
X201720057Y-195514342D01*
X201791485Y-195300057D01*
X201862914Y-195157200D01*
X202005771Y-194942914D01*
X202077200Y-194871485D01*
X203362914Y-195085771D02*
X202648628Y-195085771D01*
X202577200Y-195800057D01*
X202648628Y-195728628D01*
X202791485Y-195657200D01*
X203148628Y-195657200D01*
X203291485Y-195728628D01*
X203362914Y-195800057D01*
X203434342Y-195942914D01*
X203434342Y-196300057D01*
X203362914Y-196442914D01*
X203291485Y-196514342D01*
X203148628Y-196585771D01*
X202791485Y-196585771D01*
X202648628Y-196514342D01*
X202577200Y-196442914D01*
X204077200Y-196442914D02*
X204148628Y-196514342D01*
X204077200Y-196585771D01*
X204005771Y-196514342D01*
X204077200Y-196442914D01*
X204077200Y-196585771D01*
X205577200Y-196585771D02*
X204720057Y-196585771D01*
X205148628Y-196585771D02*
X205148628Y-195085771D01*
X205005771Y-195300057D01*
X204862914Y-195442914D01*
X204720057Y-195514342D01*
X206220057Y-196442914D02*
X206291485Y-196514342D01*
X206220057Y-196585771D01*
X206148628Y-196514342D01*
X206220057Y-196442914D01*
X206220057Y-196585771D01*
X207577200Y-195085771D02*
X207291485Y-195085771D01*
X207148628Y-195157200D01*
X207077200Y-195228628D01*
X206934342Y-195442914D01*
X206862914Y-195728628D01*
X206862914Y-196300057D01*
X206934342Y-196442914D01*
X207005771Y-196514342D01*
X207148628Y-196585771D01*
X207434342Y-196585771D01*
X207577200Y-196514342D01*
X207648628Y-196442914D01*
X207720057Y-196300057D01*
X207720057Y-195942914D01*
X207648628Y-195800057D01*
X207577200Y-195728628D01*
X207434342Y-195657200D01*
X207148628Y-195657200D01*
X207005771Y-195728628D01*
X206934342Y-195800057D01*
X206862914Y-195942914D01*
X208362914Y-196014342D02*
X209505771Y-196014342D01*
X210505771Y-195085771D02*
X210648628Y-195085771D01*
X210791485Y-195157200D01*
X210862914Y-195228628D01*
X210934342Y-195371485D01*
X211005771Y-195657200D01*
X211005771Y-196014342D01*
X210934342Y-196300057D01*
X210862914Y-196442914D01*
X210791485Y-196514342D01*
X210648628Y-196585771D01*
X210505771Y-196585771D01*
X210362914Y-196514342D01*
X210291485Y-196442914D01*
X210220057Y-196300057D01*
X210148628Y-196014342D01*
X210148628Y-195657200D01*
X210220057Y-195371485D01*
X210291485Y-195228628D01*
X210362914Y-195157200D01*
X210505771Y-195085771D01*
X211648628Y-196014342D02*
X212791485Y-196014342D01*
X214291485Y-196585771D02*
X213434342Y-196585771D01*
X213862914Y-196585771D02*
X213862914Y-195085771D01*
X213720057Y-195300057D01*
X213577200Y-195442914D01*
X213434342Y-195514342D01*
X215220057Y-195085771D02*
X215362914Y-195085771D01*
X215505771Y-195157200D01*
X215577200Y-195228628D01*
X215648628Y-195371485D01*
X215720057Y-195657200D01*
X215720057Y-196014342D01*
X215648628Y-196300057D01*
X215577200Y-196442914D01*
X215505771Y-196514342D01*
X215362914Y-196585771D01*
X215220057Y-196585771D01*
X215077200Y-196514342D01*
X215005771Y-196442914D01*
X214934342Y-196300057D01*
X214862914Y-196014342D01*
X214862914Y-195657200D01*
X214934342Y-195371485D01*
X215005771Y-195228628D01*
X215077200Y-195157200D01*
X215220057Y-195085771D01*
X216005771Y-196728628D02*
X217148628Y-196728628D01*
X218291485Y-196585771D02*
X217434342Y-196585771D01*
X217862914Y-196585771D02*
X217862914Y-195085771D01*
X217720057Y-195300057D01*
X217577200Y-195442914D01*
X217434342Y-195514342D01*
X219577200Y-195585771D02*
X219577200Y-196585771D01*
X219220057Y-195014342D02*
X218862914Y-196085771D01*
X219791485Y-196085771D01*
X220220057Y-197157200D02*
X220291485Y-197085771D01*
X220434342Y-196871485D01*
X220505771Y-196728628D01*
X220577200Y-196514342D01*
X220648628Y-196157200D01*
X220648628Y-195871485D01*
X220577200Y-195514342D01*
X220505771Y-195300057D01*
X220434342Y-195157200D01*
X220291485Y-194942914D01*
X220220057Y-194871485D01*
D10*
D11*
X177002200Y-191507200D02*
X285002200Y-191507200D01*
D10*
D12*
X264411485Y-193785771D02*
X263911485Y-193071485D01*
X263554342Y-193785771D02*
X263554342Y-192285771D01*
X264125771Y-192285771D01*
X264268628Y-192357200D01*
X264340057Y-192428628D01*
X264411485Y-192571485D01*
X264411485Y-192785771D01*
X264340057Y-192928628D01*
X264268628Y-193000057D01*
X264125771Y-193071485D01*
X263554342Y-193071485D01*
X265625771Y-193714342D02*
X265482914Y-193785771D01*
X265197200Y-193785771D01*
X265054342Y-193714342D01*
X264982914Y-193571485D01*
X264982914Y-193000057D01*
X265054342Y-192857200D01*
X265197200Y-192785771D01*
X265482914Y-192785771D01*
X265625771Y-192857200D01*
X265697200Y-193000057D01*
X265697200Y-193142914D01*
X264982914Y-193285771D01*
X266197200Y-192785771D02*
X266554342Y-193785771D01*
X266911485Y-192785771D01*
X267482914Y-193642914D02*
X267554342Y-193714342D01*
X267482914Y-193785771D01*
X267411485Y-193714342D01*
X267482914Y-193642914D01*
X267482914Y-193785771D01*
X267482914Y-192857200D02*
X267554342Y-192928628D01*
X267482914Y-193000057D01*
X267411485Y-192928628D01*
X267482914Y-192857200D01*
X267482914Y-193000057D01*
D10*
D11*
X178362914Y-193714342D02*
X178577200Y-193785771D01*
X178934342Y-193785771D01*
X179077200Y-193714342D01*
X179148628Y-193642914D01*
X179220057Y-193500057D01*
X179220057Y-193357200D01*
X179148628Y-193214342D01*
X179077200Y-193142914D01*
X178934342Y-193071485D01*
X178648628Y-193000057D01*
X178505771Y-192928628D01*
X178434342Y-192857200D01*
X178362914Y-192714342D01*
X178362914Y-192571485D01*
X178434342Y-192428628D01*
X178505771Y-192357200D01*
X178648628Y-192285771D01*
X179005771Y-192285771D01*
X179220057Y-192357200D01*
X179862914Y-193785771D02*
X179862914Y-192785771D01*
X179862914Y-192285771D02*
X179791485Y-192357200D01*
X179862914Y-192428628D01*
X179934342Y-192357200D01*
X179862914Y-192285771D01*
X179862914Y-192428628D01*
X180434342Y-192785771D02*
X181220057Y-192785771D01*
X180434342Y-193785771D01*
X181220057Y-193785771D01*
X182362914Y-193714342D02*
X182220057Y-193785771D01*
X181934342Y-193785771D01*
X181791485Y-193714342D01*
X181720057Y-193571485D01*
X181720057Y-193000057D01*
X181791485Y-192857200D01*
X181934342Y-192785771D01*
X182220057Y-192785771D01*
X182362914Y-192857200D01*
X182434342Y-193000057D01*
X182434342Y-193142914D01*
X181720057Y-193285771D01*
X183077200Y-193642914D02*
X183148628Y-193714342D01*
X183077200Y-193785771D01*
X183005771Y-193714342D01*
X183077200Y-193642914D01*
X183077200Y-193785771D01*
X183077200Y-192857200D02*
X183148628Y-192928628D01*
X183077200Y-193000057D01*
X183005771Y-192928628D01*
X183077200Y-192857200D01*
X183077200Y-193000057D01*
X184862914Y-193357200D02*
X185577200Y-193357200D01*
X184720057Y-193785771D02*
X185220057Y-192285771D01*
X185720057Y-193785771D01*
X186862914Y-192785771D02*
X186862914Y-193785771D01*
X186505771Y-192214342D02*
X186148628Y-193285771D01*
X187077200Y-193285771D01*
D10*
D11*
X263434342Y-196585771D02*
X263434342Y-195085771D01*
X264791485Y-196585771D02*
X264791485Y-195085771D01*
X264791485Y-196514342D02*
X264648628Y-196585771D01*
X264362914Y-196585771D01*
X264220057Y-196514342D01*
X264148628Y-196442914D01*
X264077200Y-196300057D01*
X264077200Y-195871485D01*
X264148628Y-195728628D01*
X264220057Y-195657200D01*
X264362914Y-195585771D01*
X264648628Y-195585771D01*
X264791485Y-195657200D01*
X265505771Y-196442914D02*
X265577200Y-196514342D01*
X265505771Y-196585771D01*
X265434342Y-196514342D01*
X265505771Y-196442914D01*
X265505771Y-196585771D01*
X265505771Y-195657200D02*
X265577200Y-195728628D01*
X265505771Y-195800057D01*
X265434342Y-195728628D01*
X265505771Y-195657200D01*
X265505771Y-195800057D01*
X268148628Y-196585771D02*
X267291485Y-196585771D01*
X267720057Y-196585771D02*
X267720057Y-195085771D01*
X267577200Y-195300057D01*
X267434342Y-195442914D01*
X267291485Y-195514342D01*
X269862914Y-195014342D02*
X268577200Y-196942914D01*
X271148628Y-196585771D02*
X270291485Y-196585771D01*
X270720057Y-196585771D02*
X270720057Y-195085771D01*
X270577200Y-195300057D01*
X270434342Y-195442914D01*
X270291485Y-195514342D01*
D10*
D11*
X177002200Y-187507200D02*
X285002200Y-187507200D01*
D10*
D13*
X178714580Y-188211961D02*
X179857438Y-188211961D01*
X179036009Y-190211961D02*
X179286009Y-188211961D01*
X180274104Y-190211961D02*
X180440771Y-188878628D01*
X180524104Y-188211961D02*
X180416961Y-188307200D01*
X180500295Y-188402438D01*
X180607438Y-188307200D01*
X180524104Y-188211961D01*
X180500295Y-188402438D01*
X181107438Y-188878628D02*
X181869342Y-188878628D01*
X181476485Y-188211961D02*
X181262200Y-189926247D01*
X181333628Y-190116723D01*
X181512200Y-190211961D01*
X181702676Y-190211961D01*
X182655057Y-190211961D02*
X182476485Y-190116723D01*
X182405057Y-189926247D01*
X182619342Y-188211961D01*
X184190771Y-190116723D02*
X183988390Y-190211961D01*
X183607438Y-190211961D01*
X183428866Y-190116723D01*
X183357438Y-189926247D01*
X183452676Y-189164342D01*
X183571723Y-188973866D01*
X183774104Y-188878628D01*
X184155057Y-188878628D01*
X184333628Y-188973866D01*
X184405057Y-189164342D01*
X184381247Y-189354819D01*
X183405057Y-189545295D01*
X185155057Y-190021485D02*
X185238390Y-190116723D01*
X185131247Y-190211961D01*
X185047914Y-190116723D01*
X185155057Y-190021485D01*
X185131247Y-190211961D01*
X185286009Y-188973866D02*
X185369342Y-189069104D01*
X185262200Y-189164342D01*
X185178866Y-189069104D01*
X185286009Y-188973866D01*
X185262200Y-189164342D01*
D10*
D11*
X178934342Y-185600057D02*
X178434342Y-185600057D01*
X178434342Y-186385771D02*
X178434342Y-184885771D01*
X179148628Y-184885771D01*
X179720057Y-186385771D02*
X179720057Y-185385771D01*
X179720057Y-184885771D02*
X179648628Y-184957200D01*
X179720057Y-185028628D01*
X179791485Y-184957200D01*
X179720057Y-184885771D01*
X179720057Y-185028628D01*
X180648628Y-186385771D02*
X180505771Y-186314342D01*
X180434342Y-186171485D01*
X180434342Y-184885771D01*
X181791485Y-186314342D02*
X181648628Y-186385771D01*
X181362914Y-186385771D01*
X181220057Y-186314342D01*
X181148628Y-186171485D01*
X181148628Y-185600057D01*
X181220057Y-185457200D01*
X181362914Y-185385771D01*
X181648628Y-185385771D01*
X181791485Y-185457200D01*
X181862914Y-185600057D01*
X181862914Y-185742914D01*
X181148628Y-185885771D01*
X182505771Y-186242914D02*
X182577200Y-186314342D01*
X182505771Y-186385771D01*
X182434342Y-186314342D01*
X182505771Y-186242914D01*
X182505771Y-186385771D01*
X182505771Y-185457200D02*
X182577200Y-185528628D01*
X182505771Y-185600057D01*
X182434342Y-185528628D01*
X182505771Y-185457200D01*
X182505771Y-185600057D01*
X184362914Y-186385771D02*
X184362914Y-185385771D01*
X184362914Y-184885771D02*
X184291485Y-184957200D01*
X184362914Y-185028628D01*
X184434342Y-184957200D01*
X184362914Y-184885771D01*
X184362914Y-185028628D01*
X185005771Y-186314342D02*
X185148628Y-186385771D01*
X185434342Y-186385771D01*
X185577200Y-186314342D01*
X185648628Y-186171485D01*
X185648628Y-186100057D01*
X185577200Y-185957200D01*
X185434342Y-185885771D01*
X185220057Y-185885771D01*
X185077200Y-185814342D01*
X185005771Y-185671485D01*
X185005771Y-185600057D01*
X185077200Y-185457200D01*
X185220057Y-185385771D01*
X185434342Y-185385771D01*
X185577200Y-185457200D01*
X186505771Y-186385771D02*
X186362914Y-186314342D01*
X186291485Y-186242914D01*
X186220057Y-186100057D01*
X186220057Y-185671485D01*
X186291485Y-185528628D01*
X186362914Y-185457200D01*
X186505771Y-185385771D01*
X186720057Y-185385771D01*
X186862914Y-185457200D01*
X186934342Y-185528628D01*
X187005771Y-185671485D01*
X187005771Y-186100057D01*
X186934342Y-186242914D01*
X186862914Y-186314342D01*
X186720057Y-186385771D01*
X186505771Y-186385771D01*
X187291485Y-186528628D02*
X188434342Y-186528628D01*
X189434342Y-185385771D02*
X189434342Y-186385771D01*
X189077200Y-184814342D02*
X188720057Y-185885771D01*
X189648628Y-185885771D01*
X190505771Y-184885771D02*
X190648628Y-184885771D01*
X190791485Y-184957200D01*
X190862914Y-185028628D01*
X190934342Y-185171485D01*
X191005771Y-185457200D01*
X191005771Y-185814342D01*
X190934342Y-186100057D01*
X190862914Y-186242914D01*
X190791485Y-186314342D01*
X190648628Y-186385771D01*
X190505771Y-186385771D01*
X190362914Y-186314342D01*
X190291485Y-186242914D01*
X190220057Y-186100057D01*
X190148628Y-185814342D01*
X190148628Y-185457200D01*
X190220057Y-185171485D01*
X190291485Y-185028628D01*
X190362914Y-184957200D01*
X190505771Y-184885771D01*
X191648628Y-186242914D02*
X191720057Y-186314342D01*
X191648628Y-186385771D01*
X191577200Y-186314342D01*
X191648628Y-186242914D01*
X191648628Y-186385771D01*
X192362914Y-186385771D02*
X192362914Y-184885771D01*
X192505771Y-185814342D02*
X192934342Y-186385771D01*
X192934342Y-185385771D02*
X192362914Y-185957200D01*
X193577200Y-186385771D02*
X193577200Y-185385771D01*
X193577200Y-184885771D02*
X193505771Y-184957200D01*
X193577200Y-185028628D01*
X193648628Y-184957200D01*
X193577200Y-184885771D01*
X193577200Y-185028628D01*
X194934342Y-186314342D02*
X194791485Y-186385771D01*
X194505771Y-186385771D01*
X194362914Y-186314342D01*
X194291485Y-186242914D01*
X194220057Y-186100057D01*
X194220057Y-185671485D01*
X194291485Y-185528628D01*
X194362914Y-185457200D01*
X194505771Y-185385771D01*
X194791485Y-185385771D01*
X194934342Y-185457200D01*
X196220057Y-186385771D02*
X196220057Y-185600057D01*
X196148628Y-185457200D01*
X196005771Y-185385771D01*
X195720057Y-185385771D01*
X195577200Y-185457200D01*
X196220057Y-186314342D02*
X196077200Y-186385771D01*
X195720057Y-186385771D01*
X195577200Y-186314342D01*
X195505771Y-186171485D01*
X195505771Y-186028628D01*
X195577200Y-185885771D01*
X195720057Y-185814342D01*
X196077200Y-185814342D01*
X196220057Y-185742914D01*
X197577200Y-186385771D02*
X197577200Y-184885771D01*
X197577200Y-186314342D02*
X197434342Y-186385771D01*
X197148628Y-186385771D01*
X197005771Y-186314342D01*
X196934342Y-186242914D01*
X196862914Y-186100057D01*
X196862914Y-185671485D01*
X196934342Y-185528628D01*
X197005771Y-185457200D01*
X197148628Y-185385771D01*
X197434342Y-185385771D01*
X197577200Y-185457200D01*
X197934342Y-186528628D02*
X199077200Y-186528628D01*
X199434342Y-185385771D02*
X199434342Y-186885771D01*
X199434342Y-185457200D02*
X199577200Y-185385771D01*
X199862914Y-185385771D01*
X200005771Y-185457200D01*
X200077200Y-185528628D01*
X200148628Y-185671485D01*
X200148628Y-186100057D01*
X200077200Y-186242914D01*
X200005771Y-186314342D01*
X199862914Y-186385771D01*
X199577200Y-186385771D01*
X199434342Y-186314342D01*
X201434342Y-186314342D02*
X201291485Y-186385771D01*
X201005771Y-186385771D01*
X200862914Y-186314342D01*
X200791485Y-186242914D01*
X200720057Y-186100057D01*
X200720057Y-185671485D01*
X200791485Y-185528628D01*
X200862914Y-185457200D01*
X201005771Y-185385771D01*
X201291485Y-185385771D01*
X201434342Y-185457200D01*
X202077200Y-186385771D02*
X202077200Y-184885771D01*
X202077200Y-185457200D02*
X202220057Y-185385771D01*
X202505771Y-185385771D01*
X202648628Y-185457200D01*
X202720057Y-185528628D01*
X202791485Y-185671485D01*
X202791485Y-186100057D01*
X202720057Y-186242914D01*
X202648628Y-186314342D01*
X202505771Y-186385771D01*
X202220057Y-186385771D01*
X202077200Y-186314342D01*
D10*
D11*
X177002200Y-181507200D02*
X285002200Y-181507200D01*
D10*
D11*
X178362914Y-183614342D02*
X178577200Y-183685771D01*
X178934342Y-183685771D01*
X179077200Y-183614342D01*
X179148628Y-183542914D01*
X179220057Y-183400057D01*
X179220057Y-183257200D01*
X179148628Y-183114342D01*
X179077200Y-183042914D01*
X178934342Y-182971485D01*
X178648628Y-182900057D01*
X178505771Y-182828628D01*
X178434342Y-182757200D01*
X178362914Y-182614342D01*
X178362914Y-182471485D01*
X178434342Y-182328628D01*
X178505771Y-182257200D01*
X178648628Y-182185771D01*
X179005771Y-182185771D01*
X179220057Y-182257200D01*
X179862914Y-183685771D02*
X179862914Y-182185771D01*
X180505771Y-183685771D02*
X180505771Y-182900057D01*
X180434342Y-182757200D01*
X180291485Y-182685771D01*
X180077200Y-182685771D01*
X179934342Y-182757200D01*
X179862914Y-182828628D01*
X181791485Y-183614342D02*
X181648628Y-183685771D01*
X181362914Y-183685771D01*
X181220057Y-183614342D01*
X181148628Y-183471485D01*
X181148628Y-182900057D01*
X181220057Y-182757200D01*
X181362914Y-182685771D01*
X181648628Y-182685771D01*
X181791485Y-182757200D01*
X181862914Y-182900057D01*
X181862914Y-183042914D01*
X181148628Y-183185771D01*
X183077200Y-183614342D02*
X182934342Y-183685771D01*
X182648628Y-183685771D01*
X182505771Y-183614342D01*
X182434342Y-183471485D01*
X182434342Y-182900057D01*
X182505771Y-182757200D01*
X182648628Y-182685771D01*
X182934342Y-182685771D01*
X183077200Y-182757200D01*
X183148628Y-182900057D01*
X183148628Y-183042914D01*
X182434342Y-183185771D01*
X183577200Y-182685771D02*
X184148628Y-182685771D01*
X183791485Y-182185771D02*
X183791485Y-183471485D01*
X183862914Y-183614342D01*
X184005771Y-183685771D01*
X184148628Y-183685771D01*
X184648628Y-183542914D02*
X184720057Y-183614342D01*
X184648628Y-183685771D01*
X184577200Y-183614342D01*
X184648628Y-183542914D01*
X184648628Y-183685771D01*
X184648628Y-182757200D02*
X184720057Y-182828628D01*
X184648628Y-182900057D01*
X184577200Y-182828628D01*
X184648628Y-182757200D01*
X184648628Y-182900057D01*
D10*
D11*
X197002200Y-191507200D02*
X197002200Y-194507200D01*
D10*
D11*
X261002200Y-191507200D02*
X261002200Y-198007200D01*
D14*
%TO.C,Y1*%
X139706250Y-93587500D02*
X136406250Y-93587500D01*
X136406250Y-93587500D02*
X136406250Y-89587500D01*
D11*
%TO.C,USB1*%
X38218750Y-30850000D02*
X45918750Y-30850000D01*
X45918750Y-25400000D02*
X45918750Y-30850000D01*
X38218750Y-25400000D02*
X38218750Y-30850000D01*
%TO.C,U1*%
X115331250Y-86100000D02*
X115906250Y-86100000D01*
X115331250Y-96450000D02*
X116006250Y-96450000D01*
X125681250Y-96450000D02*
X125006250Y-96450000D01*
X125681250Y-86100000D02*
X125006250Y-86100000D01*
X115331250Y-86100000D02*
X115331250Y-86775000D01*
X125681250Y-86100000D02*
X125681250Y-86775000D01*
X125681250Y-96450000D02*
X125681250Y-95775000D01*
X115331250Y-96450000D02*
X115331250Y-95775000D01*
X115906250Y-86100000D02*
X115906250Y-84825000D01*
%TO.C,SW1*%
X62912500Y-26987500D02*
G75*
G03*
X62912500Y-26987500I-1000000J0D01*
G01*
X59312500Y-24387500D02*
X59312500Y-29587500D01*
X64512500Y-24387500D02*
X59312500Y-24387500D01*
X64512500Y-29587500D02*
X64512500Y-24387500D01*
X59312500Y-29587500D02*
X64512500Y-29587500D01*
D14*
%TO.C,R4*%
X45327500Y-37985172D02*
X45327500Y-38502328D01*
X46747500Y-37985172D02*
X46747500Y-38502328D01*
%TO.C,R3*%
X41987750Y-38502328D02*
X41987750Y-37985172D01*
X40567750Y-38502328D02*
X40567750Y-37985172D01*
%TO.C,R2*%
X44366250Y-38502328D02*
X44366250Y-37985172D01*
X42946250Y-38502328D02*
X42946250Y-37985172D01*
%TO.C,R1*%
X49128750Y-38502328D02*
X49128750Y-37985172D01*
X47708750Y-38502328D02*
X47708750Y-37985172D01*
%TO.C,F1*%
X39803750Y-38514564D02*
X39803750Y-37310436D01*
X37983750Y-38514564D02*
X37983750Y-37310436D01*
%TO.C,D40*%
X247062500Y-95118750D02*
X245062500Y-95118750D01*
X245062500Y-95118750D02*
X245062500Y-91218750D01*
X247062500Y-95118750D02*
X247062500Y-91218750D01*
%TO.C,D39*%
X223250000Y-95118750D02*
X221250000Y-95118750D01*
X221250000Y-95118750D02*
X221250000Y-91218750D01*
X223250000Y-95118750D02*
X223250000Y-91218750D01*
%TO.C,D38*%
X161337500Y-95181250D02*
X159337500Y-95181250D01*
X159337500Y-95181250D02*
X159337500Y-91281250D01*
X161337500Y-95181250D02*
X161337500Y-91281250D01*
%TO.C,D37*%
X80375000Y-95181250D02*
X78375000Y-95181250D01*
X78375000Y-95181250D02*
X78375000Y-91281250D01*
X80375000Y-95181250D02*
X80375000Y-91281250D01*
%TO.C,D36*%
X56562500Y-95118750D02*
X54562500Y-95118750D01*
X54562500Y-95118750D02*
X54562500Y-91218750D01*
X56562500Y-95118750D02*
X56562500Y-91218750D01*
%TO.C,D35*%
X261350000Y-76131250D02*
X259350000Y-76131250D01*
X259350000Y-76131250D02*
X259350000Y-72231250D01*
X261350000Y-76131250D02*
X261350000Y-72231250D01*
%TO.C,D34*%
X242300000Y-76131250D02*
X240300000Y-76131250D01*
X240300000Y-76131250D02*
X240300000Y-72231250D01*
X242300000Y-76131250D02*
X242300000Y-72231250D01*
%TO.C,D33*%
X223250000Y-76131250D02*
X221250000Y-76131250D01*
X221250000Y-76131250D02*
X221250000Y-72231250D01*
X223250000Y-76131250D02*
X223250000Y-72231250D01*
%TO.C,D32*%
X204200000Y-76131250D02*
X202200000Y-76131250D01*
X202200000Y-76131250D02*
X202200000Y-72231250D01*
X204200000Y-76131250D02*
X204200000Y-72231250D01*
%TO.C,D31*%
X185150000Y-76131250D02*
X183150000Y-76131250D01*
X183150000Y-76131250D02*
X183150000Y-72231250D01*
X185150000Y-76131250D02*
X185150000Y-72231250D01*
%TO.C,D30*%
X166100000Y-76131250D02*
X164100000Y-76131250D01*
X164100000Y-76131250D02*
X164100000Y-72231250D01*
X166100000Y-76131250D02*
X166100000Y-72231250D01*
%TO.C,D29*%
X147050000Y-76068750D02*
X145050000Y-76068750D01*
X145050000Y-76068750D02*
X145050000Y-72168750D01*
X147050000Y-76068750D02*
X147050000Y-72168750D01*
%TO.C,D28*%
X128000000Y-76131250D02*
X126000000Y-76131250D01*
X126000000Y-76131250D02*
X126000000Y-72231250D01*
X128000000Y-76131250D02*
X128000000Y-72231250D01*
%TO.C,D27*%
X108950000Y-76131250D02*
X106950000Y-76131250D01*
X106950000Y-76131250D02*
X106950000Y-72231250D01*
X108950000Y-76131250D02*
X108950000Y-72231250D01*
%TO.C,D26*%
X89900000Y-76131250D02*
X87900000Y-76131250D01*
X87900000Y-76131250D02*
X87900000Y-72231250D01*
X89900000Y-76131250D02*
X89900000Y-72231250D01*
%TO.C,D25*%
X70850000Y-76131250D02*
X68850000Y-76131250D01*
X68850000Y-76131250D02*
X68850000Y-72231250D01*
X70850000Y-76131250D02*
X70850000Y-72231250D01*
%TO.C,D24*%
X47037500Y-76131250D02*
X45037500Y-76131250D01*
X45037500Y-76131250D02*
X45037500Y-72231250D01*
X47037500Y-76131250D02*
X47037500Y-72231250D01*
%TO.C,D23*%
X237537500Y-57018750D02*
X235537500Y-57018750D01*
X235537500Y-57018750D02*
X235537500Y-53118750D01*
X237537500Y-57018750D02*
X237537500Y-53118750D01*
%TO.C,D22*%
X218487500Y-57081250D02*
X216487500Y-57081250D01*
X216487500Y-57081250D02*
X216487500Y-53181250D01*
X218487500Y-57081250D02*
X218487500Y-53181250D01*
%TO.C,D21*%
X199437500Y-57018750D02*
X197437500Y-57018750D01*
X197437500Y-57018750D02*
X197437500Y-53118750D01*
X199437500Y-57018750D02*
X199437500Y-53118750D01*
%TO.C,D20*%
X180387500Y-57081250D02*
X178387500Y-57081250D01*
X178387500Y-57081250D02*
X178387500Y-53181250D01*
X180387500Y-57081250D02*
X180387500Y-53181250D01*
%TO.C,D19*%
X161337500Y-57018750D02*
X159337500Y-57018750D01*
X159337500Y-57018750D02*
X159337500Y-53118750D01*
X161337500Y-57018750D02*
X161337500Y-53118750D01*
%TO.C,D18*%
X142287500Y-57081250D02*
X140287500Y-57081250D01*
X140287500Y-57081250D02*
X140287500Y-53181250D01*
X142287500Y-57081250D02*
X142287500Y-53181250D01*
%TO.C,D17*%
X123237500Y-57081250D02*
X121237500Y-57081250D01*
X121237500Y-57081250D02*
X121237500Y-53181250D01*
X123237500Y-57081250D02*
X123237500Y-53181250D01*
%TO.C,D16*%
X104187500Y-57081250D02*
X102187500Y-57081250D01*
X102187500Y-57081250D02*
X102187500Y-53181250D01*
X104187500Y-57081250D02*
X104187500Y-53181250D01*
%TO.C,D15*%
X85137500Y-57081250D02*
X83137500Y-57081250D01*
X83137500Y-57081250D02*
X83137500Y-53181250D01*
X85137500Y-57081250D02*
X85137500Y-53181250D01*
%TO.C,D14*%
X66087500Y-57018750D02*
X64087500Y-57018750D01*
X64087500Y-57018750D02*
X64087500Y-53118750D01*
X66087500Y-57018750D02*
X66087500Y-53118750D01*
%TO.C,D13*%
X42731250Y-55356250D02*
X42731250Y-57356250D01*
X42731250Y-57356250D02*
X38831250Y-57356250D01*
X42731250Y-55356250D02*
X38831250Y-55356250D01*
%TO.C,D12*%
X235950000Y-37968750D02*
X233950000Y-37968750D01*
X233950000Y-37968750D02*
X233950000Y-34068750D01*
X235950000Y-37968750D02*
X235950000Y-34068750D01*
%TO.C,D11*%
X232775000Y-37968750D02*
X230775000Y-37968750D01*
X230775000Y-37968750D02*
X230775000Y-34068750D01*
X232775000Y-37968750D02*
X232775000Y-34068750D01*
%TO.C,D10*%
X213725000Y-37968750D02*
X211725000Y-37968750D01*
X211725000Y-37968750D02*
X211725000Y-34068750D01*
X213725000Y-37968750D02*
X213725000Y-34068750D01*
%TO.C,D9*%
X194675000Y-37968750D02*
X192675000Y-37968750D01*
X192675000Y-37968750D02*
X192675000Y-34068750D01*
X194675000Y-37968750D02*
X194675000Y-34068750D01*
%TO.C,D8*%
X175625000Y-37968750D02*
X173625000Y-37968750D01*
X173625000Y-37968750D02*
X173625000Y-34068750D01*
X175625000Y-37968750D02*
X175625000Y-34068750D01*
%TO.C,D7*%
X156575000Y-38031250D02*
X154575000Y-38031250D01*
X154575000Y-38031250D02*
X154575000Y-34131250D01*
X156575000Y-38031250D02*
X156575000Y-34131250D01*
%TO.C,D6*%
X137525000Y-37968750D02*
X135525000Y-37968750D01*
X135525000Y-37968750D02*
X135525000Y-34068750D01*
X137525000Y-37968750D02*
X137525000Y-34068750D01*
%TO.C,D5*%
X118475000Y-37968750D02*
X116475000Y-37968750D01*
X116475000Y-37968750D02*
X116475000Y-34068750D01*
X118475000Y-37968750D02*
X118475000Y-34068750D01*
%TO.C,D4*%
X99425000Y-38031250D02*
X97425000Y-38031250D01*
X97425000Y-38031250D02*
X97425000Y-34131250D01*
X99425000Y-38031250D02*
X99425000Y-34131250D01*
%TO.C,D3*%
X80375000Y-38031250D02*
X78375000Y-38031250D01*
X78375000Y-38031250D02*
X78375000Y-34131250D01*
X80375000Y-38031250D02*
X80375000Y-34131250D01*
%TO.C,D2*%
X61325000Y-37968750D02*
X59325000Y-37968750D01*
X59325000Y-37968750D02*
X59325000Y-34068750D01*
X61325000Y-37968750D02*
X61325000Y-34068750D01*
%TO.C,D1*%
X37237500Y-37100000D02*
X37237500Y-39100000D01*
X37237500Y-39100000D02*
X33337500Y-39100000D01*
X37237500Y-37100000D02*
X33337500Y-37100000D01*
%TO.C,C7*%
X134227500Y-86116422D02*
X134227500Y-86633578D01*
X135647500Y-86116422D02*
X135647500Y-86633578D01*
%TO.C,C6*%
X129297500Y-98539828D02*
X129297500Y-98022672D01*
X127877500Y-98539828D02*
X127877500Y-98022672D01*
%TO.C,C5*%
X111041250Y-95508578D02*
X111041250Y-94991422D01*
X109621250Y-95508578D02*
X109621250Y-94991422D01*
%TO.C,C4*%
X109621250Y-86910172D02*
X109621250Y-87427328D01*
X111041250Y-86910172D02*
X111041250Y-87427328D01*
%TO.C,C3*%
X120258578Y-80252500D02*
X119741422Y-80252500D01*
X120258578Y-81672500D02*
X119741422Y-81672500D01*
%TO.C,C2*%
X138227328Y-86602500D02*
X137710172Y-86602500D01*
X138227328Y-88022500D02*
X137710172Y-88022500D01*
%TO.C,C1*%
X137710172Y-96753750D02*
X138227328Y-96753750D01*
X137710172Y-95333750D02*
X138227328Y-95333750D01*
%TO.C,Y1*%
D11*
X140482440Y-91111309D02*
X140958630Y-91111309D01*
X139958630Y-90777976D02*
X140482440Y-91111309D01*
X139958630Y-91444642D01*
X140958630Y-92301785D02*
X140958630Y-91730357D01*
X140958630Y-92016071D02*
X139958630Y-92016071D01*
X140101488Y-91920833D01*
X140196726Y-91825595D01*
X140244345Y-91730357D01*
%TO.C,USB1*%
X43806845Y-26884380D02*
X43806845Y-27693904D01*
X43759226Y-27789142D01*
X43711607Y-27836761D01*
X43616369Y-27884380D01*
X43425892Y-27884380D01*
X43330654Y-27836761D01*
X43283035Y-27789142D01*
X43235416Y-27693904D01*
X43235416Y-26884380D01*
X42806845Y-27836761D02*
X42663988Y-27884380D01*
X42425892Y-27884380D01*
X42330654Y-27836761D01*
X42283035Y-27789142D01*
X42235416Y-27693904D01*
X42235416Y-27598666D01*
X42283035Y-27503428D01*
X42330654Y-27455809D01*
X42425892Y-27408190D01*
X42616369Y-27360571D01*
X42711607Y-27312952D01*
X42759226Y-27265333D01*
X42806845Y-27170095D01*
X42806845Y-27074857D01*
X42759226Y-26979619D01*
X42711607Y-26932000D01*
X42616369Y-26884380D01*
X42378273Y-26884380D01*
X42235416Y-26932000D01*
X41473511Y-27360571D02*
X41330654Y-27408190D01*
X41283035Y-27455809D01*
X41235416Y-27551047D01*
X41235416Y-27693904D01*
X41283035Y-27789142D01*
X41330654Y-27836761D01*
X41425892Y-27884380D01*
X41806845Y-27884380D01*
X41806845Y-26884380D01*
X41473511Y-26884380D01*
X41378273Y-26932000D01*
X41330654Y-26979619D01*
X41283035Y-27074857D01*
X41283035Y-27170095D01*
X41330654Y-27265333D01*
X41378273Y-27312952D01*
X41473511Y-27360571D01*
X41806845Y-27360571D01*
X40283035Y-27884380D02*
X40854464Y-27884380D01*
X40568750Y-27884380D02*
X40568750Y-26884380D01*
X40663988Y-27027238D01*
X40759226Y-27122476D01*
X40854464Y-27170095D01*
%TO.C,U1*%
X112508630Y-90513095D02*
X113318154Y-90513095D01*
X113413392Y-90560714D01*
X113461011Y-90608333D01*
X113508630Y-90703571D01*
X113508630Y-90894047D01*
X113461011Y-90989285D01*
X113413392Y-91036904D01*
X113318154Y-91084523D01*
X112508630Y-91084523D01*
X113508630Y-92084523D02*
X113508630Y-91513095D01*
X113508630Y-91798809D02*
X112508630Y-91798809D01*
X112651488Y-91703571D01*
X112746726Y-91608333D01*
X112794345Y-91513095D01*
%TO.C,SW1*%
X63245833Y-23328261D02*
X63102976Y-23375880D01*
X62864880Y-23375880D01*
X62769642Y-23328261D01*
X62722023Y-23280642D01*
X62674404Y-23185404D01*
X62674404Y-23090166D01*
X62722023Y-22994928D01*
X62769642Y-22947309D01*
X62864880Y-22899690D01*
X63055357Y-22852071D01*
X63150595Y-22804452D01*
X63198214Y-22756833D01*
X63245833Y-22661595D01*
X63245833Y-22566357D01*
X63198214Y-22471119D01*
X63150595Y-22423500D01*
X63055357Y-22375880D01*
X62817261Y-22375880D01*
X62674404Y-22423500D01*
X62341071Y-22375880D02*
X62102976Y-23375880D01*
X61912500Y-22661595D01*
X61722023Y-23375880D01*
X61483928Y-22375880D01*
X60579166Y-23375880D02*
X61150595Y-23375880D01*
X60864880Y-23375880D02*
X60864880Y-22375880D01*
X60960119Y-22518738D01*
X61055357Y-22613976D01*
X61150595Y-22661595D01*
%TO.C,R4*%
X44839880Y-38077083D02*
X44363690Y-37743750D01*
X44839880Y-37505654D02*
X43839880Y-37505654D01*
X43839880Y-37886607D01*
X43887500Y-37981845D01*
X43935119Y-38029464D01*
X44030357Y-38077083D01*
X44173214Y-38077083D01*
X44268452Y-38029464D01*
X44316071Y-37981845D01*
X44363690Y-37886607D01*
X44363690Y-37505654D01*
X44173214Y-38934226D02*
X44839880Y-38934226D01*
X43792261Y-38696130D02*
X44506547Y-38458035D01*
X44506547Y-39077083D01*
%TO.C,R3*%
X43380130Y-38077083D02*
X42903940Y-37743750D01*
X43380130Y-37505654D02*
X42380130Y-37505654D01*
X42380130Y-37886607D01*
X42427750Y-37981845D01*
X42475369Y-38029464D01*
X42570607Y-38077083D01*
X42713464Y-38077083D01*
X42808702Y-38029464D01*
X42856321Y-37981845D01*
X42903940Y-37886607D01*
X42903940Y-37505654D01*
X42380130Y-38410416D02*
X42380130Y-39029464D01*
X42761083Y-38696130D01*
X42761083Y-38838988D01*
X42808702Y-38934226D01*
X42856321Y-38981845D01*
X42951559Y-39029464D01*
X43189654Y-39029464D01*
X43284892Y-38981845D01*
X43332511Y-38934226D01*
X43380130Y-38838988D01*
X43380130Y-38553273D01*
X43332511Y-38458035D01*
X43284892Y-38410416D01*
%TO.C,R2*%
X45758630Y-38077083D02*
X45282440Y-37743750D01*
X45758630Y-37505654D02*
X44758630Y-37505654D01*
X44758630Y-37886607D01*
X44806250Y-37981845D01*
X44853869Y-38029464D01*
X44949107Y-38077083D01*
X45091964Y-38077083D01*
X45187202Y-38029464D01*
X45234821Y-37981845D01*
X45282440Y-37886607D01*
X45282440Y-37505654D01*
X44853869Y-38458035D02*
X44806250Y-38505654D01*
X44758630Y-38600892D01*
X44758630Y-38838988D01*
X44806250Y-38934226D01*
X44853869Y-38981845D01*
X44949107Y-39029464D01*
X45044345Y-39029464D01*
X45187202Y-38981845D01*
X45758630Y-38410416D01*
X45758630Y-39029464D01*
%TO.C,R1*%
X50521130Y-38077083D02*
X50044940Y-37743750D01*
X50521130Y-37505654D02*
X49521130Y-37505654D01*
X49521130Y-37886607D01*
X49568750Y-37981845D01*
X49616369Y-38029464D01*
X49711607Y-38077083D01*
X49854464Y-38077083D01*
X49949702Y-38029464D01*
X49997321Y-37981845D01*
X50044940Y-37886607D01*
X50044940Y-37505654D01*
X50521130Y-39029464D02*
X50521130Y-38458035D01*
X50521130Y-38743750D02*
X49521130Y-38743750D01*
X49663988Y-38648511D01*
X49759226Y-38553273D01*
X49806845Y-38458035D01*
%TO.C,F1*%
X40642321Y-37579166D02*
X40642321Y-37245833D01*
X41166130Y-37245833D02*
X40166130Y-37245833D01*
X40166130Y-37722023D01*
X41166130Y-38626785D02*
X41166130Y-38055357D01*
X41166130Y-38341071D02*
X40166130Y-38341071D01*
X40308988Y-38245833D01*
X40404226Y-38150595D01*
X40451845Y-38055357D01*
%TO.C,D40*%
X248514880Y-91654464D02*
X247514880Y-91654464D01*
X247514880Y-91892559D01*
X247562500Y-92035416D01*
X247657738Y-92130654D01*
X247752976Y-92178273D01*
X247943452Y-92225892D01*
X248086309Y-92225892D01*
X248276785Y-92178273D01*
X248372023Y-92130654D01*
X248467261Y-92035416D01*
X248514880Y-91892559D01*
X248514880Y-91654464D01*
X247848214Y-93083035D02*
X248514880Y-93083035D01*
X247467261Y-92844940D02*
X248181547Y-92606845D01*
X248181547Y-93225892D01*
X247514880Y-93797321D02*
X247514880Y-93892559D01*
X247562500Y-93987797D01*
X247610119Y-94035416D01*
X247705357Y-94083035D01*
X247895833Y-94130654D01*
X248133928Y-94130654D01*
X248324404Y-94083035D01*
X248419642Y-94035416D01*
X248467261Y-93987797D01*
X248514880Y-93892559D01*
X248514880Y-93797321D01*
X248467261Y-93702083D01*
X248419642Y-93654464D01*
X248324404Y-93606845D01*
X248133928Y-93559226D01*
X247895833Y-93559226D01*
X247705357Y-93606845D01*
X247610119Y-93654464D01*
X247562500Y-93702083D01*
X247514880Y-93797321D01*
%TO.C,D39*%
X224702380Y-91654464D02*
X223702380Y-91654464D01*
X223702380Y-91892559D01*
X223750000Y-92035416D01*
X223845238Y-92130654D01*
X223940476Y-92178273D01*
X224130952Y-92225892D01*
X224273809Y-92225892D01*
X224464285Y-92178273D01*
X224559523Y-92130654D01*
X224654761Y-92035416D01*
X224702380Y-91892559D01*
X224702380Y-91654464D01*
X223702380Y-92559226D02*
X223702380Y-93178273D01*
X224083333Y-92844940D01*
X224083333Y-92987797D01*
X224130952Y-93083035D01*
X224178571Y-93130654D01*
X224273809Y-93178273D01*
X224511904Y-93178273D01*
X224607142Y-93130654D01*
X224654761Y-93083035D01*
X224702380Y-92987797D01*
X224702380Y-92702083D01*
X224654761Y-92606845D01*
X224607142Y-92559226D01*
X224702380Y-93654464D02*
X224702380Y-93844940D01*
X224654761Y-93940178D01*
X224607142Y-93987797D01*
X224464285Y-94083035D01*
X224273809Y-94130654D01*
X223892857Y-94130654D01*
X223797619Y-94083035D01*
X223750000Y-94035416D01*
X223702380Y-93940178D01*
X223702380Y-93749702D01*
X223750000Y-93654464D01*
X223797619Y-93606845D01*
X223892857Y-93559226D01*
X224130952Y-93559226D01*
X224226190Y-93606845D01*
X224273809Y-93654464D01*
X224321428Y-93749702D01*
X224321428Y-93940178D01*
X224273809Y-94035416D01*
X224226190Y-94083035D01*
X224130952Y-94130654D01*
%TO.C,D38*%
X162789880Y-91716964D02*
X161789880Y-91716964D01*
X161789880Y-91955059D01*
X161837500Y-92097916D01*
X161932738Y-92193154D01*
X162027976Y-92240773D01*
X162218452Y-92288392D01*
X162361309Y-92288392D01*
X162551785Y-92240773D01*
X162647023Y-92193154D01*
X162742261Y-92097916D01*
X162789880Y-91955059D01*
X162789880Y-91716964D01*
X161789880Y-92621726D02*
X161789880Y-93240773D01*
X162170833Y-92907440D01*
X162170833Y-93050297D01*
X162218452Y-93145535D01*
X162266071Y-93193154D01*
X162361309Y-93240773D01*
X162599404Y-93240773D01*
X162694642Y-93193154D01*
X162742261Y-93145535D01*
X162789880Y-93050297D01*
X162789880Y-92764583D01*
X162742261Y-92669345D01*
X162694642Y-92621726D01*
X162218452Y-93812202D02*
X162170833Y-93716964D01*
X162123214Y-93669345D01*
X162027976Y-93621726D01*
X161980357Y-93621726D01*
X161885119Y-93669345D01*
X161837500Y-93716964D01*
X161789880Y-93812202D01*
X161789880Y-94002678D01*
X161837500Y-94097916D01*
X161885119Y-94145535D01*
X161980357Y-94193154D01*
X162027976Y-94193154D01*
X162123214Y-94145535D01*
X162170833Y-94097916D01*
X162218452Y-94002678D01*
X162218452Y-93812202D01*
X162266071Y-93716964D01*
X162313690Y-93669345D01*
X162408928Y-93621726D01*
X162599404Y-93621726D01*
X162694642Y-93669345D01*
X162742261Y-93716964D01*
X162789880Y-93812202D01*
X162789880Y-94002678D01*
X162742261Y-94097916D01*
X162694642Y-94145535D01*
X162599404Y-94193154D01*
X162408928Y-94193154D01*
X162313690Y-94145535D01*
X162266071Y-94097916D01*
X162218452Y-94002678D01*
%TO.C,D37*%
X81827380Y-91716964D02*
X80827380Y-91716964D01*
X80827380Y-91955059D01*
X80875000Y-92097916D01*
X80970238Y-92193154D01*
X81065476Y-92240773D01*
X81255952Y-92288392D01*
X81398809Y-92288392D01*
X81589285Y-92240773D01*
X81684523Y-92193154D01*
X81779761Y-92097916D01*
X81827380Y-91955059D01*
X81827380Y-91716964D01*
X80827380Y-92621726D02*
X80827380Y-93240773D01*
X81208333Y-92907440D01*
X81208333Y-93050297D01*
X81255952Y-93145535D01*
X81303571Y-93193154D01*
X81398809Y-93240773D01*
X81636904Y-93240773D01*
X81732142Y-93193154D01*
X81779761Y-93145535D01*
X81827380Y-93050297D01*
X81827380Y-92764583D01*
X81779761Y-92669345D01*
X81732142Y-92621726D01*
X80827380Y-93574107D02*
X80827380Y-94240773D01*
X81827380Y-93812202D01*
%TO.C,D36*%
X58014880Y-91654464D02*
X57014880Y-91654464D01*
X57014880Y-91892559D01*
X57062500Y-92035416D01*
X57157738Y-92130654D01*
X57252976Y-92178273D01*
X57443452Y-92225892D01*
X57586309Y-92225892D01*
X57776785Y-92178273D01*
X57872023Y-92130654D01*
X57967261Y-92035416D01*
X58014880Y-91892559D01*
X58014880Y-91654464D01*
X57014880Y-92559226D02*
X57014880Y-93178273D01*
X57395833Y-92844940D01*
X57395833Y-92987797D01*
X57443452Y-93083035D01*
X57491071Y-93130654D01*
X57586309Y-93178273D01*
X57824404Y-93178273D01*
X57919642Y-93130654D01*
X57967261Y-93083035D01*
X58014880Y-92987797D01*
X58014880Y-92702083D01*
X57967261Y-92606845D01*
X57919642Y-92559226D01*
X57014880Y-94035416D02*
X57014880Y-93844940D01*
X57062500Y-93749702D01*
X57110119Y-93702083D01*
X57252976Y-93606845D01*
X57443452Y-93559226D01*
X57824404Y-93559226D01*
X57919642Y-93606845D01*
X57967261Y-93654464D01*
X58014880Y-93749702D01*
X58014880Y-93940178D01*
X57967261Y-94035416D01*
X57919642Y-94083035D01*
X57824404Y-94130654D01*
X57586309Y-94130654D01*
X57491071Y-94083035D01*
X57443452Y-94035416D01*
X57395833Y-93940178D01*
X57395833Y-93749702D01*
X57443452Y-93654464D01*
X57491071Y-93606845D01*
X57586309Y-93559226D01*
%TO.C,D35*%
X262802380Y-72666964D02*
X261802380Y-72666964D01*
X261802380Y-72905059D01*
X261850000Y-73047916D01*
X261945238Y-73143154D01*
X262040476Y-73190773D01*
X262230952Y-73238392D01*
X262373809Y-73238392D01*
X262564285Y-73190773D01*
X262659523Y-73143154D01*
X262754761Y-73047916D01*
X262802380Y-72905059D01*
X262802380Y-72666964D01*
X261802380Y-73571726D02*
X261802380Y-74190773D01*
X262183333Y-73857440D01*
X262183333Y-74000297D01*
X262230952Y-74095535D01*
X262278571Y-74143154D01*
X262373809Y-74190773D01*
X262611904Y-74190773D01*
X262707142Y-74143154D01*
X262754761Y-74095535D01*
X262802380Y-74000297D01*
X262802380Y-73714583D01*
X262754761Y-73619345D01*
X262707142Y-73571726D01*
X261802380Y-75095535D02*
X261802380Y-74619345D01*
X262278571Y-74571726D01*
X262230952Y-74619345D01*
X262183333Y-74714583D01*
X262183333Y-74952678D01*
X262230952Y-75047916D01*
X262278571Y-75095535D01*
X262373809Y-75143154D01*
X262611904Y-75143154D01*
X262707142Y-75095535D01*
X262754761Y-75047916D01*
X262802380Y-74952678D01*
X262802380Y-74714583D01*
X262754761Y-74619345D01*
X262707142Y-74571726D01*
%TO.C,D34*%
X243752380Y-72666964D02*
X242752380Y-72666964D01*
X242752380Y-72905059D01*
X242800000Y-73047916D01*
X242895238Y-73143154D01*
X242990476Y-73190773D01*
X243180952Y-73238392D01*
X243323809Y-73238392D01*
X243514285Y-73190773D01*
X243609523Y-73143154D01*
X243704761Y-73047916D01*
X243752380Y-72905059D01*
X243752380Y-72666964D01*
X242752380Y-73571726D02*
X242752380Y-74190773D01*
X243133333Y-73857440D01*
X243133333Y-74000297D01*
X243180952Y-74095535D01*
X243228571Y-74143154D01*
X243323809Y-74190773D01*
X243561904Y-74190773D01*
X243657142Y-74143154D01*
X243704761Y-74095535D01*
X243752380Y-74000297D01*
X243752380Y-73714583D01*
X243704761Y-73619345D01*
X243657142Y-73571726D01*
X243085714Y-75047916D02*
X243752380Y-75047916D01*
X242704761Y-74809821D02*
X243419047Y-74571726D01*
X243419047Y-75190773D01*
%TO.C,D33*%
X224702380Y-72666964D02*
X223702380Y-72666964D01*
X223702380Y-72905059D01*
X223750000Y-73047916D01*
X223845238Y-73143154D01*
X223940476Y-73190773D01*
X224130952Y-73238392D01*
X224273809Y-73238392D01*
X224464285Y-73190773D01*
X224559523Y-73143154D01*
X224654761Y-73047916D01*
X224702380Y-72905059D01*
X224702380Y-72666964D01*
X223702380Y-73571726D02*
X223702380Y-74190773D01*
X224083333Y-73857440D01*
X224083333Y-74000297D01*
X224130952Y-74095535D01*
X224178571Y-74143154D01*
X224273809Y-74190773D01*
X224511904Y-74190773D01*
X224607142Y-74143154D01*
X224654761Y-74095535D01*
X224702380Y-74000297D01*
X224702380Y-73714583D01*
X224654761Y-73619345D01*
X224607142Y-73571726D01*
X223702380Y-74524107D02*
X223702380Y-75143154D01*
X224083333Y-74809821D01*
X224083333Y-74952678D01*
X224130952Y-75047916D01*
X224178571Y-75095535D01*
X224273809Y-75143154D01*
X224511904Y-75143154D01*
X224607142Y-75095535D01*
X224654761Y-75047916D01*
X224702380Y-74952678D01*
X224702380Y-74666964D01*
X224654761Y-74571726D01*
X224607142Y-74524107D01*
%TO.C,D32*%
X205652380Y-72666964D02*
X204652380Y-72666964D01*
X204652380Y-72905059D01*
X204700000Y-73047916D01*
X204795238Y-73143154D01*
X204890476Y-73190773D01*
X205080952Y-73238392D01*
X205223809Y-73238392D01*
X205414285Y-73190773D01*
X205509523Y-73143154D01*
X205604761Y-73047916D01*
X205652380Y-72905059D01*
X205652380Y-72666964D01*
X204652380Y-73571726D02*
X204652380Y-74190773D01*
X205033333Y-73857440D01*
X205033333Y-74000297D01*
X205080952Y-74095535D01*
X205128571Y-74143154D01*
X205223809Y-74190773D01*
X205461904Y-74190773D01*
X205557142Y-74143154D01*
X205604761Y-74095535D01*
X205652380Y-74000297D01*
X205652380Y-73714583D01*
X205604761Y-73619345D01*
X205557142Y-73571726D01*
X204747619Y-74571726D02*
X204700000Y-74619345D01*
X204652380Y-74714583D01*
X204652380Y-74952678D01*
X204700000Y-75047916D01*
X204747619Y-75095535D01*
X204842857Y-75143154D01*
X204938095Y-75143154D01*
X205080952Y-75095535D01*
X205652380Y-74524107D01*
X205652380Y-75143154D01*
%TO.C,D31*%
X186602380Y-72666964D02*
X185602380Y-72666964D01*
X185602380Y-72905059D01*
X185650000Y-73047916D01*
X185745238Y-73143154D01*
X185840476Y-73190773D01*
X186030952Y-73238392D01*
X186173809Y-73238392D01*
X186364285Y-73190773D01*
X186459523Y-73143154D01*
X186554761Y-73047916D01*
X186602380Y-72905059D01*
X186602380Y-72666964D01*
X185602380Y-73571726D02*
X185602380Y-74190773D01*
X185983333Y-73857440D01*
X185983333Y-74000297D01*
X186030952Y-74095535D01*
X186078571Y-74143154D01*
X186173809Y-74190773D01*
X186411904Y-74190773D01*
X186507142Y-74143154D01*
X186554761Y-74095535D01*
X186602380Y-74000297D01*
X186602380Y-73714583D01*
X186554761Y-73619345D01*
X186507142Y-73571726D01*
X186602380Y-75143154D02*
X186602380Y-74571726D01*
X186602380Y-74857440D02*
X185602380Y-74857440D01*
X185745238Y-74762202D01*
X185840476Y-74666964D01*
X185888095Y-74571726D01*
%TO.C,D30*%
X167552380Y-72666964D02*
X166552380Y-72666964D01*
X166552380Y-72905059D01*
X166600000Y-73047916D01*
X166695238Y-73143154D01*
X166790476Y-73190773D01*
X166980952Y-73238392D01*
X167123809Y-73238392D01*
X167314285Y-73190773D01*
X167409523Y-73143154D01*
X167504761Y-73047916D01*
X167552380Y-72905059D01*
X167552380Y-72666964D01*
X166552380Y-73571726D02*
X166552380Y-74190773D01*
X166933333Y-73857440D01*
X166933333Y-74000297D01*
X166980952Y-74095535D01*
X167028571Y-74143154D01*
X167123809Y-74190773D01*
X167361904Y-74190773D01*
X167457142Y-74143154D01*
X167504761Y-74095535D01*
X167552380Y-74000297D01*
X167552380Y-73714583D01*
X167504761Y-73619345D01*
X167457142Y-73571726D01*
X166552380Y-74809821D02*
X166552380Y-74905059D01*
X166600000Y-75000297D01*
X166647619Y-75047916D01*
X166742857Y-75095535D01*
X166933333Y-75143154D01*
X167171428Y-75143154D01*
X167361904Y-75095535D01*
X167457142Y-75047916D01*
X167504761Y-75000297D01*
X167552380Y-74905059D01*
X167552380Y-74809821D01*
X167504761Y-74714583D01*
X167457142Y-74666964D01*
X167361904Y-74619345D01*
X167171428Y-74571726D01*
X166933333Y-74571726D01*
X166742857Y-74619345D01*
X166647619Y-74666964D01*
X166600000Y-74714583D01*
X166552380Y-74809821D01*
%TO.C,D29*%
X148502380Y-72604464D02*
X147502380Y-72604464D01*
X147502380Y-72842559D01*
X147550000Y-72985416D01*
X147645238Y-73080654D01*
X147740476Y-73128273D01*
X147930952Y-73175892D01*
X148073809Y-73175892D01*
X148264285Y-73128273D01*
X148359523Y-73080654D01*
X148454761Y-72985416D01*
X148502380Y-72842559D01*
X148502380Y-72604464D01*
X147597619Y-73556845D02*
X147550000Y-73604464D01*
X147502380Y-73699702D01*
X147502380Y-73937797D01*
X147550000Y-74033035D01*
X147597619Y-74080654D01*
X147692857Y-74128273D01*
X147788095Y-74128273D01*
X147930952Y-74080654D01*
X148502380Y-73509226D01*
X148502380Y-74128273D01*
X148502380Y-74604464D02*
X148502380Y-74794940D01*
X148454761Y-74890178D01*
X148407142Y-74937797D01*
X148264285Y-75033035D01*
X148073809Y-75080654D01*
X147692857Y-75080654D01*
X147597619Y-75033035D01*
X147550000Y-74985416D01*
X147502380Y-74890178D01*
X147502380Y-74699702D01*
X147550000Y-74604464D01*
X147597619Y-74556845D01*
X147692857Y-74509226D01*
X147930952Y-74509226D01*
X148026190Y-74556845D01*
X148073809Y-74604464D01*
X148121428Y-74699702D01*
X148121428Y-74890178D01*
X148073809Y-74985416D01*
X148026190Y-75033035D01*
X147930952Y-75080654D01*
%TO.C,D28*%
X129452380Y-72666964D02*
X128452380Y-72666964D01*
X128452380Y-72905059D01*
X128500000Y-73047916D01*
X128595238Y-73143154D01*
X128690476Y-73190773D01*
X128880952Y-73238392D01*
X129023809Y-73238392D01*
X129214285Y-73190773D01*
X129309523Y-73143154D01*
X129404761Y-73047916D01*
X129452380Y-72905059D01*
X129452380Y-72666964D01*
X128547619Y-73619345D02*
X128500000Y-73666964D01*
X128452380Y-73762202D01*
X128452380Y-74000297D01*
X128500000Y-74095535D01*
X128547619Y-74143154D01*
X128642857Y-74190773D01*
X128738095Y-74190773D01*
X128880952Y-74143154D01*
X129452380Y-73571726D01*
X129452380Y-74190773D01*
X128880952Y-74762202D02*
X128833333Y-74666964D01*
X128785714Y-74619345D01*
X128690476Y-74571726D01*
X128642857Y-74571726D01*
X128547619Y-74619345D01*
X128500000Y-74666964D01*
X128452380Y-74762202D01*
X128452380Y-74952678D01*
X128500000Y-75047916D01*
X128547619Y-75095535D01*
X128642857Y-75143154D01*
X128690476Y-75143154D01*
X128785714Y-75095535D01*
X128833333Y-75047916D01*
X128880952Y-74952678D01*
X128880952Y-74762202D01*
X128928571Y-74666964D01*
X128976190Y-74619345D01*
X129071428Y-74571726D01*
X129261904Y-74571726D01*
X129357142Y-74619345D01*
X129404761Y-74666964D01*
X129452380Y-74762202D01*
X129452380Y-74952678D01*
X129404761Y-75047916D01*
X129357142Y-75095535D01*
X129261904Y-75143154D01*
X129071428Y-75143154D01*
X128976190Y-75095535D01*
X128928571Y-75047916D01*
X128880952Y-74952678D01*
%TO.C,D27*%
X110402380Y-72666964D02*
X109402380Y-72666964D01*
X109402380Y-72905059D01*
X109450000Y-73047916D01*
X109545238Y-73143154D01*
X109640476Y-73190773D01*
X109830952Y-73238392D01*
X109973809Y-73238392D01*
X110164285Y-73190773D01*
X110259523Y-73143154D01*
X110354761Y-73047916D01*
X110402380Y-72905059D01*
X110402380Y-72666964D01*
X109497619Y-73619345D02*
X109450000Y-73666964D01*
X109402380Y-73762202D01*
X109402380Y-74000297D01*
X109450000Y-74095535D01*
X109497619Y-74143154D01*
X109592857Y-74190773D01*
X109688095Y-74190773D01*
X109830952Y-74143154D01*
X110402380Y-73571726D01*
X110402380Y-74190773D01*
X109402380Y-74524107D02*
X109402380Y-75190773D01*
X110402380Y-74762202D01*
%TO.C,D26*%
X91352380Y-72666964D02*
X90352380Y-72666964D01*
X90352380Y-72905059D01*
X90400000Y-73047916D01*
X90495238Y-73143154D01*
X90590476Y-73190773D01*
X90780952Y-73238392D01*
X90923809Y-73238392D01*
X91114285Y-73190773D01*
X91209523Y-73143154D01*
X91304761Y-73047916D01*
X91352380Y-72905059D01*
X91352380Y-72666964D01*
X90447619Y-73619345D02*
X90400000Y-73666964D01*
X90352380Y-73762202D01*
X90352380Y-74000297D01*
X90400000Y-74095535D01*
X90447619Y-74143154D01*
X90542857Y-74190773D01*
X90638095Y-74190773D01*
X90780952Y-74143154D01*
X91352380Y-73571726D01*
X91352380Y-74190773D01*
X90352380Y-75047916D02*
X90352380Y-74857440D01*
X90400000Y-74762202D01*
X90447619Y-74714583D01*
X90590476Y-74619345D01*
X90780952Y-74571726D01*
X91161904Y-74571726D01*
X91257142Y-74619345D01*
X91304761Y-74666964D01*
X91352380Y-74762202D01*
X91352380Y-74952678D01*
X91304761Y-75047916D01*
X91257142Y-75095535D01*
X91161904Y-75143154D01*
X90923809Y-75143154D01*
X90828571Y-75095535D01*
X90780952Y-75047916D01*
X90733333Y-74952678D01*
X90733333Y-74762202D01*
X90780952Y-74666964D01*
X90828571Y-74619345D01*
X90923809Y-74571726D01*
%TO.C,D25*%
X72302380Y-72666964D02*
X71302380Y-72666964D01*
X71302380Y-72905059D01*
X71350000Y-73047916D01*
X71445238Y-73143154D01*
X71540476Y-73190773D01*
X71730952Y-73238392D01*
X71873809Y-73238392D01*
X72064285Y-73190773D01*
X72159523Y-73143154D01*
X72254761Y-73047916D01*
X72302380Y-72905059D01*
X72302380Y-72666964D01*
X71397619Y-73619345D02*
X71350000Y-73666964D01*
X71302380Y-73762202D01*
X71302380Y-74000297D01*
X71350000Y-74095535D01*
X71397619Y-74143154D01*
X71492857Y-74190773D01*
X71588095Y-74190773D01*
X71730952Y-74143154D01*
X72302380Y-73571726D01*
X72302380Y-74190773D01*
X71302380Y-75095535D02*
X71302380Y-74619345D01*
X71778571Y-74571726D01*
X71730952Y-74619345D01*
X71683333Y-74714583D01*
X71683333Y-74952678D01*
X71730952Y-75047916D01*
X71778571Y-75095535D01*
X71873809Y-75143154D01*
X72111904Y-75143154D01*
X72207142Y-75095535D01*
X72254761Y-75047916D01*
X72302380Y-74952678D01*
X72302380Y-74714583D01*
X72254761Y-74619345D01*
X72207142Y-74571726D01*
%TO.C,D24*%
X48489880Y-72666964D02*
X47489880Y-72666964D01*
X47489880Y-72905059D01*
X47537500Y-73047916D01*
X47632738Y-73143154D01*
X47727976Y-73190773D01*
X47918452Y-73238392D01*
X48061309Y-73238392D01*
X48251785Y-73190773D01*
X48347023Y-73143154D01*
X48442261Y-73047916D01*
X48489880Y-72905059D01*
X48489880Y-72666964D01*
X47585119Y-73619345D02*
X47537500Y-73666964D01*
X47489880Y-73762202D01*
X47489880Y-74000297D01*
X47537500Y-74095535D01*
X47585119Y-74143154D01*
X47680357Y-74190773D01*
X47775595Y-74190773D01*
X47918452Y-74143154D01*
X48489880Y-73571726D01*
X48489880Y-74190773D01*
X47823214Y-75047916D02*
X48489880Y-75047916D01*
X47442261Y-74809821D02*
X48156547Y-74571726D01*
X48156547Y-75190773D01*
%TO.C,D23*%
X238989880Y-53554464D02*
X237989880Y-53554464D01*
X237989880Y-53792559D01*
X238037500Y-53935416D01*
X238132738Y-54030654D01*
X238227976Y-54078273D01*
X238418452Y-54125892D01*
X238561309Y-54125892D01*
X238751785Y-54078273D01*
X238847023Y-54030654D01*
X238942261Y-53935416D01*
X238989880Y-53792559D01*
X238989880Y-53554464D01*
X238085119Y-54506845D02*
X238037500Y-54554464D01*
X237989880Y-54649702D01*
X237989880Y-54887797D01*
X238037500Y-54983035D01*
X238085119Y-55030654D01*
X238180357Y-55078273D01*
X238275595Y-55078273D01*
X238418452Y-55030654D01*
X238989880Y-54459226D01*
X238989880Y-55078273D01*
X237989880Y-55411607D02*
X237989880Y-56030654D01*
X238370833Y-55697321D01*
X238370833Y-55840178D01*
X238418452Y-55935416D01*
X238466071Y-55983035D01*
X238561309Y-56030654D01*
X238799404Y-56030654D01*
X238894642Y-55983035D01*
X238942261Y-55935416D01*
X238989880Y-55840178D01*
X238989880Y-55554464D01*
X238942261Y-55459226D01*
X238894642Y-55411607D01*
%TO.C,D22*%
X219939880Y-53616964D02*
X218939880Y-53616964D01*
X218939880Y-53855059D01*
X218987500Y-53997916D01*
X219082738Y-54093154D01*
X219177976Y-54140773D01*
X219368452Y-54188392D01*
X219511309Y-54188392D01*
X219701785Y-54140773D01*
X219797023Y-54093154D01*
X219892261Y-53997916D01*
X219939880Y-53855059D01*
X219939880Y-53616964D01*
X219035119Y-54569345D02*
X218987500Y-54616964D01*
X218939880Y-54712202D01*
X218939880Y-54950297D01*
X218987500Y-55045535D01*
X219035119Y-55093154D01*
X219130357Y-55140773D01*
X219225595Y-55140773D01*
X219368452Y-55093154D01*
X219939880Y-54521726D01*
X219939880Y-55140773D01*
X219035119Y-55521726D02*
X218987500Y-55569345D01*
X218939880Y-55664583D01*
X218939880Y-55902678D01*
X218987500Y-55997916D01*
X219035119Y-56045535D01*
X219130357Y-56093154D01*
X219225595Y-56093154D01*
X219368452Y-56045535D01*
X219939880Y-55474107D01*
X219939880Y-56093154D01*
%TO.C,D21*%
X200889880Y-53554464D02*
X199889880Y-53554464D01*
X199889880Y-53792559D01*
X199937500Y-53935416D01*
X200032738Y-54030654D01*
X200127976Y-54078273D01*
X200318452Y-54125892D01*
X200461309Y-54125892D01*
X200651785Y-54078273D01*
X200747023Y-54030654D01*
X200842261Y-53935416D01*
X200889880Y-53792559D01*
X200889880Y-53554464D01*
X199985119Y-54506845D02*
X199937500Y-54554464D01*
X199889880Y-54649702D01*
X199889880Y-54887797D01*
X199937500Y-54983035D01*
X199985119Y-55030654D01*
X200080357Y-55078273D01*
X200175595Y-55078273D01*
X200318452Y-55030654D01*
X200889880Y-54459226D01*
X200889880Y-55078273D01*
X200889880Y-56030654D02*
X200889880Y-55459226D01*
X200889880Y-55744940D02*
X199889880Y-55744940D01*
X200032738Y-55649702D01*
X200127976Y-55554464D01*
X200175595Y-55459226D01*
%TO.C,D20*%
X181839880Y-53616964D02*
X180839880Y-53616964D01*
X180839880Y-53855059D01*
X180887500Y-53997916D01*
X180982738Y-54093154D01*
X181077976Y-54140773D01*
X181268452Y-54188392D01*
X181411309Y-54188392D01*
X181601785Y-54140773D01*
X181697023Y-54093154D01*
X181792261Y-53997916D01*
X181839880Y-53855059D01*
X181839880Y-53616964D01*
X180935119Y-54569345D02*
X180887500Y-54616964D01*
X180839880Y-54712202D01*
X180839880Y-54950297D01*
X180887500Y-55045535D01*
X180935119Y-55093154D01*
X181030357Y-55140773D01*
X181125595Y-55140773D01*
X181268452Y-55093154D01*
X181839880Y-54521726D01*
X181839880Y-55140773D01*
X180839880Y-55759821D02*
X180839880Y-55855059D01*
X180887500Y-55950297D01*
X180935119Y-55997916D01*
X181030357Y-56045535D01*
X181220833Y-56093154D01*
X181458928Y-56093154D01*
X181649404Y-56045535D01*
X181744642Y-55997916D01*
X181792261Y-55950297D01*
X181839880Y-55855059D01*
X181839880Y-55759821D01*
X181792261Y-55664583D01*
X181744642Y-55616964D01*
X181649404Y-55569345D01*
X181458928Y-55521726D01*
X181220833Y-55521726D01*
X181030357Y-55569345D01*
X180935119Y-55616964D01*
X180887500Y-55664583D01*
X180839880Y-55759821D01*
%TO.C,D19*%
X162789880Y-53554464D02*
X161789880Y-53554464D01*
X161789880Y-53792559D01*
X161837500Y-53935416D01*
X161932738Y-54030654D01*
X162027976Y-54078273D01*
X162218452Y-54125892D01*
X162361309Y-54125892D01*
X162551785Y-54078273D01*
X162647023Y-54030654D01*
X162742261Y-53935416D01*
X162789880Y-53792559D01*
X162789880Y-53554464D01*
X162789880Y-55078273D02*
X162789880Y-54506845D01*
X162789880Y-54792559D02*
X161789880Y-54792559D01*
X161932738Y-54697321D01*
X162027976Y-54602083D01*
X162075595Y-54506845D01*
X162789880Y-55554464D02*
X162789880Y-55744940D01*
X162742261Y-55840178D01*
X162694642Y-55887797D01*
X162551785Y-55983035D01*
X162361309Y-56030654D01*
X161980357Y-56030654D01*
X161885119Y-55983035D01*
X161837500Y-55935416D01*
X161789880Y-55840178D01*
X161789880Y-55649702D01*
X161837500Y-55554464D01*
X161885119Y-55506845D01*
X161980357Y-55459226D01*
X162218452Y-55459226D01*
X162313690Y-55506845D01*
X162361309Y-55554464D01*
X162408928Y-55649702D01*
X162408928Y-55840178D01*
X162361309Y-55935416D01*
X162313690Y-55983035D01*
X162218452Y-56030654D01*
%TO.C,D18*%
X143739880Y-53616964D02*
X142739880Y-53616964D01*
X142739880Y-53855059D01*
X142787500Y-53997916D01*
X142882738Y-54093154D01*
X142977976Y-54140773D01*
X143168452Y-54188392D01*
X143311309Y-54188392D01*
X143501785Y-54140773D01*
X143597023Y-54093154D01*
X143692261Y-53997916D01*
X143739880Y-53855059D01*
X143739880Y-53616964D01*
X143739880Y-55140773D02*
X143739880Y-54569345D01*
X143739880Y-54855059D02*
X142739880Y-54855059D01*
X142882738Y-54759821D01*
X142977976Y-54664583D01*
X143025595Y-54569345D01*
X143168452Y-55712202D02*
X143120833Y-55616964D01*
X143073214Y-55569345D01*
X142977976Y-55521726D01*
X142930357Y-55521726D01*
X142835119Y-55569345D01*
X142787500Y-55616964D01*
X142739880Y-55712202D01*
X142739880Y-55902678D01*
X142787500Y-55997916D01*
X142835119Y-56045535D01*
X142930357Y-56093154D01*
X142977976Y-56093154D01*
X143073214Y-56045535D01*
X143120833Y-55997916D01*
X143168452Y-55902678D01*
X143168452Y-55712202D01*
X143216071Y-55616964D01*
X143263690Y-55569345D01*
X143358928Y-55521726D01*
X143549404Y-55521726D01*
X143644642Y-55569345D01*
X143692261Y-55616964D01*
X143739880Y-55712202D01*
X143739880Y-55902678D01*
X143692261Y-55997916D01*
X143644642Y-56045535D01*
X143549404Y-56093154D01*
X143358928Y-56093154D01*
X143263690Y-56045535D01*
X143216071Y-55997916D01*
X143168452Y-55902678D01*
%TO.C,D17*%
X124689880Y-53616964D02*
X123689880Y-53616964D01*
X123689880Y-53855059D01*
X123737500Y-53997916D01*
X123832738Y-54093154D01*
X123927976Y-54140773D01*
X124118452Y-54188392D01*
X124261309Y-54188392D01*
X124451785Y-54140773D01*
X124547023Y-54093154D01*
X124642261Y-53997916D01*
X124689880Y-53855059D01*
X124689880Y-53616964D01*
X124689880Y-55140773D02*
X124689880Y-54569345D01*
X124689880Y-54855059D02*
X123689880Y-54855059D01*
X123832738Y-54759821D01*
X123927976Y-54664583D01*
X123975595Y-54569345D01*
X123689880Y-55474107D02*
X123689880Y-56140773D01*
X124689880Y-55712202D01*
%TO.C,D16*%
X105639880Y-53616964D02*
X104639880Y-53616964D01*
X104639880Y-53855059D01*
X104687500Y-53997916D01*
X104782738Y-54093154D01*
X104877976Y-54140773D01*
X105068452Y-54188392D01*
X105211309Y-54188392D01*
X105401785Y-54140773D01*
X105497023Y-54093154D01*
X105592261Y-53997916D01*
X105639880Y-53855059D01*
X105639880Y-53616964D01*
X105639880Y-55140773D02*
X105639880Y-54569345D01*
X105639880Y-54855059D02*
X104639880Y-54855059D01*
X104782738Y-54759821D01*
X104877976Y-54664583D01*
X104925595Y-54569345D01*
X104639880Y-55997916D02*
X104639880Y-55807440D01*
X104687500Y-55712202D01*
X104735119Y-55664583D01*
X104877976Y-55569345D01*
X105068452Y-55521726D01*
X105449404Y-55521726D01*
X105544642Y-55569345D01*
X105592261Y-55616964D01*
X105639880Y-55712202D01*
X105639880Y-55902678D01*
X105592261Y-55997916D01*
X105544642Y-56045535D01*
X105449404Y-56093154D01*
X105211309Y-56093154D01*
X105116071Y-56045535D01*
X105068452Y-55997916D01*
X105020833Y-55902678D01*
X105020833Y-55712202D01*
X105068452Y-55616964D01*
X105116071Y-55569345D01*
X105211309Y-55521726D01*
%TO.C,D15*%
X86589880Y-53616964D02*
X85589880Y-53616964D01*
X85589880Y-53855059D01*
X85637500Y-53997916D01*
X85732738Y-54093154D01*
X85827976Y-54140773D01*
X86018452Y-54188392D01*
X86161309Y-54188392D01*
X86351785Y-54140773D01*
X86447023Y-54093154D01*
X86542261Y-53997916D01*
X86589880Y-53855059D01*
X86589880Y-53616964D01*
X86589880Y-55140773D02*
X86589880Y-54569345D01*
X86589880Y-54855059D02*
X85589880Y-54855059D01*
X85732738Y-54759821D01*
X85827976Y-54664583D01*
X85875595Y-54569345D01*
X85589880Y-56045535D02*
X85589880Y-55569345D01*
X86066071Y-55521726D01*
X86018452Y-55569345D01*
X85970833Y-55664583D01*
X85970833Y-55902678D01*
X86018452Y-55997916D01*
X86066071Y-56045535D01*
X86161309Y-56093154D01*
X86399404Y-56093154D01*
X86494642Y-56045535D01*
X86542261Y-55997916D01*
X86589880Y-55902678D01*
X86589880Y-55664583D01*
X86542261Y-55569345D01*
X86494642Y-55521726D01*
%TO.C,D14*%
X67539880Y-53554464D02*
X66539880Y-53554464D01*
X66539880Y-53792559D01*
X66587500Y-53935416D01*
X66682738Y-54030654D01*
X66777976Y-54078273D01*
X66968452Y-54125892D01*
X67111309Y-54125892D01*
X67301785Y-54078273D01*
X67397023Y-54030654D01*
X67492261Y-53935416D01*
X67539880Y-53792559D01*
X67539880Y-53554464D01*
X67539880Y-55078273D02*
X67539880Y-54506845D01*
X67539880Y-54792559D02*
X66539880Y-54792559D01*
X66682738Y-54697321D01*
X66777976Y-54602083D01*
X66825595Y-54506845D01*
X66873214Y-55935416D02*
X67539880Y-55935416D01*
X66492261Y-55697321D02*
X67206547Y-55459226D01*
X67206547Y-56078273D01*
%TO.C,D13*%
X41695535Y-54808630D02*
X41695535Y-53808630D01*
X41457440Y-53808630D01*
X41314583Y-53856250D01*
X41219345Y-53951488D01*
X41171726Y-54046726D01*
X41124107Y-54237202D01*
X41124107Y-54380059D01*
X41171726Y-54570535D01*
X41219345Y-54665773D01*
X41314583Y-54761011D01*
X41457440Y-54808630D01*
X41695535Y-54808630D01*
X40171726Y-54808630D02*
X40743154Y-54808630D01*
X40457440Y-54808630D02*
X40457440Y-53808630D01*
X40552678Y-53951488D01*
X40647916Y-54046726D01*
X40743154Y-54094345D01*
X39838392Y-53808630D02*
X39219345Y-53808630D01*
X39552678Y-54189583D01*
X39409821Y-54189583D01*
X39314583Y-54237202D01*
X39266964Y-54284821D01*
X39219345Y-54380059D01*
X39219345Y-54618154D01*
X39266964Y-54713392D01*
X39314583Y-54761011D01*
X39409821Y-54808630D01*
X39695535Y-54808630D01*
X39790773Y-54761011D01*
X39838392Y-54713392D01*
%TO.C,D12*%
X237402380Y-34504464D02*
X236402380Y-34504464D01*
X236402380Y-34742559D01*
X236450000Y-34885416D01*
X236545238Y-34980654D01*
X236640476Y-35028273D01*
X236830952Y-35075892D01*
X236973809Y-35075892D01*
X237164285Y-35028273D01*
X237259523Y-34980654D01*
X237354761Y-34885416D01*
X237402380Y-34742559D01*
X237402380Y-34504464D01*
X237402380Y-36028273D02*
X237402380Y-35456845D01*
X237402380Y-35742559D02*
X236402380Y-35742559D01*
X236545238Y-35647321D01*
X236640476Y-35552083D01*
X236688095Y-35456845D01*
X236497619Y-36409226D02*
X236450000Y-36456845D01*
X236402380Y-36552083D01*
X236402380Y-36790178D01*
X236450000Y-36885416D01*
X236497619Y-36933035D01*
X236592857Y-36980654D01*
X236688095Y-36980654D01*
X236830952Y-36933035D01*
X237402380Y-36361607D01*
X237402380Y-36980654D01*
%TO.C,D11*%
X234227380Y-34504464D02*
X233227380Y-34504464D01*
X233227380Y-34742559D01*
X233275000Y-34885416D01*
X233370238Y-34980654D01*
X233465476Y-35028273D01*
X233655952Y-35075892D01*
X233798809Y-35075892D01*
X233989285Y-35028273D01*
X234084523Y-34980654D01*
X234179761Y-34885416D01*
X234227380Y-34742559D01*
X234227380Y-34504464D01*
X234227380Y-36028273D02*
X234227380Y-35456845D01*
X234227380Y-35742559D02*
X233227380Y-35742559D01*
X233370238Y-35647321D01*
X233465476Y-35552083D01*
X233513095Y-35456845D01*
X234227380Y-36980654D02*
X234227380Y-36409226D01*
X234227380Y-36694940D02*
X233227380Y-36694940D01*
X233370238Y-36599702D01*
X233465476Y-36504464D01*
X233513095Y-36409226D01*
%TO.C,D10*%
X215177380Y-34504464D02*
X214177380Y-34504464D01*
X214177380Y-34742559D01*
X214225000Y-34885416D01*
X214320238Y-34980654D01*
X214415476Y-35028273D01*
X214605952Y-35075892D01*
X214748809Y-35075892D01*
X214939285Y-35028273D01*
X215034523Y-34980654D01*
X215129761Y-34885416D01*
X215177380Y-34742559D01*
X215177380Y-34504464D01*
X215177380Y-36028273D02*
X215177380Y-35456845D01*
X215177380Y-35742559D02*
X214177380Y-35742559D01*
X214320238Y-35647321D01*
X214415476Y-35552083D01*
X214463095Y-35456845D01*
X214177380Y-36647321D02*
X214177380Y-36742559D01*
X214225000Y-36837797D01*
X214272619Y-36885416D01*
X214367857Y-36933035D01*
X214558333Y-36980654D01*
X214796428Y-36980654D01*
X214986904Y-36933035D01*
X215082142Y-36885416D01*
X215129761Y-36837797D01*
X215177380Y-36742559D01*
X215177380Y-36647321D01*
X215129761Y-36552083D01*
X215082142Y-36504464D01*
X214986904Y-36456845D01*
X214796428Y-36409226D01*
X214558333Y-36409226D01*
X214367857Y-36456845D01*
X214272619Y-36504464D01*
X214225000Y-36552083D01*
X214177380Y-36647321D01*
%TO.C,D9*%
X196127380Y-34980654D02*
X195127380Y-34980654D01*
X195127380Y-35218750D01*
X195175000Y-35361607D01*
X195270238Y-35456845D01*
X195365476Y-35504464D01*
X195555952Y-35552083D01*
X195698809Y-35552083D01*
X195889285Y-35504464D01*
X195984523Y-35456845D01*
X196079761Y-35361607D01*
X196127380Y-35218750D01*
X196127380Y-34980654D01*
X196127380Y-36028273D02*
X196127380Y-36218750D01*
X196079761Y-36313988D01*
X196032142Y-36361607D01*
X195889285Y-36456845D01*
X195698809Y-36504464D01*
X195317857Y-36504464D01*
X195222619Y-36456845D01*
X195175000Y-36409226D01*
X195127380Y-36313988D01*
X195127380Y-36123511D01*
X195175000Y-36028273D01*
X195222619Y-35980654D01*
X195317857Y-35933035D01*
X195555952Y-35933035D01*
X195651190Y-35980654D01*
X195698809Y-36028273D01*
X195746428Y-36123511D01*
X195746428Y-36313988D01*
X195698809Y-36409226D01*
X195651190Y-36456845D01*
X195555952Y-36504464D01*
%TO.C,D8*%
X177077380Y-34980654D02*
X176077380Y-34980654D01*
X176077380Y-35218750D01*
X176125000Y-35361607D01*
X176220238Y-35456845D01*
X176315476Y-35504464D01*
X176505952Y-35552083D01*
X176648809Y-35552083D01*
X176839285Y-35504464D01*
X176934523Y-35456845D01*
X177029761Y-35361607D01*
X177077380Y-35218750D01*
X177077380Y-34980654D01*
X176505952Y-36123511D02*
X176458333Y-36028273D01*
X176410714Y-35980654D01*
X176315476Y-35933035D01*
X176267857Y-35933035D01*
X176172619Y-35980654D01*
X176125000Y-36028273D01*
X176077380Y-36123511D01*
X176077380Y-36313988D01*
X176125000Y-36409226D01*
X176172619Y-36456845D01*
X176267857Y-36504464D01*
X176315476Y-36504464D01*
X176410714Y-36456845D01*
X176458333Y-36409226D01*
X176505952Y-36313988D01*
X176505952Y-36123511D01*
X176553571Y-36028273D01*
X176601190Y-35980654D01*
X176696428Y-35933035D01*
X176886904Y-35933035D01*
X176982142Y-35980654D01*
X177029761Y-36028273D01*
X177077380Y-36123511D01*
X177077380Y-36313988D01*
X177029761Y-36409226D01*
X176982142Y-36456845D01*
X176886904Y-36504464D01*
X176696428Y-36504464D01*
X176601190Y-36456845D01*
X176553571Y-36409226D01*
X176505952Y-36313988D01*
%TO.C,D7*%
X158027380Y-35043154D02*
X157027380Y-35043154D01*
X157027380Y-35281250D01*
X157075000Y-35424107D01*
X157170238Y-35519345D01*
X157265476Y-35566964D01*
X157455952Y-35614583D01*
X157598809Y-35614583D01*
X157789285Y-35566964D01*
X157884523Y-35519345D01*
X157979761Y-35424107D01*
X158027380Y-35281250D01*
X158027380Y-35043154D01*
X157027380Y-35947916D02*
X157027380Y-36614583D01*
X158027380Y-36186011D01*
%TO.C,D6*%
X138977380Y-34980654D02*
X137977380Y-34980654D01*
X137977380Y-35218750D01*
X138025000Y-35361607D01*
X138120238Y-35456845D01*
X138215476Y-35504464D01*
X138405952Y-35552083D01*
X138548809Y-35552083D01*
X138739285Y-35504464D01*
X138834523Y-35456845D01*
X138929761Y-35361607D01*
X138977380Y-35218750D01*
X138977380Y-34980654D01*
X137977380Y-36409226D02*
X137977380Y-36218750D01*
X138025000Y-36123511D01*
X138072619Y-36075892D01*
X138215476Y-35980654D01*
X138405952Y-35933035D01*
X138786904Y-35933035D01*
X138882142Y-35980654D01*
X138929761Y-36028273D01*
X138977380Y-36123511D01*
X138977380Y-36313988D01*
X138929761Y-36409226D01*
X138882142Y-36456845D01*
X138786904Y-36504464D01*
X138548809Y-36504464D01*
X138453571Y-36456845D01*
X138405952Y-36409226D01*
X138358333Y-36313988D01*
X138358333Y-36123511D01*
X138405952Y-36028273D01*
X138453571Y-35980654D01*
X138548809Y-35933035D01*
%TO.C,D5*%
X119927380Y-34980654D02*
X118927380Y-34980654D01*
X118927380Y-35218750D01*
X118975000Y-35361607D01*
X119070238Y-35456845D01*
X119165476Y-35504464D01*
X119355952Y-35552083D01*
X119498809Y-35552083D01*
X119689285Y-35504464D01*
X119784523Y-35456845D01*
X119879761Y-35361607D01*
X119927380Y-35218750D01*
X119927380Y-34980654D01*
X118927380Y-36456845D02*
X118927380Y-35980654D01*
X119403571Y-35933035D01*
X119355952Y-35980654D01*
X119308333Y-36075892D01*
X119308333Y-36313988D01*
X119355952Y-36409226D01*
X119403571Y-36456845D01*
X119498809Y-36504464D01*
X119736904Y-36504464D01*
X119832142Y-36456845D01*
X119879761Y-36409226D01*
X119927380Y-36313988D01*
X119927380Y-36075892D01*
X119879761Y-35980654D01*
X119832142Y-35933035D01*
%TO.C,D4*%
X100877380Y-35043154D02*
X99877380Y-35043154D01*
X99877380Y-35281250D01*
X99925000Y-35424107D01*
X100020238Y-35519345D01*
X100115476Y-35566964D01*
X100305952Y-35614583D01*
X100448809Y-35614583D01*
X100639285Y-35566964D01*
X100734523Y-35519345D01*
X100829761Y-35424107D01*
X100877380Y-35281250D01*
X100877380Y-35043154D01*
X100210714Y-36471726D02*
X100877380Y-36471726D01*
X99829761Y-36233630D02*
X100544047Y-35995535D01*
X100544047Y-36614583D01*
%TO.C,D3*%
X81827380Y-35043154D02*
X80827380Y-35043154D01*
X80827380Y-35281250D01*
X80875000Y-35424107D01*
X80970238Y-35519345D01*
X81065476Y-35566964D01*
X81255952Y-35614583D01*
X81398809Y-35614583D01*
X81589285Y-35566964D01*
X81684523Y-35519345D01*
X81779761Y-35424107D01*
X81827380Y-35281250D01*
X81827380Y-35043154D01*
X80827380Y-35947916D02*
X80827380Y-36566964D01*
X81208333Y-36233630D01*
X81208333Y-36376488D01*
X81255952Y-36471726D01*
X81303571Y-36519345D01*
X81398809Y-36566964D01*
X81636904Y-36566964D01*
X81732142Y-36519345D01*
X81779761Y-36471726D01*
X81827380Y-36376488D01*
X81827380Y-36090773D01*
X81779761Y-35995535D01*
X81732142Y-35947916D01*
%TO.C,D2*%
X62777380Y-34980654D02*
X61777380Y-34980654D01*
X61777380Y-35218750D01*
X61825000Y-35361607D01*
X61920238Y-35456845D01*
X62015476Y-35504464D01*
X62205952Y-35552083D01*
X62348809Y-35552083D01*
X62539285Y-35504464D01*
X62634523Y-35456845D01*
X62729761Y-35361607D01*
X62777380Y-35218750D01*
X62777380Y-34980654D01*
X61872619Y-35933035D02*
X61825000Y-35980654D01*
X61777380Y-36075892D01*
X61777380Y-36313988D01*
X61825000Y-36409226D01*
X61872619Y-36456845D01*
X61967857Y-36504464D01*
X62063095Y-36504464D01*
X62205952Y-36456845D01*
X62777380Y-35885416D01*
X62777380Y-36504464D01*
%TO.C,D1*%
X35725595Y-36552380D02*
X35725595Y-35552380D01*
X35487500Y-35552380D01*
X35344642Y-35600000D01*
X35249404Y-35695238D01*
X35201785Y-35790476D01*
X35154166Y-35980952D01*
X35154166Y-36123809D01*
X35201785Y-36314285D01*
X35249404Y-36409523D01*
X35344642Y-36504761D01*
X35487500Y-36552380D01*
X35725595Y-36552380D01*
X34201785Y-36552380D02*
X34773214Y-36552380D01*
X34487500Y-36552380D02*
X34487500Y-35552380D01*
X34582738Y-35695238D01*
X34677976Y-35790476D01*
X34773214Y-35838095D01*
%TO.C,C7*%
X133644642Y-86208333D02*
X133692261Y-86160714D01*
X133739880Y-86017857D01*
X133739880Y-85922619D01*
X133692261Y-85779761D01*
X133597023Y-85684523D01*
X133501785Y-85636904D01*
X133311309Y-85589285D01*
X133168452Y-85589285D01*
X132977976Y-85636904D01*
X132882738Y-85684523D01*
X132787500Y-85779761D01*
X132739880Y-85922619D01*
X132739880Y-86017857D01*
X132787500Y-86160714D01*
X132835119Y-86208333D01*
X132739880Y-86541666D02*
X132739880Y-87208333D01*
X133739880Y-86779761D01*
%TO.C,C6*%
X130594642Y-98114583D02*
X130642261Y-98066964D01*
X130689880Y-97924107D01*
X130689880Y-97828869D01*
X130642261Y-97686011D01*
X130547023Y-97590773D01*
X130451785Y-97543154D01*
X130261309Y-97495535D01*
X130118452Y-97495535D01*
X129927976Y-97543154D01*
X129832738Y-97590773D01*
X129737500Y-97686011D01*
X129689880Y-97828869D01*
X129689880Y-97924107D01*
X129737500Y-98066964D01*
X129785119Y-98114583D01*
X129689880Y-98971726D02*
X129689880Y-98781250D01*
X129737500Y-98686011D01*
X129785119Y-98638392D01*
X129927976Y-98543154D01*
X130118452Y-98495535D01*
X130499404Y-98495535D01*
X130594642Y-98543154D01*
X130642261Y-98590773D01*
X130689880Y-98686011D01*
X130689880Y-98876488D01*
X130642261Y-98971726D01*
X130594642Y-99019345D01*
X130499404Y-99066964D01*
X130261309Y-99066964D01*
X130166071Y-99019345D01*
X130118452Y-98971726D01*
X130070833Y-98876488D01*
X130070833Y-98686011D01*
X130118452Y-98590773D01*
X130166071Y-98543154D01*
X130261309Y-98495535D01*
%TO.C,C5*%
X112338392Y-95083333D02*
X112386011Y-95035714D01*
X112433630Y-94892857D01*
X112433630Y-94797619D01*
X112386011Y-94654761D01*
X112290773Y-94559523D01*
X112195535Y-94511904D01*
X112005059Y-94464285D01*
X111862202Y-94464285D01*
X111671726Y-94511904D01*
X111576488Y-94559523D01*
X111481250Y-94654761D01*
X111433630Y-94797619D01*
X111433630Y-94892857D01*
X111481250Y-95035714D01*
X111528869Y-95083333D01*
X111433630Y-95988095D02*
X111433630Y-95511904D01*
X111909821Y-95464285D01*
X111862202Y-95511904D01*
X111814583Y-95607142D01*
X111814583Y-95845238D01*
X111862202Y-95940476D01*
X111909821Y-95988095D01*
X112005059Y-96035714D01*
X112243154Y-96035714D01*
X112338392Y-95988095D01*
X112386011Y-95940476D01*
X112433630Y-95845238D01*
X112433630Y-95607142D01*
X112386011Y-95511904D01*
X112338392Y-95464285D01*
%TO.C,C4*%
X109038392Y-87002083D02*
X109086011Y-86954464D01*
X109133630Y-86811607D01*
X109133630Y-86716369D01*
X109086011Y-86573511D01*
X108990773Y-86478273D01*
X108895535Y-86430654D01*
X108705059Y-86383035D01*
X108562202Y-86383035D01*
X108371726Y-86430654D01*
X108276488Y-86478273D01*
X108181250Y-86573511D01*
X108133630Y-86716369D01*
X108133630Y-86811607D01*
X108181250Y-86954464D01*
X108228869Y-87002083D01*
X108466964Y-87859226D02*
X109133630Y-87859226D01*
X108086011Y-87621130D02*
X108800297Y-87383035D01*
X108800297Y-88002083D01*
%TO.C,C3*%
X120166666Y-79669642D02*
X120214285Y-79717261D01*
X120357142Y-79764880D01*
X120452380Y-79764880D01*
X120595238Y-79717261D01*
X120690476Y-79622023D01*
X120738095Y-79526785D01*
X120785714Y-79336309D01*
X120785714Y-79193452D01*
X120738095Y-79002976D01*
X120690476Y-78907738D01*
X120595238Y-78812500D01*
X120452380Y-78764880D01*
X120357142Y-78764880D01*
X120214285Y-78812500D01*
X120166666Y-78860119D01*
X119833333Y-78764880D02*
X119214285Y-78764880D01*
X119547619Y-79145833D01*
X119404761Y-79145833D01*
X119309523Y-79193452D01*
X119261904Y-79241071D01*
X119214285Y-79336309D01*
X119214285Y-79574404D01*
X119261904Y-79669642D01*
X119309523Y-79717261D01*
X119404761Y-79764880D01*
X119690476Y-79764880D01*
X119785714Y-79717261D01*
X119833333Y-79669642D01*
%TO.C,C2*%
X138135416Y-86019642D02*
X138183035Y-86067261D01*
X138325892Y-86114880D01*
X138421130Y-86114880D01*
X138563988Y-86067261D01*
X138659226Y-85972023D01*
X138706845Y-85876785D01*
X138754464Y-85686309D01*
X138754464Y-85543452D01*
X138706845Y-85352976D01*
X138659226Y-85257738D01*
X138563988Y-85162500D01*
X138421130Y-85114880D01*
X138325892Y-85114880D01*
X138183035Y-85162500D01*
X138135416Y-85210119D01*
X137754464Y-85210119D02*
X137706845Y-85162500D01*
X137611607Y-85114880D01*
X137373511Y-85114880D01*
X137278273Y-85162500D01*
X137230654Y-85210119D01*
X137183035Y-85305357D01*
X137183035Y-85400595D01*
X137230654Y-85543452D01*
X137802083Y-86114880D01*
X137183035Y-86114880D01*
%TO.C,C1*%
X138135416Y-98050892D02*
X138183035Y-98098511D01*
X138325892Y-98146130D01*
X138421130Y-98146130D01*
X138563988Y-98098511D01*
X138659226Y-98003273D01*
X138706845Y-97908035D01*
X138754464Y-97717559D01*
X138754464Y-97574702D01*
X138706845Y-97384226D01*
X138659226Y-97288988D01*
X138563988Y-97193750D01*
X138421130Y-97146130D01*
X138325892Y-97146130D01*
X138183035Y-97193750D01*
X138135416Y-97241369D01*
X137183035Y-98146130D02*
X137754464Y-98146130D01*
X137468750Y-98146130D02*
X137468750Y-97146130D01*
X137563988Y-97288988D01*
X137659226Y-97384226D01*
X137754464Y-97431845D01*
%TD*%
%LPC*%
D15*
%TO.C,MX2*%
X54927500Y-28257500D03*
D16*
X52387500Y-33337500D03*
D15*
X48577500Y-30797500D03*
D17*
X47307500Y-33337500D03*
X57467500Y-33337500D03*
%TD*%
D15*
%TO.C,MX24*%
X40640000Y-66357500D03*
D16*
X38100000Y-71437500D03*
D15*
X34290000Y-68897500D03*
D17*
X33020000Y-71437500D03*
X43180000Y-71437500D03*
%TD*%
D15*
%TO.C,MX23*%
X231140000Y-47307500D03*
D16*
X228600000Y-52387500D03*
D15*
X224790000Y-49847500D03*
D17*
X223520000Y-52387500D03*
X233680000Y-52387500D03*
%TD*%
D18*
%TO.C,Y1*%
X138906250Y-92687500D03*
X138906250Y-90487500D03*
X137206250Y-90487500D03*
X137206250Y-92687500D03*
%TD*%
D19*
%TO.C,USB1*%
X38418750Y-25400000D03*
X45718750Y-25400000D03*
X45718750Y-29900000D03*
X38418750Y-29900000D03*
D20*
X40468750Y-29900000D03*
X41268750Y-29900000D03*
X42068750Y-29900000D03*
X42868750Y-29900000D03*
X43668750Y-29900000D03*
%TD*%
D21*
%TO.C,U1*%
X114806250Y-87275000D03*
X114806250Y-88075000D03*
X114806250Y-88875000D03*
X114806250Y-89675000D03*
X114806250Y-90475000D03*
X114806250Y-91275000D03*
X114806250Y-92075000D03*
X114806250Y-92875000D03*
X114806250Y-93675000D03*
X114806250Y-94475000D03*
X114806250Y-95275000D03*
D22*
X116506250Y-96975000D03*
X117306250Y-96975000D03*
X118106250Y-96975000D03*
X118906250Y-96975000D03*
X119706250Y-96975000D03*
X120506250Y-96975000D03*
X121306250Y-96975000D03*
X122106250Y-96975000D03*
X122906250Y-96975000D03*
X123706250Y-96975000D03*
X124506250Y-96975000D03*
D21*
X126206250Y-95275000D03*
X126206250Y-94475000D03*
X126206250Y-93675000D03*
X126206250Y-92875000D03*
X126206250Y-92075000D03*
X126206250Y-91275000D03*
X126206250Y-90475000D03*
X126206250Y-89675000D03*
X126206250Y-88875000D03*
X126206250Y-88075000D03*
X126206250Y-87275000D03*
D22*
X124506250Y-85575000D03*
X123706250Y-85575000D03*
X122906250Y-85575000D03*
X122106250Y-85575000D03*
X121306250Y-85575000D03*
X120506250Y-85575000D03*
X119706250Y-85575000D03*
X118906250Y-85575000D03*
X118106250Y-85575000D03*
X117306250Y-85575000D03*
X116506250Y-85575000D03*
%TD*%
D23*
%TO.C,SW1*%
X58812500Y-25137500D03*
X65012500Y-28837500D03*
X58812500Y-28837500D03*
X65012500Y-25137500D03*
%TD*%
%TO.C,R4*%
G36*
G01*
X45556250Y-38643750D02*
X46518750Y-38643750D01*
G75*
G02*
X46787500Y-38912500I0J-268750D01*
G01*
X46787500Y-39450000D01*
G75*
G02*
X46518750Y-39718750I-268750J0D01*
G01*
X45556250Y-39718750D01*
G75*
G02*
X45287500Y-39450000I0J268750D01*
G01*
X45287500Y-38912500D01*
G75*
G02*
X45556250Y-38643750I268750J0D01*
G01*
G37*
G36*
G01*
X45556250Y-36768750D02*
X46518750Y-36768750D01*
G75*
G02*
X46787500Y-37037500I0J-268750D01*
G01*
X46787500Y-37575000D01*
G75*
G02*
X46518750Y-37843750I-268750J0D01*
G01*
X45556250Y-37843750D01*
G75*
G02*
X45287500Y-37575000I0J268750D01*
G01*
X45287500Y-37037500D01*
G75*
G02*
X45556250Y-36768750I268750J0D01*
G01*
G37*
%TD*%
%TO.C,R3*%
G36*
G01*
X41759000Y-37843750D02*
X40796500Y-37843750D01*
G75*
G02*
X40527750Y-37575000I0J268750D01*
G01*
X40527750Y-37037500D01*
G75*
G02*
X40796500Y-36768750I268750J0D01*
G01*
X41759000Y-36768750D01*
G75*
G02*
X42027750Y-37037500I0J-268750D01*
G01*
X42027750Y-37575000D01*
G75*
G02*
X41759000Y-37843750I-268750J0D01*
G01*
G37*
G36*
G01*
X41759000Y-39718750D02*
X40796500Y-39718750D01*
G75*
G02*
X40527750Y-39450000I0J268750D01*
G01*
X40527750Y-38912500D01*
G75*
G02*
X40796500Y-38643750I268750J0D01*
G01*
X41759000Y-38643750D01*
G75*
G02*
X42027750Y-38912500I0J-268750D01*
G01*
X42027750Y-39450000D01*
G75*
G02*
X41759000Y-39718750I-268750J0D01*
G01*
G37*
%TD*%
%TO.C,R2*%
G36*
G01*
X44137500Y-37843750D02*
X43175000Y-37843750D01*
G75*
G02*
X42906250Y-37575000I0J268750D01*
G01*
X42906250Y-37037500D01*
G75*
G02*
X43175000Y-36768750I268750J0D01*
G01*
X44137500Y-36768750D01*
G75*
G02*
X44406250Y-37037500I0J-268750D01*
G01*
X44406250Y-37575000D01*
G75*
G02*
X44137500Y-37843750I-268750J0D01*
G01*
G37*
G36*
G01*
X44137500Y-39718750D02*
X43175000Y-39718750D01*
G75*
G02*
X42906250Y-39450000I0J268750D01*
G01*
X42906250Y-38912500D01*
G75*
G02*
X43175000Y-38643750I268750J0D01*
G01*
X44137500Y-38643750D01*
G75*
G02*
X44406250Y-38912500I0J-268750D01*
G01*
X44406250Y-39450000D01*
G75*
G02*
X44137500Y-39718750I-268750J0D01*
G01*
G37*
%TD*%
%TO.C,R1*%
G36*
G01*
X48900000Y-37843750D02*
X47937500Y-37843750D01*
G75*
G02*
X47668750Y-37575000I0J268750D01*
G01*
X47668750Y-37037500D01*
G75*
G02*
X47937500Y-36768750I268750J0D01*
G01*
X48900000Y-36768750D01*
G75*
G02*
X49168750Y-37037500I0J-268750D01*
G01*
X49168750Y-37575000D01*
G75*
G02*
X48900000Y-37843750I-268750J0D01*
G01*
G37*
G36*
G01*
X48900000Y-39718750D02*
X47937500Y-39718750D01*
G75*
G02*
X47668750Y-39450000I0J268750D01*
G01*
X47668750Y-38912500D01*
G75*
G02*
X47937500Y-38643750I268750J0D01*
G01*
X48900000Y-38643750D01*
G75*
G02*
X49168750Y-38912500I0J-268750D01*
G01*
X49168750Y-39450000D01*
G75*
G02*
X48900000Y-39718750I-268750J0D01*
G01*
G37*
%TD*%
D15*
%TO.C,MX40*%
X240665000Y-85407500D03*
D16*
X238125000Y-90487500D03*
D15*
X234315000Y-87947500D03*
D17*
X233045000Y-90487500D03*
X243205000Y-90487500D03*
%TD*%
D15*
%TO.C,MX39*%
X216852500Y-85407500D03*
D16*
X214312500Y-90487500D03*
D15*
X210502500Y-87947500D03*
D17*
X209232500Y-90487500D03*
X219392500Y-90487500D03*
%TD*%
D15*
%TO.C,MX38*%
X154940000Y-85407500D03*
D16*
X152400000Y-90487500D03*
D15*
X148590000Y-87947500D03*
D17*
X147320000Y-90487500D03*
X157480000Y-90487500D03*
D24*
X95250000Y-83502500D03*
X190500000Y-83502500D03*
D16*
X95250000Y-98742500D03*
X190500000Y-98742500D03*
%TD*%
D15*
%TO.C,MX37*%
X73977500Y-85407500D03*
D16*
X71437500Y-90487500D03*
D15*
X67627500Y-87947500D03*
D17*
X66357500Y-90487500D03*
X76517500Y-90487500D03*
%TD*%
D15*
%TO.C,MX36*%
X50165000Y-85407500D03*
D16*
X47625000Y-90487500D03*
D15*
X43815000Y-87947500D03*
D17*
X42545000Y-90487500D03*
X52705000Y-90487500D03*
%TD*%
D15*
%TO.C,MX35*%
X254952500Y-66357500D03*
D16*
X252412500Y-71437500D03*
D15*
X248602500Y-68897500D03*
D17*
X247332500Y-71437500D03*
X257492500Y-71437500D03*
%TD*%
D15*
%TO.C,MX34*%
X235902500Y-66357500D03*
D16*
X233362500Y-71437500D03*
D15*
X229552500Y-68897500D03*
D17*
X228282500Y-71437500D03*
X238442500Y-71437500D03*
%TD*%
D15*
%TO.C,MX33*%
X216852500Y-66357500D03*
D16*
X214312500Y-71437500D03*
D15*
X210502500Y-68897500D03*
D17*
X209232500Y-71437500D03*
X219392500Y-71437500D03*
%TD*%
D15*
%TO.C,MX32*%
X197802500Y-66357500D03*
D16*
X195262500Y-71437500D03*
D15*
X191452500Y-68897500D03*
D17*
X190182500Y-71437500D03*
X200342500Y-71437500D03*
%TD*%
D15*
%TO.C,MX31*%
X178752500Y-66357500D03*
D16*
X176212500Y-71437500D03*
D15*
X172402500Y-68897500D03*
D17*
X171132500Y-71437500D03*
X181292500Y-71437500D03*
%TD*%
D15*
%TO.C,MX30*%
X159702500Y-66357500D03*
D16*
X157162500Y-71437500D03*
D15*
X153352500Y-68897500D03*
D17*
X152082500Y-71437500D03*
X162242500Y-71437500D03*
%TD*%
D15*
%TO.C,MX29*%
X140652500Y-66357500D03*
D16*
X138112500Y-71437500D03*
D15*
X134302500Y-68897500D03*
D17*
X133032500Y-71437500D03*
X143192500Y-71437500D03*
%TD*%
D15*
%TO.C,MX28*%
X121602500Y-66357500D03*
D16*
X119062500Y-71437500D03*
D15*
X115252500Y-68897500D03*
D17*
X113982500Y-71437500D03*
X124142500Y-71437500D03*
%TD*%
D15*
%TO.C,MX27*%
X102552500Y-66357500D03*
D16*
X100012500Y-71437500D03*
D15*
X96202500Y-68897500D03*
D17*
X94932500Y-71437500D03*
X105092500Y-71437500D03*
%TD*%
D15*
%TO.C,MX26*%
X83502500Y-66357500D03*
D16*
X80962500Y-71437500D03*
D15*
X77152500Y-68897500D03*
D17*
X75882500Y-71437500D03*
X86042500Y-71437500D03*
%TD*%
D15*
%TO.C,MX25*%
X64452500Y-66357500D03*
D16*
X61912500Y-71437500D03*
D15*
X58102500Y-68897500D03*
D17*
X56832500Y-71437500D03*
X66992500Y-71437500D03*
%TD*%
D15*
%TO.C,MX22*%
X212090000Y-47307500D03*
D16*
X209550000Y-52387500D03*
D15*
X205740000Y-49847500D03*
D17*
X204470000Y-52387500D03*
X214630000Y-52387500D03*
%TD*%
D15*
%TO.C,MX21*%
X193040000Y-47307500D03*
D16*
X190500000Y-52387500D03*
D15*
X186690000Y-49847500D03*
D17*
X185420000Y-52387500D03*
X195580000Y-52387500D03*
%TD*%
D15*
%TO.C,MX20*%
X173990000Y-47307500D03*
D16*
X171450000Y-52387500D03*
D15*
X167640000Y-49847500D03*
D17*
X166370000Y-52387500D03*
X176530000Y-52387500D03*
%TD*%
D15*
%TO.C,MX19*%
X154940000Y-47307500D03*
D16*
X152400000Y-52387500D03*
D15*
X148590000Y-49847500D03*
D17*
X147320000Y-52387500D03*
X157480000Y-52387500D03*
%TD*%
D15*
%TO.C,MX18*%
X135890000Y-47307500D03*
D16*
X133350000Y-52387500D03*
D15*
X129540000Y-49847500D03*
D17*
X128270000Y-52387500D03*
X138430000Y-52387500D03*
%TD*%
D15*
%TO.C,MX17*%
X116840000Y-47307500D03*
D16*
X114300000Y-52387500D03*
D15*
X110490000Y-49847500D03*
D17*
X109220000Y-52387500D03*
X119380000Y-52387500D03*
%TD*%
D15*
%TO.C,MX16*%
X97790000Y-47307500D03*
D16*
X95250000Y-52387500D03*
D15*
X91440000Y-49847500D03*
D17*
X90170000Y-52387500D03*
X100330000Y-52387500D03*
%TD*%
D15*
%TO.C,MX15*%
X78740000Y-47307500D03*
D16*
X76200000Y-52387500D03*
D15*
X72390000Y-49847500D03*
D17*
X71120000Y-52387500D03*
X81280000Y-52387500D03*
%TD*%
D15*
%TO.C,MX14*%
X59690000Y-47307500D03*
D16*
X57150000Y-52387500D03*
D15*
X53340000Y-49847500D03*
D17*
X52070000Y-52387500D03*
X62230000Y-52387500D03*
%TD*%
D15*
%TO.C,MX13*%
X38258750Y-47307500D03*
D16*
X35718750Y-52387500D03*
D15*
X31908750Y-49847500D03*
D17*
X30638750Y-52387500D03*
X40798750Y-52387500D03*
%TD*%
D16*
%TO.C,MX12*%
X258286250Y-30924500D03*
X258286250Y-54800500D03*
D24*
X243046250Y-30924500D03*
X243046250Y-54800500D03*
D17*
X255111250Y-42862500D03*
X244951250Y-42862500D03*
D25*
X251301250Y-47942500D03*
D26*
X248761250Y-47942500D03*
D15*
X246221250Y-40322500D03*
D16*
X250031250Y-42862500D03*
D15*
X252571250Y-37782500D03*
%TD*%
%TO.C,MX11*%
X226377500Y-28257500D03*
D16*
X223837500Y-33337500D03*
D15*
X220027500Y-30797500D03*
D17*
X218757500Y-33337500D03*
X228917500Y-33337500D03*
%TD*%
D15*
%TO.C,MX10*%
X207327500Y-28257500D03*
D16*
X204787500Y-33337500D03*
D15*
X200977500Y-30797500D03*
D17*
X199707500Y-33337500D03*
X209867500Y-33337500D03*
%TD*%
D15*
%TO.C,MX9*%
X188277500Y-28257500D03*
D16*
X185737500Y-33337500D03*
D15*
X181927500Y-30797500D03*
D17*
X180657500Y-33337500D03*
X190817500Y-33337500D03*
%TD*%
D15*
%TO.C,MX8*%
X169227500Y-28257500D03*
D16*
X166687500Y-33337500D03*
D15*
X162877500Y-30797500D03*
D17*
X161607500Y-33337500D03*
X171767500Y-33337500D03*
%TD*%
D15*
%TO.C,MX7*%
X150177500Y-28257500D03*
D16*
X147637500Y-33337500D03*
D15*
X143827500Y-30797500D03*
D17*
X142557500Y-33337500D03*
X152717500Y-33337500D03*
%TD*%
D15*
%TO.C,MX6*%
X131127500Y-28257500D03*
D16*
X128587500Y-33337500D03*
D15*
X124777500Y-30797500D03*
D17*
X123507500Y-33337500D03*
X133667500Y-33337500D03*
%TD*%
D15*
%TO.C,MX5*%
X112077500Y-28257500D03*
D16*
X109537500Y-33337500D03*
D15*
X105727500Y-30797500D03*
D17*
X104457500Y-33337500D03*
X114617500Y-33337500D03*
%TD*%
D15*
%TO.C,MX4*%
X93027500Y-28257500D03*
D16*
X90487500Y-33337500D03*
D15*
X86677500Y-30797500D03*
D17*
X85407500Y-33337500D03*
X95567500Y-33337500D03*
%TD*%
D15*
%TO.C,MX3*%
X73977500Y-28257500D03*
D16*
X71437500Y-33337500D03*
D15*
X67627500Y-30797500D03*
D17*
X66357500Y-33337500D03*
X76517500Y-33337500D03*
%TD*%
D15*
%TO.C,MX1*%
X35877500Y-28257500D03*
D16*
X33337500Y-33337500D03*
D15*
X29527500Y-30797500D03*
D17*
X28257500Y-33337500D03*
X38417500Y-33337500D03*
%TD*%
%TO.C,F1*%
G36*
G01*
X39548750Y-37187500D02*
X38238750Y-37187500D01*
G75*
G02*
X37968750Y-36917500I0J270000D01*
G01*
X37968750Y-36107500D01*
G75*
G02*
X38238750Y-35837500I270000J0D01*
G01*
X39548750Y-35837500D01*
G75*
G02*
X39818750Y-36107500I0J-270000D01*
G01*
X39818750Y-36917500D01*
G75*
G02*
X39548750Y-37187500I-270000J0D01*
G01*
G37*
G36*
G01*
X39548750Y-39987500D02*
X38238750Y-39987500D01*
G75*
G02*
X37968750Y-39717500I0J270000D01*
G01*
X37968750Y-38907500D01*
G75*
G02*
X38238750Y-38637500I270000J0D01*
G01*
X39548750Y-38637500D01*
G75*
G02*
X39818750Y-38907500I0J-270000D01*
G01*
X39818750Y-39717500D01*
G75*
G02*
X39548750Y-39987500I-270000J0D01*
G01*
G37*
%TD*%
D27*
%TO.C,D40*%
X246062500Y-91218750D03*
X246062500Y-94518750D03*
%TD*%
%TO.C,D39*%
X222250000Y-91218750D03*
X222250000Y-94518750D03*
%TD*%
%TO.C,D38*%
X160337500Y-91281250D03*
X160337500Y-94581250D03*
%TD*%
%TO.C,D37*%
X79375000Y-91281250D03*
X79375000Y-94581250D03*
%TD*%
%TO.C,D36*%
X55562500Y-91218750D03*
X55562500Y-94518750D03*
%TD*%
%TO.C,D35*%
X260350000Y-72231250D03*
X260350000Y-75531250D03*
%TD*%
%TO.C,D34*%
X241300000Y-72231250D03*
X241300000Y-75531250D03*
%TD*%
%TO.C,D33*%
X222250000Y-72231250D03*
X222250000Y-75531250D03*
%TD*%
%TO.C,D32*%
X203200000Y-72231250D03*
X203200000Y-75531250D03*
%TD*%
%TO.C,D31*%
X184150000Y-72231250D03*
X184150000Y-75531250D03*
%TD*%
%TO.C,D30*%
X165100000Y-72231250D03*
X165100000Y-75531250D03*
%TD*%
%TO.C,D29*%
X146050000Y-72168750D03*
X146050000Y-75468750D03*
%TD*%
%TO.C,D28*%
X127000000Y-72231250D03*
X127000000Y-75531250D03*
%TD*%
%TO.C,D27*%
X107950000Y-72231250D03*
X107950000Y-75531250D03*
%TD*%
%TO.C,D26*%
X88900000Y-72231250D03*
X88900000Y-75531250D03*
%TD*%
%TO.C,D25*%
X69850000Y-72231250D03*
X69850000Y-75531250D03*
%TD*%
%TO.C,D24*%
X46037500Y-72231250D03*
X46037500Y-75531250D03*
%TD*%
%TO.C,D23*%
X236537500Y-53118750D03*
X236537500Y-56418750D03*
%TD*%
%TO.C,D22*%
X217487500Y-53181250D03*
X217487500Y-56481250D03*
%TD*%
%TO.C,D21*%
X198437500Y-53118750D03*
X198437500Y-56418750D03*
%TD*%
%TO.C,D20*%
X179387500Y-53181250D03*
X179387500Y-56481250D03*
%TD*%
%TO.C,D19*%
X160337500Y-53118750D03*
X160337500Y-56418750D03*
%TD*%
%TO.C,D18*%
X141287500Y-53181250D03*
X141287500Y-56481250D03*
%TD*%
%TO.C,D17*%
X122237500Y-53181250D03*
X122237500Y-56481250D03*
%TD*%
%TO.C,D16*%
X103187500Y-53181250D03*
X103187500Y-56481250D03*
%TD*%
%TO.C,D15*%
X84137500Y-53181250D03*
X84137500Y-56481250D03*
%TD*%
%TO.C,D14*%
X65087500Y-53118750D03*
X65087500Y-56418750D03*
%TD*%
D28*
%TO.C,D13*%
X38831250Y-56356250D03*
X42131250Y-56356250D03*
%TD*%
D27*
%TO.C,D12*%
X234950000Y-34068750D03*
X234950000Y-37368750D03*
%TD*%
%TO.C,D11*%
X231775000Y-34068750D03*
X231775000Y-37368750D03*
%TD*%
%TO.C,D10*%
X212725000Y-34068750D03*
X212725000Y-37368750D03*
%TD*%
%TO.C,D9*%
X193675000Y-34068750D03*
X193675000Y-37368750D03*
%TD*%
%TO.C,D8*%
X174625000Y-34068750D03*
X174625000Y-37368750D03*
%TD*%
%TO.C,D7*%
X155575000Y-34131250D03*
X155575000Y-37431250D03*
%TD*%
%TO.C,D6*%
X136525000Y-34068750D03*
X136525000Y-37368750D03*
%TD*%
%TO.C,D5*%
X117475000Y-34068750D03*
X117475000Y-37368750D03*
%TD*%
%TO.C,D4*%
X98425000Y-34131250D03*
X98425000Y-37431250D03*
%TD*%
%TO.C,D3*%
X79375000Y-34131250D03*
X79375000Y-37431250D03*
%TD*%
%TO.C,D2*%
X60325000Y-34068750D03*
X60325000Y-37368750D03*
%TD*%
D28*
%TO.C,D1*%
X33337500Y-38100000D03*
X36637500Y-38100000D03*
%TD*%
%TO.C,C7*%
G36*
G01*
X134456250Y-86775000D02*
X135418750Y-86775000D01*
G75*
G02*
X135687500Y-87043750I0J-268750D01*
G01*
X135687500Y-87581250D01*
G75*
G02*
X135418750Y-87850000I-268750J0D01*
G01*
X134456250Y-87850000D01*
G75*
G02*
X134187500Y-87581250I0J268750D01*
G01*
X134187500Y-87043750D01*
G75*
G02*
X134456250Y-86775000I268750J0D01*
G01*
G37*
G36*
G01*
X134456250Y-84900000D02*
X135418750Y-84900000D01*
G75*
G02*
X135687500Y-85168750I0J-268750D01*
G01*
X135687500Y-85706250D01*
G75*
G02*
X135418750Y-85975000I-268750J0D01*
G01*
X134456250Y-85975000D01*
G75*
G02*
X134187500Y-85706250I0J268750D01*
G01*
X134187500Y-85168750D01*
G75*
G02*
X134456250Y-84900000I268750J0D01*
G01*
G37*
%TD*%
%TO.C,C6*%
G36*
G01*
X129068750Y-97881250D02*
X128106250Y-97881250D01*
G75*
G02*
X127837500Y-97612500I0J268750D01*
G01*
X127837500Y-97075000D01*
G75*
G02*
X128106250Y-96806250I268750J0D01*
G01*
X129068750Y-96806250D01*
G75*
G02*
X129337500Y-97075000I0J-268750D01*
G01*
X129337500Y-97612500D01*
G75*
G02*
X129068750Y-97881250I-268750J0D01*
G01*
G37*
G36*
G01*
X129068750Y-99756250D02*
X128106250Y-99756250D01*
G75*
G02*
X127837500Y-99487500I0J268750D01*
G01*
X127837500Y-98950000D01*
G75*
G02*
X128106250Y-98681250I268750J0D01*
G01*
X129068750Y-98681250D01*
G75*
G02*
X129337500Y-98950000I0J-268750D01*
G01*
X129337500Y-99487500D01*
G75*
G02*
X129068750Y-99756250I-268750J0D01*
G01*
G37*
%TD*%
%TO.C,C5*%
G36*
G01*
X110812500Y-94850000D02*
X109850000Y-94850000D01*
G75*
G02*
X109581250Y-94581250I0J268750D01*
G01*
X109581250Y-94043750D01*
G75*
G02*
X109850000Y-93775000I268750J0D01*
G01*
X110812500Y-93775000D01*
G75*
G02*
X111081250Y-94043750I0J-268750D01*
G01*
X111081250Y-94581250D01*
G75*
G02*
X110812500Y-94850000I-268750J0D01*
G01*
G37*
G36*
G01*
X110812500Y-96725000D02*
X109850000Y-96725000D01*
G75*
G02*
X109581250Y-96456250I0J268750D01*
G01*
X109581250Y-95918750D01*
G75*
G02*
X109850000Y-95650000I268750J0D01*
G01*
X110812500Y-95650000D01*
G75*
G02*
X111081250Y-95918750I0J-268750D01*
G01*
X111081250Y-96456250D01*
G75*
G02*
X110812500Y-96725000I-268750J0D01*
G01*
G37*
%TD*%
%TO.C,C4*%
G36*
G01*
X109850000Y-87568750D02*
X110812500Y-87568750D01*
G75*
G02*
X111081250Y-87837500I0J-268750D01*
G01*
X111081250Y-88375000D01*
G75*
G02*
X110812500Y-88643750I-268750J0D01*
G01*
X109850000Y-88643750D01*
G75*
G02*
X109581250Y-88375000I0J268750D01*
G01*
X109581250Y-87837500D01*
G75*
G02*
X109850000Y-87568750I268750J0D01*
G01*
G37*
G36*
G01*
X109850000Y-85693750D02*
X110812500Y-85693750D01*
G75*
G02*
X111081250Y-85962500I0J-268750D01*
G01*
X111081250Y-86500000D01*
G75*
G02*
X110812500Y-86768750I-268750J0D01*
G01*
X109850000Y-86768750D01*
G75*
G02*
X109581250Y-86500000I0J268750D01*
G01*
X109581250Y-85962500D01*
G75*
G02*
X109850000Y-85693750I268750J0D01*
G01*
G37*
%TD*%
%TO.C,C3*%
G36*
G01*
X119600000Y-80481250D02*
X119600000Y-81443750D01*
G75*
G02*
X119331250Y-81712500I-268750J0D01*
G01*
X118793750Y-81712500D01*
G75*
G02*
X118525000Y-81443750I0J268750D01*
G01*
X118525000Y-80481250D01*
G75*
G02*
X118793750Y-80212500I268750J0D01*
G01*
X119331250Y-80212500D01*
G75*
G02*
X119600000Y-80481250I0J-268750D01*
G01*
G37*
G36*
G01*
X121475000Y-80481250D02*
X121475000Y-81443750D01*
G75*
G02*
X121206250Y-81712500I-268750J0D01*
G01*
X120668750Y-81712500D01*
G75*
G02*
X120400000Y-81443750I0J268750D01*
G01*
X120400000Y-80481250D01*
G75*
G02*
X120668750Y-80212500I268750J0D01*
G01*
X121206250Y-80212500D01*
G75*
G02*
X121475000Y-80481250I0J-268750D01*
G01*
G37*
%TD*%
%TO.C,C2*%
G36*
G01*
X137568750Y-86831250D02*
X137568750Y-87793750D01*
G75*
G02*
X137300000Y-88062500I-268750J0D01*
G01*
X136762500Y-88062500D01*
G75*
G02*
X136493750Y-87793750I0J268750D01*
G01*
X136493750Y-86831250D01*
G75*
G02*
X136762500Y-86562500I268750J0D01*
G01*
X137300000Y-86562500D01*
G75*
G02*
X137568750Y-86831250I0J-268750D01*
G01*
G37*
G36*
G01*
X139443750Y-86831250D02*
X139443750Y-87793750D01*
G75*
G02*
X139175000Y-88062500I-268750J0D01*
G01*
X138637500Y-88062500D01*
G75*
G02*
X138368750Y-87793750I0J268750D01*
G01*
X138368750Y-86831250D01*
G75*
G02*
X138637500Y-86562500I268750J0D01*
G01*
X139175000Y-86562500D01*
G75*
G02*
X139443750Y-86831250I0J-268750D01*
G01*
G37*
%TD*%
%TO.C,C1*%
G36*
G01*
X138368750Y-96525000D02*
X138368750Y-95562500D01*
G75*
G02*
X138637500Y-95293750I268750J0D01*
G01*
X139175000Y-95293750D01*
G75*
G02*
X139443750Y-95562500I0J-268750D01*
G01*
X139443750Y-96525000D01*
G75*
G02*
X139175000Y-96793750I-268750J0D01*
G01*
X138637500Y-96793750D01*
G75*
G02*
X138368750Y-96525000I0J268750D01*
G01*
G37*
G36*
G01*
X136493750Y-96525000D02*
X136493750Y-95562500D01*
G75*
G02*
X136762500Y-95293750I268750J0D01*
G01*
X137300000Y-95293750D01*
G75*
G02*
X137568750Y-95562500I0J-268750D01*
G01*
X137568750Y-96525000D01*
G75*
G02*
X137300000Y-96793750I-268750J0D01*
G01*
X136762500Y-96793750D01*
G75*
G02*
X136493750Y-96525000I0J268750D01*
G01*
G37*
%TD*%
M02*
