%TF.GenerationSoftware,KiCad,Pcbnew,(5.1.6-0-10_14)*%
%TF.CreationDate,2020-07-22T14:13:02+10:00*%
%TF.ProjectId,iso_40,69736f5f-3430-42e6-9b69-6361645f7063,rev?*%
%TF.SameCoordinates,Original*%
%TF.FileFunction,Soldermask,Bot*%
%TF.FilePolarity,Negative*%
%FSLAX46Y46*%
G04 Gerber Fmt 4.6, Leading zero omitted, Abs format (unit mm)*
G04 Created by KiCad (PCBNEW (5.1.6-0-10_14)) date 2020-07-22 14:13:02*
%MOMM*%
%LPD*%
G01*
G04 APERTURE LIST*
%ADD10C,0.100000*%
%ADD11C,0.150000*%
%ADD12C,0.300000*%
%ADD13C,0.400000*%
%ADD14C,2.350000*%
%ADD15C,4.087800*%
%ADD16C,1.850000*%
%ADD17R,1.300000X1.500000*%
%ADD18O,1.800000X2.800000*%
%ADD19R,0.600000X2.350000*%
%ADD20R,1.600000X0.650000*%
%ADD21R,0.650000X1.600000*%
%ADD22R,1.900000X1.200000*%
%ADD23C,3.148000*%
%ADD24R,2.005000X2.005000*%
%ADD25C,2.005000*%
%ADD26R,1.300000X1.000000*%
%ADD27R,1.000000X1.300000*%
G04 APERTURE END LIST*
D10*
D11*
X177002200Y-166007200D02*
X177002200Y-198007200D01*
X285002200Y-198007200D01*
X285002200Y-166007200D01*
X177002200Y-166007200D01*
D10*
D11*
X10000000Y-10000000D02*
X10000000Y-200007200D01*
X287002200Y-200007200D01*
X287002200Y-10000000D01*
X10000000Y-10000000D01*
D10*
D11*
X12000000Y-12000000D02*
X12000000Y-198007200D01*
X285002200Y-198007200D01*
X285002200Y-12000000D01*
X12000000Y-12000000D01*
D10*
D11*
X60000000Y-12000000D02*
X60000000Y-10000000D01*
D10*
D11*
X110000000Y-12000000D02*
X110000000Y-10000000D01*
D10*
D11*
X160000000Y-12000000D02*
X160000000Y-10000000D01*
D10*
D11*
X210000000Y-12000000D02*
X210000000Y-10000000D01*
D10*
D11*
X260000000Y-12000000D02*
X260000000Y-10000000D01*
D10*
D11*
X36065476Y-11588095D02*
X35322619Y-11588095D01*
X35694047Y-11588095D02*
X35694047Y-10288095D01*
X35570238Y-10473809D01*
X35446428Y-10597619D01*
X35322619Y-10659523D01*
D10*
D11*
X85322619Y-10411904D02*
X85384523Y-10350000D01*
X85508333Y-10288095D01*
X85817857Y-10288095D01*
X85941666Y-10350000D01*
X86003571Y-10411904D01*
X86065476Y-10535714D01*
X86065476Y-10659523D01*
X86003571Y-10845238D01*
X85260714Y-11588095D01*
X86065476Y-11588095D01*
D10*
D11*
X135260714Y-10288095D02*
X136065476Y-10288095D01*
X135632142Y-10783333D01*
X135817857Y-10783333D01*
X135941666Y-10845238D01*
X136003571Y-10907142D01*
X136065476Y-11030952D01*
X136065476Y-11340476D01*
X136003571Y-11464285D01*
X135941666Y-11526190D01*
X135817857Y-11588095D01*
X135446428Y-11588095D01*
X135322619Y-11526190D01*
X135260714Y-11464285D01*
D10*
D11*
X185941666Y-10721428D02*
X185941666Y-11588095D01*
X185632142Y-10226190D02*
X185322619Y-11154761D01*
X186127380Y-11154761D01*
D10*
D11*
X236003571Y-10288095D02*
X235384523Y-10288095D01*
X235322619Y-10907142D01*
X235384523Y-10845238D01*
X235508333Y-10783333D01*
X235817857Y-10783333D01*
X235941666Y-10845238D01*
X236003571Y-10907142D01*
X236065476Y-11030952D01*
X236065476Y-11340476D01*
X236003571Y-11464285D01*
X235941666Y-11526190D01*
X235817857Y-11588095D01*
X235508333Y-11588095D01*
X235384523Y-11526190D01*
X235322619Y-11464285D01*
D10*
D11*
X285941666Y-10288095D02*
X285694047Y-10288095D01*
X285570238Y-10350000D01*
X285508333Y-10411904D01*
X285384523Y-10597619D01*
X285322619Y-10845238D01*
X285322619Y-11340476D01*
X285384523Y-11464285D01*
X285446428Y-11526190D01*
X285570238Y-11588095D01*
X285817857Y-11588095D01*
X285941666Y-11526190D01*
X286003571Y-11464285D01*
X286065476Y-11340476D01*
X286065476Y-11030952D01*
X286003571Y-10907142D01*
X285941666Y-10845238D01*
X285817857Y-10783333D01*
X285570238Y-10783333D01*
X285446428Y-10845238D01*
X285384523Y-10907142D01*
X285322619Y-11030952D01*
D10*
D11*
X60000000Y-198007200D02*
X60000000Y-200007200D01*
D10*
D11*
X110000000Y-198007200D02*
X110000000Y-200007200D01*
D10*
D11*
X160000000Y-198007200D02*
X160000000Y-200007200D01*
D10*
D11*
X210000000Y-198007200D02*
X210000000Y-200007200D01*
D10*
D11*
X260000000Y-198007200D02*
X260000000Y-200007200D01*
D10*
D11*
X36065476Y-199595295D02*
X35322619Y-199595295D01*
X35694047Y-199595295D02*
X35694047Y-198295295D01*
X35570238Y-198481009D01*
X35446428Y-198604819D01*
X35322619Y-198666723D01*
D10*
D11*
X85322619Y-198419104D02*
X85384523Y-198357200D01*
X85508333Y-198295295D01*
X85817857Y-198295295D01*
X85941666Y-198357200D01*
X86003571Y-198419104D01*
X86065476Y-198542914D01*
X86065476Y-198666723D01*
X86003571Y-198852438D01*
X85260714Y-199595295D01*
X86065476Y-199595295D01*
D10*
D11*
X135260714Y-198295295D02*
X136065476Y-198295295D01*
X135632142Y-198790533D01*
X135817857Y-198790533D01*
X135941666Y-198852438D01*
X136003571Y-198914342D01*
X136065476Y-199038152D01*
X136065476Y-199347676D01*
X136003571Y-199471485D01*
X135941666Y-199533390D01*
X135817857Y-199595295D01*
X135446428Y-199595295D01*
X135322619Y-199533390D01*
X135260714Y-199471485D01*
D10*
D11*
X185941666Y-198728628D02*
X185941666Y-199595295D01*
X185632142Y-198233390D02*
X185322619Y-199161961D01*
X186127380Y-199161961D01*
D10*
D11*
X236003571Y-198295295D02*
X235384523Y-198295295D01*
X235322619Y-198914342D01*
X235384523Y-198852438D01*
X235508333Y-198790533D01*
X235817857Y-198790533D01*
X235941666Y-198852438D01*
X236003571Y-198914342D01*
X236065476Y-199038152D01*
X236065476Y-199347676D01*
X236003571Y-199471485D01*
X235941666Y-199533390D01*
X235817857Y-199595295D01*
X235508333Y-199595295D01*
X235384523Y-199533390D01*
X235322619Y-199471485D01*
D10*
D11*
X285941666Y-198295295D02*
X285694047Y-198295295D01*
X285570238Y-198357200D01*
X285508333Y-198419104D01*
X285384523Y-198604819D01*
X285322619Y-198852438D01*
X285322619Y-199347676D01*
X285384523Y-199471485D01*
X285446428Y-199533390D01*
X285570238Y-199595295D01*
X285817857Y-199595295D01*
X285941666Y-199533390D01*
X286003571Y-199471485D01*
X286065476Y-199347676D01*
X286065476Y-199038152D01*
X286003571Y-198914342D01*
X285941666Y-198852438D01*
X285817857Y-198790533D01*
X285570238Y-198790533D01*
X285446428Y-198852438D01*
X285384523Y-198914342D01*
X285322619Y-199038152D01*
D10*
D11*
X10000000Y-60000000D02*
X12000000Y-60000000D01*
D10*
D11*
X10000000Y-110000000D02*
X12000000Y-110000000D01*
D10*
D11*
X10000000Y-160000000D02*
X12000000Y-160000000D01*
D10*
D11*
X10690476Y-35216666D02*
X11309523Y-35216666D01*
X10566666Y-35588095D02*
X11000000Y-34288095D01*
X11433333Y-35588095D01*
D10*
D11*
X11092857Y-84907142D02*
X11278571Y-84969047D01*
X11340476Y-85030952D01*
X11402380Y-85154761D01*
X11402380Y-85340476D01*
X11340476Y-85464285D01*
X11278571Y-85526190D01*
X11154761Y-85588095D01*
X10659523Y-85588095D01*
X10659523Y-84288095D01*
X11092857Y-84288095D01*
X11216666Y-84350000D01*
X11278571Y-84411904D01*
X11340476Y-84535714D01*
X11340476Y-84659523D01*
X11278571Y-84783333D01*
X11216666Y-84845238D01*
X11092857Y-84907142D01*
X10659523Y-84907142D01*
D10*
D11*
X11402380Y-135464285D02*
X11340476Y-135526190D01*
X11154761Y-135588095D01*
X11030952Y-135588095D01*
X10845238Y-135526190D01*
X10721428Y-135402380D01*
X10659523Y-135278571D01*
X10597619Y-135030952D01*
X10597619Y-134845238D01*
X10659523Y-134597619D01*
X10721428Y-134473809D01*
X10845238Y-134350000D01*
X11030952Y-134288095D01*
X11154761Y-134288095D01*
X11340476Y-134350000D01*
X11402380Y-134411904D01*
D10*
D11*
X10659523Y-185588095D02*
X10659523Y-184288095D01*
X10969047Y-184288095D01*
X11154761Y-184350000D01*
X11278571Y-184473809D01*
X11340476Y-184597619D01*
X11402380Y-184845238D01*
X11402380Y-185030952D01*
X11340476Y-185278571D01*
X11278571Y-185402380D01*
X11154761Y-185526190D01*
X10969047Y-185588095D01*
X10659523Y-185588095D01*
D10*
D11*
X287002200Y-60000000D02*
X285002200Y-60000000D01*
D10*
D11*
X287002200Y-110000000D02*
X285002200Y-110000000D01*
D10*
D11*
X287002200Y-160000000D02*
X285002200Y-160000000D01*
D10*
D11*
X285692676Y-35216666D02*
X286311723Y-35216666D01*
X285568866Y-35588095D02*
X286002200Y-34288095D01*
X286435533Y-35588095D01*
D10*
D11*
X286095057Y-84907142D02*
X286280771Y-84969047D01*
X286342676Y-85030952D01*
X286404580Y-85154761D01*
X286404580Y-85340476D01*
X286342676Y-85464285D01*
X286280771Y-85526190D01*
X286156961Y-85588095D01*
X285661723Y-85588095D01*
X285661723Y-84288095D01*
X286095057Y-84288095D01*
X286218866Y-84350000D01*
X286280771Y-84411904D01*
X286342676Y-84535714D01*
X286342676Y-84659523D01*
X286280771Y-84783333D01*
X286218866Y-84845238D01*
X286095057Y-84907142D01*
X285661723Y-84907142D01*
D10*
D11*
X286404580Y-135464285D02*
X286342676Y-135526190D01*
X286156961Y-135588095D01*
X286033152Y-135588095D01*
X285847438Y-135526190D01*
X285723628Y-135402380D01*
X285661723Y-135278571D01*
X285599819Y-135030952D01*
X285599819Y-134845238D01*
X285661723Y-134597619D01*
X285723628Y-134473809D01*
X285847438Y-134350000D01*
X286033152Y-134288095D01*
X286156961Y-134288095D01*
X286342676Y-134350000D01*
X286404580Y-134411904D01*
D10*
D11*
X285661723Y-185588095D02*
X285661723Y-184288095D01*
X285971247Y-184288095D01*
X286156961Y-184350000D01*
X286280771Y-184473809D01*
X286342676Y-184597619D01*
X286404580Y-184845238D01*
X286404580Y-185030952D01*
X286342676Y-185278571D01*
X286280771Y-185402380D01*
X286156961Y-185526190D01*
X285971247Y-185588095D01*
X285661723Y-185588095D01*
D10*
D11*
X200434342Y-193785771D02*
X200434342Y-192285771D01*
X200791485Y-192285771D01*
X201005771Y-192357200D01*
X201148628Y-192500057D01*
X201220057Y-192642914D01*
X201291485Y-192928628D01*
X201291485Y-193142914D01*
X201220057Y-193428628D01*
X201148628Y-193571485D01*
X201005771Y-193714342D01*
X200791485Y-193785771D01*
X200434342Y-193785771D01*
X202577200Y-193785771D02*
X202577200Y-193000057D01*
X202505771Y-192857200D01*
X202362914Y-192785771D01*
X202077200Y-192785771D01*
X201934342Y-192857200D01*
X202577200Y-193714342D02*
X202434342Y-193785771D01*
X202077200Y-193785771D01*
X201934342Y-193714342D01*
X201862914Y-193571485D01*
X201862914Y-193428628D01*
X201934342Y-193285771D01*
X202077200Y-193214342D01*
X202434342Y-193214342D01*
X202577200Y-193142914D01*
X203077200Y-192785771D02*
X203648628Y-192785771D01*
X203291485Y-192285771D02*
X203291485Y-193571485D01*
X203362914Y-193714342D01*
X203505771Y-193785771D01*
X203648628Y-193785771D01*
X204720057Y-193714342D02*
X204577200Y-193785771D01*
X204291485Y-193785771D01*
X204148628Y-193714342D01*
X204077200Y-193571485D01*
X204077200Y-193000057D01*
X204148628Y-192857200D01*
X204291485Y-192785771D01*
X204577200Y-192785771D01*
X204720057Y-192857200D01*
X204791485Y-193000057D01*
X204791485Y-193142914D01*
X204077200Y-193285771D01*
X205434342Y-193642914D02*
X205505771Y-193714342D01*
X205434342Y-193785771D01*
X205362914Y-193714342D01*
X205434342Y-193642914D01*
X205434342Y-193785771D01*
X205434342Y-192857200D02*
X205505771Y-192928628D01*
X205434342Y-193000057D01*
X205362914Y-192928628D01*
X205434342Y-192857200D01*
X205434342Y-193000057D01*
D10*
D11*
X177002200Y-194507200D02*
X285002200Y-194507200D01*
D10*
D11*
X178434342Y-196585771D02*
X178434342Y-195085771D01*
X179291485Y-196585771D02*
X178648628Y-195728628D01*
X179291485Y-195085771D02*
X178434342Y-195942914D01*
X179934342Y-196585771D02*
X179934342Y-195585771D01*
X179934342Y-195085771D02*
X179862914Y-195157200D01*
X179934342Y-195228628D01*
X180005771Y-195157200D01*
X179934342Y-195085771D01*
X179934342Y-195228628D01*
X181505771Y-196442914D02*
X181434342Y-196514342D01*
X181220057Y-196585771D01*
X181077200Y-196585771D01*
X180862914Y-196514342D01*
X180720057Y-196371485D01*
X180648628Y-196228628D01*
X180577200Y-195942914D01*
X180577200Y-195728628D01*
X180648628Y-195442914D01*
X180720057Y-195300057D01*
X180862914Y-195157200D01*
X181077200Y-195085771D01*
X181220057Y-195085771D01*
X181434342Y-195157200D01*
X181505771Y-195228628D01*
X182791485Y-196585771D02*
X182791485Y-195800057D01*
X182720057Y-195657200D01*
X182577200Y-195585771D01*
X182291485Y-195585771D01*
X182148628Y-195657200D01*
X182791485Y-196514342D02*
X182648628Y-196585771D01*
X182291485Y-196585771D01*
X182148628Y-196514342D01*
X182077200Y-196371485D01*
X182077200Y-196228628D01*
X182148628Y-196085771D01*
X182291485Y-196014342D01*
X182648628Y-196014342D01*
X182791485Y-195942914D01*
X184148628Y-196585771D02*
X184148628Y-195085771D01*
X184148628Y-196514342D02*
X184005771Y-196585771D01*
X183720057Y-196585771D01*
X183577200Y-196514342D01*
X183505771Y-196442914D01*
X183434342Y-196300057D01*
X183434342Y-195871485D01*
X183505771Y-195728628D01*
X183577200Y-195657200D01*
X183720057Y-195585771D01*
X184005771Y-195585771D01*
X184148628Y-195657200D01*
X186005771Y-195800057D02*
X186505771Y-195800057D01*
X186720057Y-196585771D02*
X186005771Y-196585771D01*
X186005771Y-195085771D01*
X186720057Y-195085771D01*
X187362914Y-196442914D02*
X187434342Y-196514342D01*
X187362914Y-196585771D01*
X187291485Y-196514342D01*
X187362914Y-196442914D01*
X187362914Y-196585771D01*
X188077200Y-196585771D02*
X188077200Y-195085771D01*
X188434342Y-195085771D01*
X188648628Y-195157200D01*
X188791485Y-195300057D01*
X188862914Y-195442914D01*
X188934342Y-195728628D01*
X188934342Y-195942914D01*
X188862914Y-196228628D01*
X188791485Y-196371485D01*
X188648628Y-196514342D01*
X188434342Y-196585771D01*
X188077200Y-196585771D01*
X189577200Y-196442914D02*
X189648628Y-196514342D01*
X189577200Y-196585771D01*
X189505771Y-196514342D01*
X189577200Y-196442914D01*
X189577200Y-196585771D01*
X190220057Y-196157200D02*
X190934342Y-196157200D01*
X190077200Y-196585771D02*
X190577200Y-195085771D01*
X191077200Y-196585771D01*
X191577200Y-196442914D02*
X191648628Y-196514342D01*
X191577200Y-196585771D01*
X191505771Y-196514342D01*
X191577200Y-196442914D01*
X191577200Y-196585771D01*
X194577200Y-196585771D02*
X194577200Y-195085771D01*
X194720057Y-196014342D02*
X195148628Y-196585771D01*
X195148628Y-195585771D02*
X194577200Y-196157200D01*
X195791485Y-196585771D02*
X195791485Y-195585771D01*
X195791485Y-195085771D02*
X195720057Y-195157200D01*
X195791485Y-195228628D01*
X195862914Y-195157200D01*
X195791485Y-195085771D01*
X195791485Y-195228628D01*
X197148628Y-196514342D02*
X197005771Y-196585771D01*
X196720057Y-196585771D01*
X196577200Y-196514342D01*
X196505771Y-196442914D01*
X196434342Y-196300057D01*
X196434342Y-195871485D01*
X196505771Y-195728628D01*
X196577200Y-195657200D01*
X196720057Y-195585771D01*
X197005771Y-195585771D01*
X197148628Y-195657200D01*
X198434342Y-196585771D02*
X198434342Y-195800057D01*
X198362914Y-195657200D01*
X198220057Y-195585771D01*
X197934342Y-195585771D01*
X197791485Y-195657200D01*
X198434342Y-196514342D02*
X198291485Y-196585771D01*
X197934342Y-196585771D01*
X197791485Y-196514342D01*
X197720057Y-196371485D01*
X197720057Y-196228628D01*
X197791485Y-196085771D01*
X197934342Y-196014342D01*
X198291485Y-196014342D01*
X198434342Y-195942914D01*
X199791485Y-196585771D02*
X199791485Y-195085771D01*
X199791485Y-196514342D02*
X199648628Y-196585771D01*
X199362914Y-196585771D01*
X199220057Y-196514342D01*
X199148628Y-196442914D01*
X199077200Y-196300057D01*
X199077200Y-195871485D01*
X199148628Y-195728628D01*
X199220057Y-195657200D01*
X199362914Y-195585771D01*
X199648628Y-195585771D01*
X199791485Y-195657200D01*
X202077200Y-197157200D02*
X202005771Y-197085771D01*
X201862914Y-196871485D01*
X201791485Y-196728628D01*
X201720057Y-196514342D01*
X201648628Y-196157200D01*
X201648628Y-195871485D01*
X201720057Y-195514342D01*
X201791485Y-195300057D01*
X201862914Y-195157200D01*
X202005771Y-194942914D01*
X202077200Y-194871485D01*
X203362914Y-195085771D02*
X202648628Y-195085771D01*
X202577200Y-195800057D01*
X202648628Y-195728628D01*
X202791485Y-195657200D01*
X203148628Y-195657200D01*
X203291485Y-195728628D01*
X203362914Y-195800057D01*
X203434342Y-195942914D01*
X203434342Y-196300057D01*
X203362914Y-196442914D01*
X203291485Y-196514342D01*
X203148628Y-196585771D01*
X202791485Y-196585771D01*
X202648628Y-196514342D01*
X202577200Y-196442914D01*
X204077200Y-196442914D02*
X204148628Y-196514342D01*
X204077200Y-196585771D01*
X204005771Y-196514342D01*
X204077200Y-196442914D01*
X204077200Y-196585771D01*
X205577200Y-196585771D02*
X204720057Y-196585771D01*
X205148628Y-196585771D02*
X205148628Y-195085771D01*
X205005771Y-195300057D01*
X204862914Y-195442914D01*
X204720057Y-195514342D01*
X206220057Y-196442914D02*
X206291485Y-196514342D01*
X206220057Y-196585771D01*
X206148628Y-196514342D01*
X206220057Y-196442914D01*
X206220057Y-196585771D01*
X207577200Y-195085771D02*
X207291485Y-195085771D01*
X207148628Y-195157200D01*
X207077200Y-195228628D01*
X206934342Y-195442914D01*
X206862914Y-195728628D01*
X206862914Y-196300057D01*
X206934342Y-196442914D01*
X207005771Y-196514342D01*
X207148628Y-196585771D01*
X207434342Y-196585771D01*
X207577200Y-196514342D01*
X207648628Y-196442914D01*
X207720057Y-196300057D01*
X207720057Y-195942914D01*
X207648628Y-195800057D01*
X207577200Y-195728628D01*
X207434342Y-195657200D01*
X207148628Y-195657200D01*
X207005771Y-195728628D01*
X206934342Y-195800057D01*
X206862914Y-195942914D01*
X208362914Y-196014342D02*
X209505771Y-196014342D01*
X210505771Y-195085771D02*
X210648628Y-195085771D01*
X210791485Y-195157200D01*
X210862914Y-195228628D01*
X210934342Y-195371485D01*
X211005771Y-195657200D01*
X211005771Y-196014342D01*
X210934342Y-196300057D01*
X210862914Y-196442914D01*
X210791485Y-196514342D01*
X210648628Y-196585771D01*
X210505771Y-196585771D01*
X210362914Y-196514342D01*
X210291485Y-196442914D01*
X210220057Y-196300057D01*
X210148628Y-196014342D01*
X210148628Y-195657200D01*
X210220057Y-195371485D01*
X210291485Y-195228628D01*
X210362914Y-195157200D01*
X210505771Y-195085771D01*
X211648628Y-196014342D02*
X212791485Y-196014342D01*
X214291485Y-196585771D02*
X213434342Y-196585771D01*
X213862914Y-196585771D02*
X213862914Y-195085771D01*
X213720057Y-195300057D01*
X213577200Y-195442914D01*
X213434342Y-195514342D01*
X215220057Y-195085771D02*
X215362914Y-195085771D01*
X215505771Y-195157200D01*
X215577200Y-195228628D01*
X215648628Y-195371485D01*
X215720057Y-195657200D01*
X215720057Y-196014342D01*
X215648628Y-196300057D01*
X215577200Y-196442914D01*
X215505771Y-196514342D01*
X215362914Y-196585771D01*
X215220057Y-196585771D01*
X215077200Y-196514342D01*
X215005771Y-196442914D01*
X214934342Y-196300057D01*
X214862914Y-196014342D01*
X214862914Y-195657200D01*
X214934342Y-195371485D01*
X215005771Y-195228628D01*
X215077200Y-195157200D01*
X215220057Y-195085771D01*
X216005771Y-196728628D02*
X217148628Y-196728628D01*
X218291485Y-196585771D02*
X217434342Y-196585771D01*
X217862914Y-196585771D02*
X217862914Y-195085771D01*
X217720057Y-195300057D01*
X217577200Y-195442914D01*
X217434342Y-195514342D01*
X219577200Y-195585771D02*
X219577200Y-196585771D01*
X219220057Y-195014342D02*
X218862914Y-196085771D01*
X219791485Y-196085771D01*
X220220057Y-197157200D02*
X220291485Y-197085771D01*
X220434342Y-196871485D01*
X220505771Y-196728628D01*
X220577200Y-196514342D01*
X220648628Y-196157200D01*
X220648628Y-195871485D01*
X220577200Y-195514342D01*
X220505771Y-195300057D01*
X220434342Y-195157200D01*
X220291485Y-194942914D01*
X220220057Y-194871485D01*
D10*
D11*
X177002200Y-191507200D02*
X285002200Y-191507200D01*
D10*
D12*
X264411485Y-193785771D02*
X263911485Y-193071485D01*
X263554342Y-193785771D02*
X263554342Y-192285771D01*
X264125771Y-192285771D01*
X264268628Y-192357200D01*
X264340057Y-192428628D01*
X264411485Y-192571485D01*
X264411485Y-192785771D01*
X264340057Y-192928628D01*
X264268628Y-193000057D01*
X264125771Y-193071485D01*
X263554342Y-193071485D01*
X265625771Y-193714342D02*
X265482914Y-193785771D01*
X265197200Y-193785771D01*
X265054342Y-193714342D01*
X264982914Y-193571485D01*
X264982914Y-193000057D01*
X265054342Y-192857200D01*
X265197200Y-192785771D01*
X265482914Y-192785771D01*
X265625771Y-192857200D01*
X265697200Y-193000057D01*
X265697200Y-193142914D01*
X264982914Y-193285771D01*
X266197200Y-192785771D02*
X266554342Y-193785771D01*
X266911485Y-192785771D01*
X267482914Y-193642914D02*
X267554342Y-193714342D01*
X267482914Y-193785771D01*
X267411485Y-193714342D01*
X267482914Y-193642914D01*
X267482914Y-193785771D01*
X267482914Y-192857200D02*
X267554342Y-192928628D01*
X267482914Y-193000057D01*
X267411485Y-192928628D01*
X267482914Y-192857200D01*
X267482914Y-193000057D01*
D10*
D11*
X178362914Y-193714342D02*
X178577200Y-193785771D01*
X178934342Y-193785771D01*
X179077200Y-193714342D01*
X179148628Y-193642914D01*
X179220057Y-193500057D01*
X179220057Y-193357200D01*
X179148628Y-193214342D01*
X179077200Y-193142914D01*
X178934342Y-193071485D01*
X178648628Y-193000057D01*
X178505771Y-192928628D01*
X178434342Y-192857200D01*
X178362914Y-192714342D01*
X178362914Y-192571485D01*
X178434342Y-192428628D01*
X178505771Y-192357200D01*
X178648628Y-192285771D01*
X179005771Y-192285771D01*
X179220057Y-192357200D01*
X179862914Y-193785771D02*
X179862914Y-192785771D01*
X179862914Y-192285771D02*
X179791485Y-192357200D01*
X179862914Y-192428628D01*
X179934342Y-192357200D01*
X179862914Y-192285771D01*
X179862914Y-192428628D01*
X180434342Y-192785771D02*
X181220057Y-192785771D01*
X180434342Y-193785771D01*
X181220057Y-193785771D01*
X182362914Y-193714342D02*
X182220057Y-193785771D01*
X181934342Y-193785771D01*
X181791485Y-193714342D01*
X181720057Y-193571485D01*
X181720057Y-193000057D01*
X181791485Y-192857200D01*
X181934342Y-192785771D01*
X182220057Y-192785771D01*
X182362914Y-192857200D01*
X182434342Y-193000057D01*
X182434342Y-193142914D01*
X181720057Y-193285771D01*
X183077200Y-193642914D02*
X183148628Y-193714342D01*
X183077200Y-193785771D01*
X183005771Y-193714342D01*
X183077200Y-193642914D01*
X183077200Y-193785771D01*
X183077200Y-192857200D02*
X183148628Y-192928628D01*
X183077200Y-193000057D01*
X183005771Y-192928628D01*
X183077200Y-192857200D01*
X183077200Y-193000057D01*
X184862914Y-193357200D02*
X185577200Y-193357200D01*
X184720057Y-193785771D02*
X185220057Y-192285771D01*
X185720057Y-193785771D01*
X186862914Y-192785771D02*
X186862914Y-193785771D01*
X186505771Y-192214342D02*
X186148628Y-193285771D01*
X187077200Y-193285771D01*
D10*
D11*
X263434342Y-196585771D02*
X263434342Y-195085771D01*
X264791485Y-196585771D02*
X264791485Y-195085771D01*
X264791485Y-196514342D02*
X264648628Y-196585771D01*
X264362914Y-196585771D01*
X264220057Y-196514342D01*
X264148628Y-196442914D01*
X264077200Y-196300057D01*
X264077200Y-195871485D01*
X264148628Y-195728628D01*
X264220057Y-195657200D01*
X264362914Y-195585771D01*
X264648628Y-195585771D01*
X264791485Y-195657200D01*
X265505771Y-196442914D02*
X265577200Y-196514342D01*
X265505771Y-196585771D01*
X265434342Y-196514342D01*
X265505771Y-196442914D01*
X265505771Y-196585771D01*
X265505771Y-195657200D02*
X265577200Y-195728628D01*
X265505771Y-195800057D01*
X265434342Y-195728628D01*
X265505771Y-195657200D01*
X265505771Y-195800057D01*
X268148628Y-196585771D02*
X267291485Y-196585771D01*
X267720057Y-196585771D02*
X267720057Y-195085771D01*
X267577200Y-195300057D01*
X267434342Y-195442914D01*
X267291485Y-195514342D01*
X269862914Y-195014342D02*
X268577200Y-196942914D01*
X271148628Y-196585771D02*
X270291485Y-196585771D01*
X270720057Y-196585771D02*
X270720057Y-195085771D01*
X270577200Y-195300057D01*
X270434342Y-195442914D01*
X270291485Y-195514342D01*
D10*
D11*
X177002200Y-187507200D02*
X285002200Y-187507200D01*
D10*
D13*
X178714580Y-188211961D02*
X179857438Y-188211961D01*
X179036009Y-190211961D02*
X179286009Y-188211961D01*
X180274104Y-190211961D02*
X180440771Y-188878628D01*
X180524104Y-188211961D02*
X180416961Y-188307200D01*
X180500295Y-188402438D01*
X180607438Y-188307200D01*
X180524104Y-188211961D01*
X180500295Y-188402438D01*
X181107438Y-188878628D02*
X181869342Y-188878628D01*
X181476485Y-188211961D02*
X181262200Y-189926247D01*
X181333628Y-190116723D01*
X181512200Y-190211961D01*
X181702676Y-190211961D01*
X182655057Y-190211961D02*
X182476485Y-190116723D01*
X182405057Y-189926247D01*
X182619342Y-188211961D01*
X184190771Y-190116723D02*
X183988390Y-190211961D01*
X183607438Y-190211961D01*
X183428866Y-190116723D01*
X183357438Y-189926247D01*
X183452676Y-189164342D01*
X183571723Y-188973866D01*
X183774104Y-188878628D01*
X184155057Y-188878628D01*
X184333628Y-188973866D01*
X184405057Y-189164342D01*
X184381247Y-189354819D01*
X183405057Y-189545295D01*
X185155057Y-190021485D02*
X185238390Y-190116723D01*
X185131247Y-190211961D01*
X185047914Y-190116723D01*
X185155057Y-190021485D01*
X185131247Y-190211961D01*
X185286009Y-188973866D02*
X185369342Y-189069104D01*
X185262200Y-189164342D01*
X185178866Y-189069104D01*
X185286009Y-188973866D01*
X185262200Y-189164342D01*
D10*
D11*
X178934342Y-185600057D02*
X178434342Y-185600057D01*
X178434342Y-186385771D02*
X178434342Y-184885771D01*
X179148628Y-184885771D01*
X179720057Y-186385771D02*
X179720057Y-185385771D01*
X179720057Y-184885771D02*
X179648628Y-184957200D01*
X179720057Y-185028628D01*
X179791485Y-184957200D01*
X179720057Y-184885771D01*
X179720057Y-185028628D01*
X180648628Y-186385771D02*
X180505771Y-186314342D01*
X180434342Y-186171485D01*
X180434342Y-184885771D01*
X181791485Y-186314342D02*
X181648628Y-186385771D01*
X181362914Y-186385771D01*
X181220057Y-186314342D01*
X181148628Y-186171485D01*
X181148628Y-185600057D01*
X181220057Y-185457200D01*
X181362914Y-185385771D01*
X181648628Y-185385771D01*
X181791485Y-185457200D01*
X181862914Y-185600057D01*
X181862914Y-185742914D01*
X181148628Y-185885771D01*
X182505771Y-186242914D02*
X182577200Y-186314342D01*
X182505771Y-186385771D01*
X182434342Y-186314342D01*
X182505771Y-186242914D01*
X182505771Y-186385771D01*
X182505771Y-185457200D02*
X182577200Y-185528628D01*
X182505771Y-185600057D01*
X182434342Y-185528628D01*
X182505771Y-185457200D01*
X182505771Y-185600057D01*
X184362914Y-186385771D02*
X184362914Y-185385771D01*
X184362914Y-184885771D02*
X184291485Y-184957200D01*
X184362914Y-185028628D01*
X184434342Y-184957200D01*
X184362914Y-184885771D01*
X184362914Y-185028628D01*
X185005771Y-186314342D02*
X185148628Y-186385771D01*
X185434342Y-186385771D01*
X185577200Y-186314342D01*
X185648628Y-186171485D01*
X185648628Y-186100057D01*
X185577200Y-185957200D01*
X185434342Y-185885771D01*
X185220057Y-185885771D01*
X185077200Y-185814342D01*
X185005771Y-185671485D01*
X185005771Y-185600057D01*
X185077200Y-185457200D01*
X185220057Y-185385771D01*
X185434342Y-185385771D01*
X185577200Y-185457200D01*
X186505771Y-186385771D02*
X186362914Y-186314342D01*
X186291485Y-186242914D01*
X186220057Y-186100057D01*
X186220057Y-185671485D01*
X186291485Y-185528628D01*
X186362914Y-185457200D01*
X186505771Y-185385771D01*
X186720057Y-185385771D01*
X186862914Y-185457200D01*
X186934342Y-185528628D01*
X187005771Y-185671485D01*
X187005771Y-186100057D01*
X186934342Y-186242914D01*
X186862914Y-186314342D01*
X186720057Y-186385771D01*
X186505771Y-186385771D01*
X187291485Y-186528628D02*
X188434342Y-186528628D01*
X189434342Y-185385771D02*
X189434342Y-186385771D01*
X189077200Y-184814342D02*
X188720057Y-185885771D01*
X189648628Y-185885771D01*
X190505771Y-184885771D02*
X190648628Y-184885771D01*
X190791485Y-184957200D01*
X190862914Y-185028628D01*
X190934342Y-185171485D01*
X191005771Y-185457200D01*
X191005771Y-185814342D01*
X190934342Y-186100057D01*
X190862914Y-186242914D01*
X190791485Y-186314342D01*
X190648628Y-186385771D01*
X190505771Y-186385771D01*
X190362914Y-186314342D01*
X190291485Y-186242914D01*
X190220057Y-186100057D01*
X190148628Y-185814342D01*
X190148628Y-185457200D01*
X190220057Y-185171485D01*
X190291485Y-185028628D01*
X190362914Y-184957200D01*
X190505771Y-184885771D01*
X191648628Y-186242914D02*
X191720057Y-186314342D01*
X191648628Y-186385771D01*
X191577200Y-186314342D01*
X191648628Y-186242914D01*
X191648628Y-186385771D01*
X192362914Y-186385771D02*
X192362914Y-184885771D01*
X192505771Y-185814342D02*
X192934342Y-186385771D01*
X192934342Y-185385771D02*
X192362914Y-185957200D01*
X193577200Y-186385771D02*
X193577200Y-185385771D01*
X193577200Y-184885771D02*
X193505771Y-184957200D01*
X193577200Y-185028628D01*
X193648628Y-184957200D01*
X193577200Y-184885771D01*
X193577200Y-185028628D01*
X194934342Y-186314342D02*
X194791485Y-186385771D01*
X194505771Y-186385771D01*
X194362914Y-186314342D01*
X194291485Y-186242914D01*
X194220057Y-186100057D01*
X194220057Y-185671485D01*
X194291485Y-185528628D01*
X194362914Y-185457200D01*
X194505771Y-185385771D01*
X194791485Y-185385771D01*
X194934342Y-185457200D01*
X196220057Y-186385771D02*
X196220057Y-185600057D01*
X196148628Y-185457200D01*
X196005771Y-185385771D01*
X195720057Y-185385771D01*
X195577200Y-185457200D01*
X196220057Y-186314342D02*
X196077200Y-186385771D01*
X195720057Y-186385771D01*
X195577200Y-186314342D01*
X195505771Y-186171485D01*
X195505771Y-186028628D01*
X195577200Y-185885771D01*
X195720057Y-185814342D01*
X196077200Y-185814342D01*
X196220057Y-185742914D01*
X197577200Y-186385771D02*
X197577200Y-184885771D01*
X197577200Y-186314342D02*
X197434342Y-186385771D01*
X197148628Y-186385771D01*
X197005771Y-186314342D01*
X196934342Y-186242914D01*
X196862914Y-186100057D01*
X196862914Y-185671485D01*
X196934342Y-185528628D01*
X197005771Y-185457200D01*
X197148628Y-185385771D01*
X197434342Y-185385771D01*
X197577200Y-185457200D01*
X197934342Y-186528628D02*
X199077200Y-186528628D01*
X199434342Y-185385771D02*
X199434342Y-186885771D01*
X199434342Y-185457200D02*
X199577200Y-185385771D01*
X199862914Y-185385771D01*
X200005771Y-185457200D01*
X200077200Y-185528628D01*
X200148628Y-185671485D01*
X200148628Y-186100057D01*
X200077200Y-186242914D01*
X200005771Y-186314342D01*
X199862914Y-186385771D01*
X199577200Y-186385771D01*
X199434342Y-186314342D01*
X201434342Y-186314342D02*
X201291485Y-186385771D01*
X201005771Y-186385771D01*
X200862914Y-186314342D01*
X200791485Y-186242914D01*
X200720057Y-186100057D01*
X200720057Y-185671485D01*
X200791485Y-185528628D01*
X200862914Y-185457200D01*
X201005771Y-185385771D01*
X201291485Y-185385771D01*
X201434342Y-185457200D01*
X202077200Y-186385771D02*
X202077200Y-184885771D01*
X202077200Y-185457200D02*
X202220057Y-185385771D01*
X202505771Y-185385771D01*
X202648628Y-185457200D01*
X202720057Y-185528628D01*
X202791485Y-185671485D01*
X202791485Y-186100057D01*
X202720057Y-186242914D01*
X202648628Y-186314342D01*
X202505771Y-186385771D01*
X202220057Y-186385771D01*
X202077200Y-186314342D01*
D10*
D11*
X177002200Y-181507200D02*
X285002200Y-181507200D01*
D10*
D11*
X178362914Y-183614342D02*
X178577200Y-183685771D01*
X178934342Y-183685771D01*
X179077200Y-183614342D01*
X179148628Y-183542914D01*
X179220057Y-183400057D01*
X179220057Y-183257200D01*
X179148628Y-183114342D01*
X179077200Y-183042914D01*
X178934342Y-182971485D01*
X178648628Y-182900057D01*
X178505771Y-182828628D01*
X178434342Y-182757200D01*
X178362914Y-182614342D01*
X178362914Y-182471485D01*
X178434342Y-182328628D01*
X178505771Y-182257200D01*
X178648628Y-182185771D01*
X179005771Y-182185771D01*
X179220057Y-182257200D01*
X179862914Y-183685771D02*
X179862914Y-182185771D01*
X180505771Y-183685771D02*
X180505771Y-182900057D01*
X180434342Y-182757200D01*
X180291485Y-182685771D01*
X180077200Y-182685771D01*
X179934342Y-182757200D01*
X179862914Y-182828628D01*
X181791485Y-183614342D02*
X181648628Y-183685771D01*
X181362914Y-183685771D01*
X181220057Y-183614342D01*
X181148628Y-183471485D01*
X181148628Y-182900057D01*
X181220057Y-182757200D01*
X181362914Y-182685771D01*
X181648628Y-182685771D01*
X181791485Y-182757200D01*
X181862914Y-182900057D01*
X181862914Y-183042914D01*
X181148628Y-183185771D01*
X183077200Y-183614342D02*
X182934342Y-183685771D01*
X182648628Y-183685771D01*
X182505771Y-183614342D01*
X182434342Y-183471485D01*
X182434342Y-182900057D01*
X182505771Y-182757200D01*
X182648628Y-182685771D01*
X182934342Y-182685771D01*
X183077200Y-182757200D01*
X183148628Y-182900057D01*
X183148628Y-183042914D01*
X182434342Y-183185771D01*
X183577200Y-182685771D02*
X184148628Y-182685771D01*
X183791485Y-182185771D02*
X183791485Y-183471485D01*
X183862914Y-183614342D01*
X184005771Y-183685771D01*
X184148628Y-183685771D01*
X184648628Y-183542914D02*
X184720057Y-183614342D01*
X184648628Y-183685771D01*
X184577200Y-183614342D01*
X184648628Y-183542914D01*
X184648628Y-183685771D01*
X184648628Y-182757200D02*
X184720057Y-182828628D01*
X184648628Y-182900057D01*
X184577200Y-182828628D01*
X184648628Y-182757200D01*
X184648628Y-182900057D01*
D10*
D11*
X197002200Y-191507200D02*
X197002200Y-194507200D01*
D10*
D11*
X261002200Y-191507200D02*
X261002200Y-198007200D01*
D14*
%TO.C,MX2*%
X54927500Y-28257500D03*
D15*
X52387500Y-33337500D03*
D14*
X48577500Y-30797500D03*
D16*
X47307500Y-33337500D03*
X57467500Y-33337500D03*
%TD*%
D14*
%TO.C,MX24*%
X40640000Y-66357500D03*
D15*
X38100000Y-71437500D03*
D14*
X34290000Y-68897500D03*
D16*
X33020000Y-71437500D03*
X43180000Y-71437500D03*
%TD*%
D14*
%TO.C,MX23*%
X231140000Y-47307500D03*
D15*
X228600000Y-52387500D03*
D14*
X224790000Y-49847500D03*
D16*
X223520000Y-52387500D03*
X233680000Y-52387500D03*
%TD*%
D17*
%TO.C,Y1*%
X138906250Y-92687500D03*
X138906250Y-90487500D03*
X137206250Y-90487500D03*
X137206250Y-92687500D03*
%TD*%
D18*
%TO.C,USB1*%
X38418750Y-25400000D03*
X45718750Y-25400000D03*
X45718750Y-29900000D03*
X38418750Y-29900000D03*
D19*
X40468750Y-29900000D03*
X41268750Y-29900000D03*
X42068750Y-29900000D03*
X42868750Y-29900000D03*
X43668750Y-29900000D03*
%TD*%
D20*
%TO.C,U1*%
X114806250Y-87275000D03*
X114806250Y-88075000D03*
X114806250Y-88875000D03*
X114806250Y-89675000D03*
X114806250Y-90475000D03*
X114806250Y-91275000D03*
X114806250Y-92075000D03*
X114806250Y-92875000D03*
X114806250Y-93675000D03*
X114806250Y-94475000D03*
X114806250Y-95275000D03*
D21*
X116506250Y-96975000D03*
X117306250Y-96975000D03*
X118106250Y-96975000D03*
X118906250Y-96975000D03*
X119706250Y-96975000D03*
X120506250Y-96975000D03*
X121306250Y-96975000D03*
X122106250Y-96975000D03*
X122906250Y-96975000D03*
X123706250Y-96975000D03*
X124506250Y-96975000D03*
D20*
X126206250Y-95275000D03*
X126206250Y-94475000D03*
X126206250Y-93675000D03*
X126206250Y-92875000D03*
X126206250Y-92075000D03*
X126206250Y-91275000D03*
X126206250Y-90475000D03*
X126206250Y-89675000D03*
X126206250Y-88875000D03*
X126206250Y-88075000D03*
X126206250Y-87275000D03*
D21*
X124506250Y-85575000D03*
X123706250Y-85575000D03*
X122906250Y-85575000D03*
X122106250Y-85575000D03*
X121306250Y-85575000D03*
X120506250Y-85575000D03*
X119706250Y-85575000D03*
X118906250Y-85575000D03*
X118106250Y-85575000D03*
X117306250Y-85575000D03*
X116506250Y-85575000D03*
%TD*%
D22*
%TO.C,SW1*%
X58812500Y-25137500D03*
X65012500Y-28837500D03*
X58812500Y-28837500D03*
X65012500Y-25137500D03*
%TD*%
%TO.C,R4*%
G36*
G01*
X45556250Y-38643750D02*
X46518750Y-38643750D01*
G75*
G02*
X46787500Y-38912500I0J-268750D01*
G01*
X46787500Y-39450000D01*
G75*
G02*
X46518750Y-39718750I-268750J0D01*
G01*
X45556250Y-39718750D01*
G75*
G02*
X45287500Y-39450000I0J268750D01*
G01*
X45287500Y-38912500D01*
G75*
G02*
X45556250Y-38643750I268750J0D01*
G01*
G37*
G36*
G01*
X45556250Y-36768750D02*
X46518750Y-36768750D01*
G75*
G02*
X46787500Y-37037500I0J-268750D01*
G01*
X46787500Y-37575000D01*
G75*
G02*
X46518750Y-37843750I-268750J0D01*
G01*
X45556250Y-37843750D01*
G75*
G02*
X45287500Y-37575000I0J268750D01*
G01*
X45287500Y-37037500D01*
G75*
G02*
X45556250Y-36768750I268750J0D01*
G01*
G37*
%TD*%
%TO.C,R3*%
G36*
G01*
X41759000Y-37843750D02*
X40796500Y-37843750D01*
G75*
G02*
X40527750Y-37575000I0J268750D01*
G01*
X40527750Y-37037500D01*
G75*
G02*
X40796500Y-36768750I268750J0D01*
G01*
X41759000Y-36768750D01*
G75*
G02*
X42027750Y-37037500I0J-268750D01*
G01*
X42027750Y-37575000D01*
G75*
G02*
X41759000Y-37843750I-268750J0D01*
G01*
G37*
G36*
G01*
X41759000Y-39718750D02*
X40796500Y-39718750D01*
G75*
G02*
X40527750Y-39450000I0J268750D01*
G01*
X40527750Y-38912500D01*
G75*
G02*
X40796500Y-38643750I268750J0D01*
G01*
X41759000Y-38643750D01*
G75*
G02*
X42027750Y-38912500I0J-268750D01*
G01*
X42027750Y-39450000D01*
G75*
G02*
X41759000Y-39718750I-268750J0D01*
G01*
G37*
%TD*%
%TO.C,R2*%
G36*
G01*
X44137500Y-37843750D02*
X43175000Y-37843750D01*
G75*
G02*
X42906250Y-37575000I0J268750D01*
G01*
X42906250Y-37037500D01*
G75*
G02*
X43175000Y-36768750I268750J0D01*
G01*
X44137500Y-36768750D01*
G75*
G02*
X44406250Y-37037500I0J-268750D01*
G01*
X44406250Y-37575000D01*
G75*
G02*
X44137500Y-37843750I-268750J0D01*
G01*
G37*
G36*
G01*
X44137500Y-39718750D02*
X43175000Y-39718750D01*
G75*
G02*
X42906250Y-39450000I0J268750D01*
G01*
X42906250Y-38912500D01*
G75*
G02*
X43175000Y-38643750I268750J0D01*
G01*
X44137500Y-38643750D01*
G75*
G02*
X44406250Y-38912500I0J-268750D01*
G01*
X44406250Y-39450000D01*
G75*
G02*
X44137500Y-39718750I-268750J0D01*
G01*
G37*
%TD*%
%TO.C,R1*%
G36*
G01*
X48900000Y-37843750D02*
X47937500Y-37843750D01*
G75*
G02*
X47668750Y-37575000I0J268750D01*
G01*
X47668750Y-37037500D01*
G75*
G02*
X47937500Y-36768750I268750J0D01*
G01*
X48900000Y-36768750D01*
G75*
G02*
X49168750Y-37037500I0J-268750D01*
G01*
X49168750Y-37575000D01*
G75*
G02*
X48900000Y-37843750I-268750J0D01*
G01*
G37*
G36*
G01*
X48900000Y-39718750D02*
X47937500Y-39718750D01*
G75*
G02*
X47668750Y-39450000I0J268750D01*
G01*
X47668750Y-38912500D01*
G75*
G02*
X47937500Y-38643750I268750J0D01*
G01*
X48900000Y-38643750D01*
G75*
G02*
X49168750Y-38912500I0J-268750D01*
G01*
X49168750Y-39450000D01*
G75*
G02*
X48900000Y-39718750I-268750J0D01*
G01*
G37*
%TD*%
D14*
%TO.C,MX40*%
X240665000Y-85407500D03*
D15*
X238125000Y-90487500D03*
D14*
X234315000Y-87947500D03*
D16*
X233045000Y-90487500D03*
X243205000Y-90487500D03*
%TD*%
D14*
%TO.C,MX39*%
X216852500Y-85407500D03*
D15*
X214312500Y-90487500D03*
D14*
X210502500Y-87947500D03*
D16*
X209232500Y-90487500D03*
X219392500Y-90487500D03*
%TD*%
D14*
%TO.C,MX38*%
X154940000Y-85407500D03*
D15*
X152400000Y-90487500D03*
D14*
X148590000Y-87947500D03*
D16*
X147320000Y-90487500D03*
X157480000Y-90487500D03*
D23*
X95250000Y-83502500D03*
X190500000Y-83502500D03*
D15*
X95250000Y-98742500D03*
X190500000Y-98742500D03*
%TD*%
D14*
%TO.C,MX37*%
X73977500Y-85407500D03*
D15*
X71437500Y-90487500D03*
D14*
X67627500Y-87947500D03*
D16*
X66357500Y-90487500D03*
X76517500Y-90487500D03*
%TD*%
D14*
%TO.C,MX36*%
X50165000Y-85407500D03*
D15*
X47625000Y-90487500D03*
D14*
X43815000Y-87947500D03*
D16*
X42545000Y-90487500D03*
X52705000Y-90487500D03*
%TD*%
D14*
%TO.C,MX35*%
X254952500Y-66357500D03*
D15*
X252412500Y-71437500D03*
D14*
X248602500Y-68897500D03*
D16*
X247332500Y-71437500D03*
X257492500Y-71437500D03*
%TD*%
D14*
%TO.C,MX34*%
X235902500Y-66357500D03*
D15*
X233362500Y-71437500D03*
D14*
X229552500Y-68897500D03*
D16*
X228282500Y-71437500D03*
X238442500Y-71437500D03*
%TD*%
D14*
%TO.C,MX33*%
X216852500Y-66357500D03*
D15*
X214312500Y-71437500D03*
D14*
X210502500Y-68897500D03*
D16*
X209232500Y-71437500D03*
X219392500Y-71437500D03*
%TD*%
D14*
%TO.C,MX32*%
X197802500Y-66357500D03*
D15*
X195262500Y-71437500D03*
D14*
X191452500Y-68897500D03*
D16*
X190182500Y-71437500D03*
X200342500Y-71437500D03*
%TD*%
D14*
%TO.C,MX31*%
X178752500Y-66357500D03*
D15*
X176212500Y-71437500D03*
D14*
X172402500Y-68897500D03*
D16*
X171132500Y-71437500D03*
X181292500Y-71437500D03*
%TD*%
D14*
%TO.C,MX30*%
X159702500Y-66357500D03*
D15*
X157162500Y-71437500D03*
D14*
X153352500Y-68897500D03*
D16*
X152082500Y-71437500D03*
X162242500Y-71437500D03*
%TD*%
D14*
%TO.C,MX29*%
X140652500Y-66357500D03*
D15*
X138112500Y-71437500D03*
D14*
X134302500Y-68897500D03*
D16*
X133032500Y-71437500D03*
X143192500Y-71437500D03*
%TD*%
D14*
%TO.C,MX28*%
X121602500Y-66357500D03*
D15*
X119062500Y-71437500D03*
D14*
X115252500Y-68897500D03*
D16*
X113982500Y-71437500D03*
X124142500Y-71437500D03*
%TD*%
D14*
%TO.C,MX27*%
X102552500Y-66357500D03*
D15*
X100012500Y-71437500D03*
D14*
X96202500Y-68897500D03*
D16*
X94932500Y-71437500D03*
X105092500Y-71437500D03*
%TD*%
D14*
%TO.C,MX26*%
X83502500Y-66357500D03*
D15*
X80962500Y-71437500D03*
D14*
X77152500Y-68897500D03*
D16*
X75882500Y-71437500D03*
X86042500Y-71437500D03*
%TD*%
D14*
%TO.C,MX25*%
X64452500Y-66357500D03*
D15*
X61912500Y-71437500D03*
D14*
X58102500Y-68897500D03*
D16*
X56832500Y-71437500D03*
X66992500Y-71437500D03*
%TD*%
D14*
%TO.C,MX22*%
X212090000Y-47307500D03*
D15*
X209550000Y-52387500D03*
D14*
X205740000Y-49847500D03*
D16*
X204470000Y-52387500D03*
X214630000Y-52387500D03*
%TD*%
D14*
%TO.C,MX21*%
X193040000Y-47307500D03*
D15*
X190500000Y-52387500D03*
D14*
X186690000Y-49847500D03*
D16*
X185420000Y-52387500D03*
X195580000Y-52387500D03*
%TD*%
D14*
%TO.C,MX20*%
X173990000Y-47307500D03*
D15*
X171450000Y-52387500D03*
D14*
X167640000Y-49847500D03*
D16*
X166370000Y-52387500D03*
X176530000Y-52387500D03*
%TD*%
D14*
%TO.C,MX19*%
X154940000Y-47307500D03*
D15*
X152400000Y-52387500D03*
D14*
X148590000Y-49847500D03*
D16*
X147320000Y-52387500D03*
X157480000Y-52387500D03*
%TD*%
D14*
%TO.C,MX18*%
X135890000Y-47307500D03*
D15*
X133350000Y-52387500D03*
D14*
X129540000Y-49847500D03*
D16*
X128270000Y-52387500D03*
X138430000Y-52387500D03*
%TD*%
D14*
%TO.C,MX17*%
X116840000Y-47307500D03*
D15*
X114300000Y-52387500D03*
D14*
X110490000Y-49847500D03*
D16*
X109220000Y-52387500D03*
X119380000Y-52387500D03*
%TD*%
D14*
%TO.C,MX16*%
X97790000Y-47307500D03*
D15*
X95250000Y-52387500D03*
D14*
X91440000Y-49847500D03*
D16*
X90170000Y-52387500D03*
X100330000Y-52387500D03*
%TD*%
D14*
%TO.C,MX15*%
X78740000Y-47307500D03*
D15*
X76200000Y-52387500D03*
D14*
X72390000Y-49847500D03*
D16*
X71120000Y-52387500D03*
X81280000Y-52387500D03*
%TD*%
D14*
%TO.C,MX14*%
X59690000Y-47307500D03*
D15*
X57150000Y-52387500D03*
D14*
X53340000Y-49847500D03*
D16*
X52070000Y-52387500D03*
X62230000Y-52387500D03*
%TD*%
D14*
%TO.C,MX13*%
X38258750Y-47307500D03*
D15*
X35718750Y-52387500D03*
D14*
X31908750Y-49847500D03*
D16*
X30638750Y-52387500D03*
X40798750Y-52387500D03*
%TD*%
D15*
%TO.C,MX12*%
X258286250Y-30924500D03*
X258286250Y-54800500D03*
D23*
X243046250Y-30924500D03*
X243046250Y-54800500D03*
D16*
X255111250Y-42862500D03*
X244951250Y-42862500D03*
D24*
X251301250Y-47942500D03*
D25*
X248761250Y-47942500D03*
D14*
X246221250Y-40322500D03*
D15*
X250031250Y-42862500D03*
D14*
X252571250Y-37782500D03*
%TD*%
%TO.C,MX11*%
X226377500Y-28257500D03*
D15*
X223837500Y-33337500D03*
D14*
X220027500Y-30797500D03*
D16*
X218757500Y-33337500D03*
X228917500Y-33337500D03*
%TD*%
D14*
%TO.C,MX10*%
X207327500Y-28257500D03*
D15*
X204787500Y-33337500D03*
D14*
X200977500Y-30797500D03*
D16*
X199707500Y-33337500D03*
X209867500Y-33337500D03*
%TD*%
D14*
%TO.C,MX9*%
X188277500Y-28257500D03*
D15*
X185737500Y-33337500D03*
D14*
X181927500Y-30797500D03*
D16*
X180657500Y-33337500D03*
X190817500Y-33337500D03*
%TD*%
D14*
%TO.C,MX8*%
X169227500Y-28257500D03*
D15*
X166687500Y-33337500D03*
D14*
X162877500Y-30797500D03*
D16*
X161607500Y-33337500D03*
X171767500Y-33337500D03*
%TD*%
D14*
%TO.C,MX7*%
X150177500Y-28257500D03*
D15*
X147637500Y-33337500D03*
D14*
X143827500Y-30797500D03*
D16*
X142557500Y-33337500D03*
X152717500Y-33337500D03*
%TD*%
D14*
%TO.C,MX6*%
X131127500Y-28257500D03*
D15*
X128587500Y-33337500D03*
D14*
X124777500Y-30797500D03*
D16*
X123507500Y-33337500D03*
X133667500Y-33337500D03*
%TD*%
D14*
%TO.C,MX5*%
X112077500Y-28257500D03*
D15*
X109537500Y-33337500D03*
D14*
X105727500Y-30797500D03*
D16*
X104457500Y-33337500D03*
X114617500Y-33337500D03*
%TD*%
D14*
%TO.C,MX4*%
X93027500Y-28257500D03*
D15*
X90487500Y-33337500D03*
D14*
X86677500Y-30797500D03*
D16*
X85407500Y-33337500D03*
X95567500Y-33337500D03*
%TD*%
D14*
%TO.C,MX3*%
X73977500Y-28257500D03*
D15*
X71437500Y-33337500D03*
D14*
X67627500Y-30797500D03*
D16*
X66357500Y-33337500D03*
X76517500Y-33337500D03*
%TD*%
D14*
%TO.C,MX1*%
X35877500Y-28257500D03*
D15*
X33337500Y-33337500D03*
D14*
X29527500Y-30797500D03*
D16*
X28257500Y-33337500D03*
X38417500Y-33337500D03*
%TD*%
%TO.C,F1*%
G36*
G01*
X39548750Y-37187500D02*
X38238750Y-37187500D01*
G75*
G02*
X37968750Y-36917500I0J270000D01*
G01*
X37968750Y-36107500D01*
G75*
G02*
X38238750Y-35837500I270000J0D01*
G01*
X39548750Y-35837500D01*
G75*
G02*
X39818750Y-36107500I0J-270000D01*
G01*
X39818750Y-36917500D01*
G75*
G02*
X39548750Y-37187500I-270000J0D01*
G01*
G37*
G36*
G01*
X39548750Y-39987500D02*
X38238750Y-39987500D01*
G75*
G02*
X37968750Y-39717500I0J270000D01*
G01*
X37968750Y-38907500D01*
G75*
G02*
X38238750Y-38637500I270000J0D01*
G01*
X39548750Y-38637500D01*
G75*
G02*
X39818750Y-38907500I0J-270000D01*
G01*
X39818750Y-39717500D01*
G75*
G02*
X39548750Y-39987500I-270000J0D01*
G01*
G37*
%TD*%
D26*
%TO.C,D40*%
X246062500Y-91218750D03*
X246062500Y-94518750D03*
%TD*%
%TO.C,D39*%
X222250000Y-91218750D03*
X222250000Y-94518750D03*
%TD*%
%TO.C,D38*%
X160337500Y-91281250D03*
X160337500Y-94581250D03*
%TD*%
%TO.C,D37*%
X79375000Y-91281250D03*
X79375000Y-94581250D03*
%TD*%
%TO.C,D36*%
X55562500Y-91218750D03*
X55562500Y-94518750D03*
%TD*%
%TO.C,D35*%
X260350000Y-72231250D03*
X260350000Y-75531250D03*
%TD*%
%TO.C,D34*%
X241300000Y-72231250D03*
X241300000Y-75531250D03*
%TD*%
%TO.C,D33*%
X222250000Y-72231250D03*
X222250000Y-75531250D03*
%TD*%
%TO.C,D32*%
X203200000Y-72231250D03*
X203200000Y-75531250D03*
%TD*%
%TO.C,D31*%
X184150000Y-72231250D03*
X184150000Y-75531250D03*
%TD*%
%TO.C,D30*%
X165100000Y-72231250D03*
X165100000Y-75531250D03*
%TD*%
%TO.C,D29*%
X146050000Y-72168750D03*
X146050000Y-75468750D03*
%TD*%
%TO.C,D28*%
X127000000Y-72231250D03*
X127000000Y-75531250D03*
%TD*%
%TO.C,D27*%
X107950000Y-72231250D03*
X107950000Y-75531250D03*
%TD*%
%TO.C,D26*%
X88900000Y-72231250D03*
X88900000Y-75531250D03*
%TD*%
%TO.C,D25*%
X69850000Y-72231250D03*
X69850000Y-75531250D03*
%TD*%
%TO.C,D24*%
X46037500Y-72231250D03*
X46037500Y-75531250D03*
%TD*%
%TO.C,D23*%
X236537500Y-53118750D03*
X236537500Y-56418750D03*
%TD*%
%TO.C,D22*%
X217487500Y-53181250D03*
X217487500Y-56481250D03*
%TD*%
%TO.C,D21*%
X198437500Y-53118750D03*
X198437500Y-56418750D03*
%TD*%
%TO.C,D20*%
X179387500Y-53181250D03*
X179387500Y-56481250D03*
%TD*%
%TO.C,D19*%
X160337500Y-53118750D03*
X160337500Y-56418750D03*
%TD*%
%TO.C,D18*%
X141287500Y-53181250D03*
X141287500Y-56481250D03*
%TD*%
%TO.C,D17*%
X122237500Y-53181250D03*
X122237500Y-56481250D03*
%TD*%
%TO.C,D16*%
X103187500Y-53181250D03*
X103187500Y-56481250D03*
%TD*%
%TO.C,D15*%
X84137500Y-53181250D03*
X84137500Y-56481250D03*
%TD*%
%TO.C,D14*%
X65087500Y-53118750D03*
X65087500Y-56418750D03*
%TD*%
D27*
%TO.C,D13*%
X38831250Y-56356250D03*
X42131250Y-56356250D03*
%TD*%
D26*
%TO.C,D12*%
X234950000Y-34068750D03*
X234950000Y-37368750D03*
%TD*%
%TO.C,D11*%
X231775000Y-34068750D03*
X231775000Y-37368750D03*
%TD*%
%TO.C,D10*%
X212725000Y-34068750D03*
X212725000Y-37368750D03*
%TD*%
%TO.C,D9*%
X193675000Y-34068750D03*
X193675000Y-37368750D03*
%TD*%
%TO.C,D8*%
X174625000Y-34068750D03*
X174625000Y-37368750D03*
%TD*%
%TO.C,D7*%
X155575000Y-34131250D03*
X155575000Y-37431250D03*
%TD*%
%TO.C,D6*%
X136525000Y-34068750D03*
X136525000Y-37368750D03*
%TD*%
%TO.C,D5*%
X117475000Y-34068750D03*
X117475000Y-37368750D03*
%TD*%
%TO.C,D4*%
X98425000Y-34131250D03*
X98425000Y-37431250D03*
%TD*%
%TO.C,D3*%
X79375000Y-34131250D03*
X79375000Y-37431250D03*
%TD*%
%TO.C,D2*%
X60325000Y-34068750D03*
X60325000Y-37368750D03*
%TD*%
D27*
%TO.C,D1*%
X33337500Y-38100000D03*
X36637500Y-38100000D03*
%TD*%
%TO.C,C7*%
G36*
G01*
X134456250Y-86775000D02*
X135418750Y-86775000D01*
G75*
G02*
X135687500Y-87043750I0J-268750D01*
G01*
X135687500Y-87581250D01*
G75*
G02*
X135418750Y-87850000I-268750J0D01*
G01*
X134456250Y-87850000D01*
G75*
G02*
X134187500Y-87581250I0J268750D01*
G01*
X134187500Y-87043750D01*
G75*
G02*
X134456250Y-86775000I268750J0D01*
G01*
G37*
G36*
G01*
X134456250Y-84900000D02*
X135418750Y-84900000D01*
G75*
G02*
X135687500Y-85168750I0J-268750D01*
G01*
X135687500Y-85706250D01*
G75*
G02*
X135418750Y-85975000I-268750J0D01*
G01*
X134456250Y-85975000D01*
G75*
G02*
X134187500Y-85706250I0J268750D01*
G01*
X134187500Y-85168750D01*
G75*
G02*
X134456250Y-84900000I268750J0D01*
G01*
G37*
%TD*%
%TO.C,C6*%
G36*
G01*
X129068750Y-97881250D02*
X128106250Y-97881250D01*
G75*
G02*
X127837500Y-97612500I0J268750D01*
G01*
X127837500Y-97075000D01*
G75*
G02*
X128106250Y-96806250I268750J0D01*
G01*
X129068750Y-96806250D01*
G75*
G02*
X129337500Y-97075000I0J-268750D01*
G01*
X129337500Y-97612500D01*
G75*
G02*
X129068750Y-97881250I-268750J0D01*
G01*
G37*
G36*
G01*
X129068750Y-99756250D02*
X128106250Y-99756250D01*
G75*
G02*
X127837500Y-99487500I0J268750D01*
G01*
X127837500Y-98950000D01*
G75*
G02*
X128106250Y-98681250I268750J0D01*
G01*
X129068750Y-98681250D01*
G75*
G02*
X129337500Y-98950000I0J-268750D01*
G01*
X129337500Y-99487500D01*
G75*
G02*
X129068750Y-99756250I-268750J0D01*
G01*
G37*
%TD*%
%TO.C,C5*%
G36*
G01*
X110812500Y-94850000D02*
X109850000Y-94850000D01*
G75*
G02*
X109581250Y-94581250I0J268750D01*
G01*
X109581250Y-94043750D01*
G75*
G02*
X109850000Y-93775000I268750J0D01*
G01*
X110812500Y-93775000D01*
G75*
G02*
X111081250Y-94043750I0J-268750D01*
G01*
X111081250Y-94581250D01*
G75*
G02*
X110812500Y-94850000I-268750J0D01*
G01*
G37*
G36*
G01*
X110812500Y-96725000D02*
X109850000Y-96725000D01*
G75*
G02*
X109581250Y-96456250I0J268750D01*
G01*
X109581250Y-95918750D01*
G75*
G02*
X109850000Y-95650000I268750J0D01*
G01*
X110812500Y-95650000D01*
G75*
G02*
X111081250Y-95918750I0J-268750D01*
G01*
X111081250Y-96456250D01*
G75*
G02*
X110812500Y-96725000I-268750J0D01*
G01*
G37*
%TD*%
%TO.C,C4*%
G36*
G01*
X109850000Y-87568750D02*
X110812500Y-87568750D01*
G75*
G02*
X111081250Y-87837500I0J-268750D01*
G01*
X111081250Y-88375000D01*
G75*
G02*
X110812500Y-88643750I-268750J0D01*
G01*
X109850000Y-88643750D01*
G75*
G02*
X109581250Y-88375000I0J268750D01*
G01*
X109581250Y-87837500D01*
G75*
G02*
X109850000Y-87568750I268750J0D01*
G01*
G37*
G36*
G01*
X109850000Y-85693750D02*
X110812500Y-85693750D01*
G75*
G02*
X111081250Y-85962500I0J-268750D01*
G01*
X111081250Y-86500000D01*
G75*
G02*
X110812500Y-86768750I-268750J0D01*
G01*
X109850000Y-86768750D01*
G75*
G02*
X109581250Y-86500000I0J268750D01*
G01*
X109581250Y-85962500D01*
G75*
G02*
X109850000Y-85693750I268750J0D01*
G01*
G37*
%TD*%
%TO.C,C3*%
G36*
G01*
X119600000Y-80481250D02*
X119600000Y-81443750D01*
G75*
G02*
X119331250Y-81712500I-268750J0D01*
G01*
X118793750Y-81712500D01*
G75*
G02*
X118525000Y-81443750I0J268750D01*
G01*
X118525000Y-80481250D01*
G75*
G02*
X118793750Y-80212500I268750J0D01*
G01*
X119331250Y-80212500D01*
G75*
G02*
X119600000Y-80481250I0J-268750D01*
G01*
G37*
G36*
G01*
X121475000Y-80481250D02*
X121475000Y-81443750D01*
G75*
G02*
X121206250Y-81712500I-268750J0D01*
G01*
X120668750Y-81712500D01*
G75*
G02*
X120400000Y-81443750I0J268750D01*
G01*
X120400000Y-80481250D01*
G75*
G02*
X120668750Y-80212500I268750J0D01*
G01*
X121206250Y-80212500D01*
G75*
G02*
X121475000Y-80481250I0J-268750D01*
G01*
G37*
%TD*%
%TO.C,C2*%
G36*
G01*
X137568750Y-86831250D02*
X137568750Y-87793750D01*
G75*
G02*
X137300000Y-88062500I-268750J0D01*
G01*
X136762500Y-88062500D01*
G75*
G02*
X136493750Y-87793750I0J268750D01*
G01*
X136493750Y-86831250D01*
G75*
G02*
X136762500Y-86562500I268750J0D01*
G01*
X137300000Y-86562500D01*
G75*
G02*
X137568750Y-86831250I0J-268750D01*
G01*
G37*
G36*
G01*
X139443750Y-86831250D02*
X139443750Y-87793750D01*
G75*
G02*
X139175000Y-88062500I-268750J0D01*
G01*
X138637500Y-88062500D01*
G75*
G02*
X138368750Y-87793750I0J268750D01*
G01*
X138368750Y-86831250D01*
G75*
G02*
X138637500Y-86562500I268750J0D01*
G01*
X139175000Y-86562500D01*
G75*
G02*
X139443750Y-86831250I0J-268750D01*
G01*
G37*
%TD*%
%TO.C,C1*%
G36*
G01*
X138368750Y-96525000D02*
X138368750Y-95562500D01*
G75*
G02*
X138637500Y-95293750I268750J0D01*
G01*
X139175000Y-95293750D01*
G75*
G02*
X139443750Y-95562500I0J-268750D01*
G01*
X139443750Y-96525000D01*
G75*
G02*
X139175000Y-96793750I-268750J0D01*
G01*
X138637500Y-96793750D01*
G75*
G02*
X138368750Y-96525000I0J268750D01*
G01*
G37*
G36*
G01*
X136493750Y-96525000D02*
X136493750Y-95562500D01*
G75*
G02*
X136762500Y-95293750I268750J0D01*
G01*
X137300000Y-95293750D01*
G75*
G02*
X137568750Y-95562500I0J-268750D01*
G01*
X137568750Y-96525000D01*
G75*
G02*
X137300000Y-96793750I-268750J0D01*
G01*
X136762500Y-96793750D01*
G75*
G02*
X136493750Y-96525000I0J268750D01*
G01*
G37*
%TD*%
M02*
